# Blender v3.1.2 OBJ File: ''
# www.blender.org
mtllib 4wayobj.mtl
o Road_M3
v -2.000000 -0.020000 2.000000
v -2.000000 0.020000 2.000000
v -2.000000 0.020000 -2.000000
v -2.000000 -0.020000 -2.000000
v 2.000000 0.020000 -2.000000
v 2.000000 -0.020000 -2.000000
v 2.000000 0.020000 2.000000
v 2.000000 -0.020000 2.000000
vt -0.999401 1.999401
vt -0.999401 1.000599
vt -0.000599 1.000599
vt -0.000599 1.999401
vt 1.000599 -0.000599
vt 1.000599 -0.999401
vt 1.999401 -0.999400
vt 1.999401 -0.000599
vt -0.000599 0.000599
vt -0.000599 0.999401
vt -0.999401 0.999401
vt -0.999401 0.000599
vt 0.999401 0.000599
vt 0.999401 0.999401
vt 0.000599 0.999401
vt 0.000599 0.000599
vt 0.999401 -0.000599
vt 0.000599 -0.000599
vt 0.000599 -0.999401
vt 0.999401 -0.999401
vt -0.000599 -0.000599
vt -0.999401 -0.000599
vt -0.999401 -0.999400
vt -0.000599 -0.999401
vn -1.0000 0.0000 0.0000
vn 0.0000 0.0000 -1.0000
vn 1.0000 0.0000 0.0000
vn 0.0000 0.0000 1.0000
vn 0.0000 -1.0000 -0.0000
vn 0.0000 1.0000 0.0000
usemtl Road
s 1
f 1/1/1 2/2/1 3/3/1 4/4/1
f 4/5/2 3/6/2 5/7/2 6/8/2
f 6/9/3 5/10/3 7/11/3 8/12/3
f 8/13/4 7/14/4 2/15/4 1/16/4
f 4/17/5 6/18/5 8/19/5 1/20/5
f 5/21/6 3/22/6 2/23/6 7/24/6
