# Blender v2.79 (sub 0) OBJ File: 'FENCE 2.blend'
# www.blender.org
mtllib FENCE 2.mtl
o FENCE_Plane.006
v -0.829049 0.131484 -0.045830
v -0.766882 0.069317 -0.045830
v -0.838666 -0.002467 -0.045830
v -0.900833 0.059700 -0.045830
v -0.829049 0.131484 0.025954
v -0.900833 0.059700 0.025954
v -0.838666 -0.002467 0.025954
v -0.766882 0.069317 0.025954
v 1.240378 0.131484 -0.045830
v 1.249995 -0.002467 -0.045830
v 1.178211 0.069317 -0.045830
v 1.240378 0.131484 0.025954
v 1.178211 0.069317 0.025954
v 1.249995 -0.002467 0.025954
v 1.312163 0.059700 0.025954
v -0.829049 1.023732 -0.045830
v -0.900833 1.095517 -0.045830
v -0.838666 1.157684 -0.045830
v -0.766882 1.085899 -0.045830
v -0.829049 1.023732 0.025954
v -0.838666 1.157684 0.025954
v -0.900833 1.095517 0.025954
v 1.178211 1.085899 -0.045830
v 1.249995 1.157684 -0.045830
v 1.240378 1.023732 -0.045830
v 1.178211 1.085899 0.025954
v 1.240378 1.023732 0.025954
v 1.249995 1.157684 0.025954
v -0.829049 0.857062 -0.045830
v -0.829049 0.660943 -0.045830
v -0.900833 0.809762 -0.045830
v -0.829049 0.857062 0.025954
v -0.900833 0.809762 0.025954
v -0.900833 0.708243 0.025954
v -0.829049 0.660944 0.025954
v -0.766882 0.723110 0.025954
v -0.766882 0.794895 0.025954
v -0.829049 0.298155 -0.045830
v -0.900833 0.345455 -0.045830
v -0.900833 0.446973 -0.045830
v -0.829049 0.494273 -0.045830
v -0.766882 0.360322 -0.045830
v -0.829049 0.298155 0.025954
v -0.766882 0.432106 0.025954
v -0.829049 0.494273 0.025954
v -0.900833 0.446973 0.025954
v -0.900833 0.345455 0.025954
v 1.178211 0.360322 -0.045830
v 1.240378 0.494273 -0.045830
v 1.312163 0.345455 -0.045830
v 1.240378 0.298155 -0.045830
v 1.178211 0.360322 0.025954
v 1.240378 0.298155 0.025954
v 1.312163 0.345455 0.025954
v 1.312163 0.446973 0.025954
v 1.240378 0.494273 0.025954
v 1.178211 0.432106 0.025954
v 1.240378 0.857062 -0.045830
v 1.240378 0.660944 -0.045830
v 1.178211 0.723110 -0.045830
v 1.178211 0.794895 -0.045830
v 1.240378 0.857062 0.025954
v 1.178211 0.794895 0.025954
v 1.178211 0.723110 0.025954
v 1.240378 0.660943 0.025954
v 1.312163 0.708243 0.025954
v -0.766882 0.794895 -0.045830
v 1.312163 0.809762 0.025954
v 1.312163 0.708243 -0.045830
v 1.312163 0.809762 -0.045830
v 1.312163 1.095517 0.025954
v 1.312163 1.095517 -0.045830
v -0.766882 1.085899 0.025954
v -0.900833 0.708243 -0.045830
v 1.312163 0.059700 -0.045830
v 1.312163 0.446973 -0.045830
v -0.766882 0.360322 0.025954
v -0.766882 0.432106 -0.045830
v 1.178211 0.432106 -0.045830
v -0.766882 0.723110 -0.045830
vt 0.603356 0.867658
vt 0.619496 0.842899
vt 0.638133 0.871488
vt 0.621993 0.896247
vt 0.277302 0.043484
vt 0.295939 0.014895
vt 0.312079 0.039654
vt 0.293442 0.068243
vt 0.603356 0.043484
vt 0.621993 0.014895
vt 0.638133 0.039654
vt 0.619496 0.068243
vt 0.277302 0.867658
vt 0.293442 0.842899
vt 0.312079 0.871488
vt 0.295939 0.896247
vt 0.371706 0.867658
vt 0.353069 0.896247
vt 0.336929 0.871488
vt 0.355566 0.842899
vt 0.045652 0.043484
vt 0.029512 0.068243
vt 0.010874 0.039654
vt 0.027015 0.014895
vt 0.355566 0.068243
vt 0.336929 0.039654
vt 0.353069 0.014895
vt 0.371706 0.043484
vt 0.029512 0.842899
vt 0.045652 0.867658
vt 0.027015 0.896247
vt 0.010875 0.871488
vt 0.414978 0.867658
vt 0.431118 0.842899
vt 0.449755 0.842899
vt 0.465895 0.867658
vt 0.453615 0.896247
vt 0.427258 0.896247
vt 0.088924 0.043484
vt 0.101204 0.014895
vt 0.127561 0.014895
vt 0.139841 0.043484
vt 0.123701 0.068243
vt 0.105064 0.068243
vt 0.560084 0.867658
vt 0.547804 0.896247
vt 0.521447 0.896247
vt 0.509167 0.867658
vt 0.525307 0.842899
vt 0.543944 0.842899
vt 0.234030 0.043484
vt 0.217890 0.068243
vt 0.199253 0.068243
vt 0.183113 0.043484
vt 0.195393 0.014895
vt 0.221750 0.014895
vt 0.543944 0.068243
vt 0.525307 0.068243
vt 0.509167 0.043484
vt 0.521447 0.014895
vt 0.547804 0.014895
vt 0.560084 0.043484
vt 0.217890 0.842899
vt 0.234030 0.867658
vt 0.221750 0.896247
vt 0.195393 0.896247
vt 0.183113 0.867658
vt 0.199253 0.842899
vt 0.414978 0.043484
vt 0.427258 0.014895
vt 0.453615 0.014895
vt 0.465895 0.043484
vt 0.449755 0.068243
vt 0.431118 0.068243
vt 0.088924 0.867658
vt 0.105064 0.842899
vt 0.123701 0.842899
vt 0.139841 0.867658
vt 0.127561 0.896247
vt 0.101204 0.896247
vt 0.987856 0.919713
vt 0.969219 0.919713
vt 0.969219 0.900856
vt 0.987856 0.900856
vt 0.838760 0.989128
vt 0.838760 0.970270
vt 0.857397 0.970270
vt 0.857397 0.989128
vt 0.114984 0.969174
vt 0.145778 0.969174
vt 0.145778 0.987811
vt 0.114984 0.987811
vt 0.009447 0.987811
vt 0.009447 0.969174
vt 0.028304 0.969174
vt 0.028304 0.987811
vt 0.838760 0.919713
vt 0.838760 0.900856
vt 0.857397 0.900856
vt 0.857397 0.919713
vt 0.681620 0.871488
vt 0.662983 0.871488
vt 0.662983 0.846730
vt 0.681620 0.846730
vt 0.969219 0.989128
vt 0.969219 0.970270
vt 0.987856 0.970270
vt 0.987857 0.989128
vt 0.126921 0.925688
vt 0.126921 0.944325
vt 0.096127 0.944325
vt 0.096127 0.925688
vt 0.900884 0.919713
vt 0.882247 0.919713
vt 0.882247 0.900856
vt 0.900884 0.900856
vt 0.725106 0.846730
vt 0.725106 0.871488
vt 0.706469 0.871488
vt 0.706469 0.846730
vt 0.342505 0.987811
vt 0.342505 0.969174
vt 0.361363 0.969174
vt 0.361363 0.987811
vt 0.795274 0.989128
vt 0.795274 0.970270
vt 0.813911 0.970270
vt 0.813911 0.989128
vt 0.225031 0.987811
vt 0.225031 0.969174
vt 0.255826 0.969174
vt 0.255826 0.987811
vt 0.795274 0.919713
vt 0.795274 0.900856
vt 0.813911 0.900856
vt 0.813911 0.919713
vt 0.882247 0.989128
vt 0.882247 0.970270
vt 0.900884 0.970270
vt 0.900884 0.989128
vt 0.236968 0.944325
vt 0.206174 0.944325
vt 0.206174 0.925688
vt 0.236968 0.925688
vt 0.944370 0.919713
vt 0.925733 0.919713
vt 0.925733 0.900856
vt 0.944370 0.900856
vt 0.781755 0.986423
vt 0.762897 0.986423
vt 0.762897 0.967786
vt 0.781755 0.967786
vt 0.712340 0.986423
vt 0.693483 0.986423
vt 0.693483 0.967786
vt 0.712340 0.967786
vt 0.925733 0.989128
vt 0.925733 0.970270
vt 0.944370 0.970270
vt 0.944370 0.989128
vt 0.793442 0.871982
vt 0.793442 0.014895
vt 0.812079 0.014895
vt 0.812079 0.871982
vt 0.899052 0.014895
vt 0.899052 0.871982
vt 0.880415 0.871982
vt 0.880415 0.014895
vt 0.662983 0.014895
vt 0.681620 0.014895
vt 0.009447 0.944325
vt 0.009447 0.925688
vt 0.836929 0.871982
vt 0.836929 0.014895
vt 0.855566 0.014895
vt 0.855566 0.871982
vt 0.725106 0.014895
vt 0.706469 0.014895
vt 0.942539 0.014895
vt 0.942539 0.871982
vt 0.923902 0.871982
vt 0.923902 0.014895
vt 0.323648 0.944325
vt 0.323648 0.925688
vt 0.749956 0.871982
vt 0.749956 0.014895
vt 0.768593 0.014895
vt 0.768593 0.871982
vt 0.967388 0.871982
vt 0.967388 0.014895
vt 0.986025 0.014895
vt 0.986025 0.871982
vn -0.0000 0.0000 -1.0000
vn 0.0000 0.0000 1.0000
vn 0.7071 0.7071 0.0000
vn -0.7071 0.7071 0.0000
vn 1.0000 -0.0000 0.0000
vn -0.7071 -0.7071 0.0000
vn 0.7071 -0.7071 0.0000
vn -1.0000 0.0000 0.0000
vn 0.0000 1.0000 0.0000
vn 0.0000 -1.0000 0.0000
usemtl Material.001
s off
f 1/1/1 2/2/1 3/3/1 4/4/1
f 5/5/2 6/6/2 7/7/2 8/8/2
f 9/9/1 75/10/1 10/11/1 11/12/1
f 12/13/2 13/14/2 14/15/2 15/16/2
f 16/17/1 17/18/1 18/19/1 19/20/1
f 20/21/2 73/22/2 21/23/2 22/24/2
f 23/25/1 24/26/1 72/27/1 25/28/1
f 26/29/2 27/30/2 71/31/2 28/32/2
f 29/33/1 67/34/1 80/35/1 30/36/1 74/37/1 31/38/1
f 32/39/2 33/40/2 34/41/2 35/42/2 36/43/2 37/44/2
f 38/45/1 39/46/1 40/47/1 41/48/1 78/49/1 42/50/1
f 43/51/2 77/52/2 44/53/2 45/54/2 46/55/2 47/56/2
f 48/57/1 79/58/1 49/59/1 76/60/1 50/61/1 51/62/1
f 52/63/2 53/64/2 54/65/2 55/66/2 56/67/2 57/68/2
f 58/69/1 70/70/1 69/71/1 59/72/1 60/73/1 61/74/1
f 62/75/2 63/76/2 64/77/2 65/78/2 66/79/2 68/80/2
f 29/81/3 32/82/3 37/83/3 67/84/3
f 63/85/4 62/86/4 58/87/4 61/88/4
f 68/89/5 66/90/5 69/91/5 70/92/5
f 24/93/3 28/94/3 71/95/3 72/96/3
f 27/97/6 26/98/6 23/99/6 25/100/6
f 17/101/4 22/102/4 21/103/4 18/104/4
f 73/105/7 20/106/7 16/107/7 19/108/7
f 74/109/8 34/110/8 33/111/8 31/112/8
f 1/113/3 5/114/3 8/115/3 2/116/3
f 7/117/6 6/118/6 4/119/6 3/120/6
f 75/121/7 15/122/7 14/123/7 10/124/7
f 13/125/4 12/126/4 9/127/4 11/128/4
f 76/129/5 55/130/5 54/131/5 50/132/5
f 53/133/6 52/134/6 48/135/6 51/136/6
f 77/137/7 43/138/7 38/139/7 42/140/7
f 47/141/8 46/142/8 40/143/8 39/144/8
f 41/145/3 45/146/3 44/147/3 78/148/3
f 57/149/4 56/150/4 49/151/4 79/152/4
f 65/153/6 64/154/6 60/155/6 59/156/6
f 36/157/7 35/158/7 30/159/7 80/160/7
f 37/161/9 63/162/9 61/163/9 67/164/9
f 60/73/1 80/35/1 67/34/1 61/74/1
f 36/43/2 64/77/2 63/76/2 37/44/2
f 62/86/8 27/97/8 25/100/8 58/87/8
f 72/27/1 70/70/1 58/69/1 25/28/1
f 68/80/2 71/31/2 27/30/2 62/75/2
f 71/95/5 68/89/5 70/92/5 72/96/5
f 26/165/10 73/166/10 19/167/10 23/168/10
f 18/19/1 24/26/1 23/25/1 19/20/1
f 28/32/2 21/23/2 73/22/2 26/29/2
f 21/103/9 28/169/9 24/170/9 18/104/9
f 20/106/5 32/82/5 29/81/5 16/107/5
f 31/38/1 17/18/1 16/17/1 29/33/1
f 22/24/2 33/40/2 32/39/2 20/21/2
f 33/111/8 22/171/8 17/172/8 31/112/8
f 8/173/9 13/174/9 11/175/9 2/176/9
f 10/11/1 3/3/1 2/2/1 11/12/1
f 7/7/2 14/15/2 13/14/2 8/8/2
f 14/177/10 7/117/10 3/120/10 10/178/10
f 12/126/8 53/133/8 51/136/8 9/127/8
f 50/61/1 75/10/1 9/9/1 51/62/1
f 15/16/2 54/65/2 53/64/2 12/13/2
f 54/131/5 15/122/5 75/121/5 50/132/5
f 52/179/10 77/180/10 42/181/10 48/182/10
f 78/49/1 79/58/1 48/57/1 42/50/1
f 57/68/2 44/53/2 77/52/2 52/63/2
f 43/138/5 5/114/5 1/113/5 38/139/5
f 4/4/1 39/46/1 38/45/1 1/1/1
f 47/56/2 6/6/2 5/5/2 43/51/2
f 6/183/8 47/141/8 39/144/8 4/184/8
f 44/185/9 57/186/9 79/187/9 78/188/9
f 56/150/8 65/153/8 59/156/8 49/151/8
f 69/71/1 76/60/1 49/59/1 59/72/1
f 55/66/2 66/79/2 65/78/2 56/67/2
f 66/90/5 55/130/5 76/129/5 69/91/5
f 64/189/10 36/190/10 80/191/10 60/192/10
f 35/158/5 45/146/5 41/145/5 30/159/5
f 40/47/1 74/37/1 30/36/1 41/48/1
f 34/41/2 46/55/2 45/54/2 35/42/2
f 46/142/8 34/110/8 74/109/8 40/143/8
