# Blender v3.1.2 OBJ File: ''
# www.blender.org
mtllib new4.mtl
o FLAT_STRAIGHT_Plane
v 5.871862 1.212145 -12.620345
v 5.871862 1.212141 12.620345
v -5.871862 1.212141 12.620345
v 5.871862 -0.041652 12.620345
v -5.871862 -0.041652 12.620345
v -5.871862 1.212145 -12.620345
v 5.871862 -0.041648 -12.620345
v -5.871862 -0.041648 -12.620345
vt 0.954341 0.000369
vt 0.954342 0.433717
vt 0.911897 0.433717
vt 0.911897 0.000369
vt 0.398579 0.000369
vt 0.398579 0.931761
vt 0.954342 0.867804
vt 0.000339 0.000369
vt 0.954341 0.434455
vt 0.911897 0.867804
vt 0.911897 0.434455
vt 0.796142 0.000369
vt 0.796142 0.931761
vt 0.000339 0.931761
vt 0.397902 0.000369
vt 0.397902 0.931761
vn 0.7071 0.0000 -0.7071
vn 0.0000 0.0000 -1.0000
vn 0.5774 0.5774 -0.5774
vn 0.5774 0.5774 0.5774
vn 0.7071 0.0000 0.7071
vn 0.0000 0.0000 1.0000
vn 0.0000 1.0000 0.0000
vn 1.0000 0.0000 0.0000
usemtl FLAT_STRAIGHT
s 1
f 3/1/1 2/2/2 4/3/2 5/4/3
f 5/5/3 8/6/4 6/7/5 3/8/1
f 1/9/6 6/7/5 8/10/4 7/11/6
f 5/5/3 4/12/7 7/13/7 8/6/4
f 1/9/8 2/2/8 4/12/8 7/11/8
f 6/14/7 3/8/7 2/15/7 1/16/7
