# Blender 3.1.2
# www.blender.org
mtllib new2.mtl
o FLAT_STRAIGHT_Plane
v 5.871862 1.212143 -3.155086
v 5.871862 1.212142 3.155087
v -6.310173 1.212143 -3.155086
v -6.310173 1.212142 3.155087
v -6.204737 1.777619 3.155087
v -6.204737 1.777619 -3.155086
v -5.871862 1.212142 3.155087
v 5.871862 -0.041651 3.155086
v -5.871862 -0.041651 3.155086
v -5.977298 1.777619 3.155087
v -5.977298 1.777619 -3.155086
v -5.871862 1.212143 -3.155086
v 5.871862 -0.041649 -3.155086
v -5.871862 -0.041649 -3.155086
v -6.310173 0.581658 3.155086
v -6.310173 0.581660 -3.155086
vn -0.9958 0.0920 -0.0000
vn -0.9831 0.1833 -0.0000
vn -0.0000 -0.0000 -1.0000
vn -0.0000 1.0000 -0.0000
vn 0.9831 0.1833 -0.0000
vn -0.0000 -0.0000 1.0000
vn -0.8180 -0.5752 -0.0000
vn -1.0000 -0.0000 -0.0000
vn 1.0000 -0.0000 -0.0000
vt 0.954341 0.434455
vt 0.397902 0.931761
vt 0.954342 0.433717
vt 0.397902 0.000369
vt 0.867964 0.000369
vt 0.046884 0.953366
vt 0.867964 0.931761
vt 0.000339 0.978765
vt 0.854358 0.931761
vt 0.983585 0.000369
vt 0.003908 0.999631
vt 0.854358 0.000369
vt 0.983585 0.931761
vt 0.050454 0.932499
vt 0.954341 0.000369
vt 0.968625 0.000369
vt 0.015177 0.978765
vt 0.000339 0.000369
vt 0.911897 0.433717
vt 0.796142 0.000369
vt 0.911897 0.000369
vt 0.911219 0.931761
vt 0.398579 0.000369
vt 0.015177 0.932499
vt 0.991285 0.000369
vt 0.955019 0.000369
vt 0.011607 0.999631
vt 0.991285 0.931761
vt 0.058153 0.932499
vt 0.955019 0.931761
vt 0.968625 0.931761
vt 0.954342 0.867804
vt 0.061723 0.953366
vt 0.000339 0.931761
vt 0.796142 0.931761
vt 0.911897 0.434455
vt 0.911219 0.000369
vt 0.911897 0.867804
vt 0.061723 0.999631
vt 0.398579 0.931761
vt 0.885424 0.931761
vt 0.000339 0.955500
vt 0.885423 0.000369
vt 0.046884 0.976631
s 1
usemtl FLAT_STRAIGHT
f 3/5/1 4/7/1 5/9/2 6/12/2
f 7/15/3 2/3/3 8/19/3 9/21/3
f 5/10/4 10/25/4 11/28/4 6/13/4
f 12/33/3 3/6/3 6/14/3 11/29/3
f 7/16/5 12/31/5 11/30/5 10/26/5
f 4/8/6 7/17/6 10/27/6 5/11/6
f 14/37/7 9/22/7 15/41/7 16/43/7
f 1/1/6 12/32/6 14/38/6 13/36/6
f 4/7/1 3/5/1 16/43/8 15/41/8
f 3/6/3 12/33/3 14/39/3 16/44/3
f 9/23/4 8/20/4 13/35/4 14/40/4
f 1/1/9 2/3/9 8/20/9 13/36/9
f 7/17/6 4/8/6 15/42/6 9/24/6
f 12/34/4 7/18/4 2/4/4 1/2/4
