# Blender v2.79 (sub 0) OBJ File: 'STRAIGHT FLAT.blend'
# www.blender.org
mtllib STRAIGHT FLAT.mtl
o FLAT_STRAIGHT_Plane
v -6.310173 1.212143 12.620345
v 6.310173 1.212143 12.620345
v -6.310173 1.212143 -12.620345
v 6.310173 1.212143 -12.620345
v -5.871862 1.212143 12.620345
v 5.871862 1.212143 12.620345
v 5.871862 1.212143 -12.620345
v -5.871862 1.212143 -12.620345
v -6.204737 1.777619 -12.620345
v -6.204737 1.777619 12.620345
v 5.977298 1.777619 12.620345
v 6.204737 1.777619 12.620345
v 6.204737 1.777619 -12.620345
v -5.977298 1.777619 -12.620345
v -5.977298 1.777619 12.620345
v 5.977298 1.777619 -12.620345
v -6.310173 0.581659 -12.620345
v -6.310173 0.581659 12.620345
v 5.871862 -0.041650 12.620345
v 6.310173 0.581659 12.620345
v 6.310173 0.581659 -12.620345
v -5.871862 -0.041650 -12.620345
v -5.871862 -0.041650 12.620345
v 5.871862 -0.041650 -12.620345
vt 0.982908 0.000369
vt 0.982908 0.931761
vt 0.969302 0.931761
vt 0.969302 0.000369
vt 0.867964 0.000369
vt 0.867964 0.931761
vt 0.854358 0.931761
vt 0.854358 0.000369
vt 0.954341 0.000369
vt 0.954342 0.433717
vt 0.911897 0.433717
vt 0.911897 0.000369
vt 0.991962 0.000369
vt 0.999662 0.000369
vt 0.999661 0.931761
vt 0.991962 0.931761
vt 0.983585 0.000369
vt 0.991285 0.000369
vt 0.991285 0.931761
vt 0.983585 0.931761
vt 0.061723 0.953366
vt 0.046884 0.953366
vt 0.050454 0.932499
vt 0.058153 0.932499
vt 0.030692 0.953366
vt 0.015854 0.953366
vt 0.019423 0.932499
vt 0.027123 0.932499
vt 0.968625 0.000369
vt 0.968625 0.931761
vt 0.955019 0.931761
vt 0.955019 0.000369
vt 0.031369 0.978765
vt 0.046207 0.978765
vt 0.042638 0.999631
vt 0.034938 0.999631
vt 0.000339 0.978765
vt 0.015177 0.978765
vt 0.011607 0.999631
vt 0.003908 0.999631
vt 0.810426 0.000369
vt 0.810426 0.931761
vt 0.796820 0.931761
vt 0.796820 0.000369
vt 0.827885 0.931761
vt 0.827885 0.000369
vt 0.853681 0.000369
vt 0.853681 0.931761
vt 0.911219 0.000369
vt 0.911219 0.931761
vt 0.885424 0.931761
vt 0.885423 0.000369
vt 0.954341 0.434455
vt 0.954342 0.867804
vt 0.911897 0.867804
vt 0.911897 0.434455
vt 0.030692 0.999631
vt 0.015854 0.976631
vt 0.061723 0.999631
vt 0.046884 0.976631
vt 0.398579 0.000369
vt 0.796142 0.000369
vt 0.796142 0.931761
vt 0.398579 0.931761
vt 0.031369 0.955500
vt 0.046207 0.932499
vt 0.000339 0.955500
vt 0.015177 0.932499
vt 0.000339 0.931761
vt 0.000339 0.000369
vt 0.397902 0.000369
vt 0.397902 0.931761
vn -0.9831 0.1833 0.0000
vn -0.9958 0.0920 0.0000
vn 0.0000 0.0000 -1.0000
vn 0.0000 1.0000 0.0000
vn 0.0000 0.0000 1.0000
vn 0.9831 0.1833 0.0000
vn 0.9958 0.0920 0.0000
vn 0.8180 -0.5752 0.0000
vn -0.8180 -0.5752 0.0000
vn -1.0000 0.0000 0.0000
vn 1.0000 0.0000 0.0000
usemtl FLAT_STRAIGHT
s 1
f 7/1/1 6/2/1 11/3/1 16/4/1
f 3/5/2 1/6/2 10/7/1 9/8/1
f 5/9/3 6/10/3 19/11/3 23/12/3
f 11/13/4 12/14/4 13/15/4 16/16/4
f 10/17/4 15/18/4 14/19/4 9/20/4
f 8/21/3 3/22/3 9/23/3 14/24/3
f 6/25/5 2/26/5 12/27/5 11/28/5
f 5/29/6 8/30/6 14/31/6 15/32/6
f 4/33/3 7/34/3 16/35/3 13/36/3
f 1/37/5 5/38/5 15/39/5 10/40/5
f 2/41/7 4/42/7 13/43/6 12/44/6
f 21/45/8 20/46/8 19/47/8 24/48/8
f 22/49/9 23/50/9 18/51/9 17/52/9
f 7/53/5 8/54/5 22/55/5 24/56/5
f 2/26/5 6/25/5 19/57/5 20/58/5
f 1/6/2 3/5/2 17/52/10 18/51/10
f 3/22/3 8/21/3 22/59/3 17/60/3
f 23/61/4 19/62/4 24/63/4 22/64/4
f 7/34/3 4/33/3 21/65/3 24/66/3
f 5/38/5 1/37/5 18/67/5 23/68/5
f 4/42/7 2/41/7 20/46/11 21/45/11
f 8/69/4 5/70/4 6/71/4 7/72/4
