# Blender v3.1.2 OBJ File: ''
# www.blender.org
o Cylinder.001_Cylinder.002
v -0.000000 0.000000 1.000000
v -0.000000 0.060000 1.000000
v -0.195090 0.000000 0.980785
v -0.195090 0.060000 0.980785
v -0.382683 0.000000 0.923880
v -0.382683 0.060000 0.923880
v -0.555570 0.000000 0.831470
v -0.555570 0.060000 0.831470
v -0.707107 0.000000 0.707107
v -0.707107 0.060000 0.707107
v -0.831469 0.000000 0.555570
v -0.831469 0.060000 0.555570
v -0.923880 0.000000 0.382684
v -0.923880 0.060000 0.382684
v -0.980785 0.000000 0.195090
v -0.980785 0.060000 0.195090
v -0.784628 0.060000 0.156072
v -0.665176 0.060000 0.444456
v -0.565685 0.060000 0.565685
v -0.739104 0.060000 0.306147
v -0.000000 0.060000 0.800000
v -0.444456 0.060000 0.665176
v -0.156072 0.060000 0.784628
v -0.306147 0.060000 0.739104
v -0.665176 0.000000 0.444456
v -0.565685 0.000000 0.565685
v -0.444456 0.000000 0.665176
v -0.156072 0.000000 0.784628
v -0.306147 0.000000 0.739104
v -0.739104 0.000000 0.306147
v -0.784628 0.000000 0.156072
v -0.000000 0.000000 0.800000
v 0.000000 0.060000 1.000000
v 0.000000 0.000000 1.000000
v 0.000000 0.060000 0.800000
v 0.000000 0.000000 0.800000
v -1.000000 0.060000 0.000000
v -1.000000 0.000000 0.000000
v -0.800000 0.060000 0.000000
v -0.800000 0.000000 0.000000
v -0.195090 0.060000 0.980785
v -0.382683 0.060000 0.923880
v -0.555570 0.060000 0.831470
v -0.707107 0.060000 0.707107
v -0.831469 0.060000 0.555570
v -0.923880 0.060000 0.382684
v -0.980785 0.060000 0.195090
v -0.784628 0.060000 0.156072
v -0.665176 0.060000 0.444456
v -0.565685 0.060000 0.565685
v -0.739104 0.060000 0.306147
v -0.444456 0.060000 0.665176
v -0.156072 0.060000 0.784628
v -0.306147 0.060000 0.739104
v 0.000000 0.060000 1.000000
v 0.000000 0.060000 0.800000
v -1.000000 0.060000 0.000000
v -0.800000 0.060000 0.000000
v -0.195090 0.060000 0.980785
v -0.382683 0.060000 0.923880
v -0.555570 0.060000 0.831470
v -0.707107 0.060000 0.707107
v -0.831469 0.060000 0.555570
v -0.923880 0.060000 0.382684
v -0.980785 0.060000 0.195090
v -0.784628 0.060000 0.156072
v -0.665176 0.060000 0.444456
v -0.565685 0.060000 0.565685
v -0.739104 0.060000 0.306147
v -0.444456 0.060000 0.665176
v -0.156072 0.060000 0.784628
v -0.306147 0.060000 0.739104
v 0.000000 0.060000 1.000000
v 0.000000 0.060000 0.800000
v -1.000000 0.060000 0.000000
v -0.800000 0.060000 0.000000
vt 0.000000 0.000000
vt 0.000000 0.000000
vt 0.000000 0.000000
vt 0.000000 0.000000
vt 0.000000 0.000000
vt 0.000000 0.000000
vt 0.000000 0.000000
vt 0.000000 0.000000
vt 0.000000 0.000000
vt 0.000000 0.000000
vt 0.000000 0.000000
vt 0.000000 0.000000
vt 0.000000 0.000000
vt 0.000000 0.000000
vt 0.000000 0.000000
vt 0.000000 0.000000
vt 0.000000 0.000000
vt 0.000000 0.000000
vt 0.000000 0.000000
vt 0.000000 0.000000
vt 0.000000 0.000000
vt 0.000000 0.000000
vt 0.000000 0.000000
vt 0.000000 0.000000
vt 0.000000 0.000000
vt 0.000000 0.000000
vt 0.000000 0.000000
vt 0.000000 0.000000
vt 0.000000 0.000000
vt 0.000000 0.000000
vt 0.000000 0.000000
vt 0.000000 0.000000
vt 0.000000 0.000000
vt 0.000000 0.000000
vt 0.000000 0.000000
vt 0.000000 0.000000
vt 0.000000 0.000000
vn 0.0000 0.0000 1.0000
vn 0.9952 0.0000 -0.0980
vn 0.9569 0.0000 -0.2903
vn 0.8819 0.0000 -0.4714
vn 0.7730 0.0000 -0.6344
vn 0.6344 0.0000 -0.7730
vn 0.4714 0.0000 -0.8819
vn -0.0980 0.0000 0.9952
vn -1.0000 0.0000 0.0000
vn -0.2903 0.0000 0.9569
vn 0.0980 0.0000 -0.9952
vn -0.4714 0.0000 0.8819
vn 0.2903 0.0000 -0.9569
vn -0.6344 0.0000 0.7730
vn -0.7730 0.0000 0.6344
vn -0.8819 0.0000 0.4714
vn -0.9569 0.0000 0.2903
vn -0.9952 0.0000 0.0980
vn 0.0000 -1.0000 -0.0000
vn 0.0000 1.0000 0.0000
s off
f 75/1/1 38/2/1 40/3/1 76/4/1
f 15/5/2 38/2/2 75/1/2 65/6/2
f 64/7/3 13/8/3 15/5/3 65/6/3
f 11/9/4 13/8/4 64/7/4 63/10/4
f 62/11/5 9/12/5 11/9/5 63/10/5
f 7/13/6 9/12/6 62/11/6 61/14/6
f 60/15/7 5/16/7 7/13/7 61/14/7
f 71/17/8 28/18/8 36/19/8 74/20/8
f 74/20/9 36/19/9 34/21/9 73/22/9
f 71/17/10 72/23/10 29/24/10 28/18/10
f 3/25/11 59/26/11 73/22/11 34/21/11
f 70/27/12 27/28/12 29/24/12 72/23/12
f 59/26/13 3/25/13 5/16/13 60/15/13
f 68/29/14 26/30/14 27/28/14 70/27/14
f 67/31/15 25/32/15 26/30/15 68/29/15
f 30/33/16 25/32/16 67/31/16 69/34/16
f 31/35/17 30/33/17 69/34/17 66/36/17
f 40/3/18 31/35/18 66/36/18 76/4/18
f 59/26/19 71/17/19 74/20/19 73/22/19
f 71/17/19 59/26/19 60/15/19 72/23/19
f 61/14/19 70/27/19 72/23/19 60/15/19
f 62/11/19 68/29/19 70/27/19 61/14/19
f 63/10/19 67/31/19 68/29/19 62/11/19
f 64/7/19 69/34/19 67/31/19 63/10/19
f 65/6/19 66/36/19 69/34/19 64/7/19
f 76/4/19 66/36/19 65/6/19 75/1/19
f 40/3/20 38/2/20 15/5/20 31/35/20
f 13/8/20 30/33/20 31/35/20 15/5/20
f 11/9/20 25/32/20 30/33/20 13/8/20
f 9/12/20 26/30/20 25/32/20 11/9/20
f 7/13/20 27/28/20 26/30/20 9/12/20
f 5/16/20 29/24/20 27/28/20 7/13/20
f 5/16/20 3/25/20 28/18/20 29/24/20
f 3/25/20 1/37/20 36/19/20 28/18/20
