# Blender v3.1.2 OBJ File: ''
# www.blender.org
mtllib curb.mtl
o L_FLAT.001_Plane.010
v 47.887596 2.213514 13.174915
v 50.318146 2.213514 13.115692
v 50.317940 2.778991 13.008793
v 47.878792 2.778991 13.047493
v 47.791443 2.213512 25.314657
v 50.249680 2.213512 25.333021
v 50.246620 2.778989 25.234449
v 47.777206 2.778989 25.231337
v 50.243202 2.213512 24.913107
v 50.306702 0.959721 13.082085
v 50.264130 0.959720 24.874434
v -3.916025 2.779000 -39.214909
v -3.683451 2.779000 -39.214802
v -3.698671 2.779001 -41.672108
v -3.927877 2.779001 -41.670650
v -16.069166 2.779000 -39.098827
v -15.846273 2.779000 -39.098125
v -15.840588 2.779001 -41.573452
v -16.067034 2.779001 -41.572330
v -15.735971 2.213524 -41.573803
v -16.169434 2.213524 -41.573185
v 50.316040 2.213514 12.668339
v 50.317986 2.778991 12.779774
v -15.751415 2.213523 -39.092846
v -3.589460 2.213524 -41.671604
v -4.037920 2.213524 -41.671322
v 50.246574 2.778989 25.010595
v -3.565722 2.213523 -39.209850
v 47.856941 1.583030 12.663387
v 50.311440 1.583030 12.655930
v 47.846848 0.959721 13.080570
v 47.821129 0.959720 24.835981
v 50.255913 1.583028 25.322226
v 47.805511 1.583028 25.294355
v -15.719461 0.959731 -41.581959
v -4.015680 0.959731 -41.663258
v -16.164145 2.213523 -39.104511
v -16.163368 1.583040 -41.576382
v -16.154480 1.583039 -39.110638
v -15.706573 0.959730 -39.119411
v -3.980959 0.959730 -39.195538
v -3.583288 1.583040 -41.669178
v 47.866531 2.213514 12.683846
v 47.759712 2.213512 24.930677
v -4.033827 2.213523 -39.219395
v -15.767057 2.213523 -36.601566
v -4.041758 2.213523 -36.780079
v -15.777880 2.213522 -34.092510
v -4.052488 2.213522 -34.360447
v -15.757788 2.213522 -31.572849
v -4.036509 2.213522 -31.955696
v -15.738068 2.213521 -29.001194
v -4.035189 2.213522 -29.581062
v -15.720041 2.213521 -26.343544
v -4.062452 2.213521 -27.253380
v -15.562881 2.213521 -23.740120
v -3.943453 2.213521 -24.918098
v -15.344763 2.213521 -21.132332
v -3.776537 2.213521 -22.595959
v -15.060785 2.213520 -18.495274
v -3.568895 2.213520 -20.317236
v -14.671722 2.213520 -15.870161
v -3.271273 2.213520 -18.076529
v -14.181795 2.213519 -13.172117
v -2.932863 2.213520 -15.898151
v -13.501999 2.213519 -10.323196
v -2.522894 2.213519 -13.836800
v -12.597172 2.213518 -7.684457
v -1.831480 2.213519 -11.788553
v -11.583614 2.213518 -5.128748
v -1.037069 2.213519 -9.734915
v -10.431078 2.213517 -2.590191
v -0.164370 2.213518 -7.742368
v -9.151014 2.213517 -0.142281
v 0.811972 2.213518 -5.812894
v -7.698755 2.213517 2.296127
v 1.848322 2.213518 -3.993768
v -5.899340 2.213516 4.750968
v 3.027563 2.213517 -2.397767
v -4.015001 2.213516 6.873852
v 4.455919 2.213517 -0.860882
v -2.077082 2.213516 8.838520
v 6.003191 2.213517 0.659744
v -0.022711 2.213515 10.714870
v 7.640074 2.213517 2.110019
v 2.082132 2.213515 12.474941
v 9.352739 2.213516 3.515701
v 4.286245 2.213515 14.185097
v 11.079496 2.213516 4.854946
v 6.758993 2.213514 15.820147
v 12.858297 2.213516 5.990673
v 9.153776 2.213514 17.202780
v 14.774900 2.213516 7.065495
v 11.524580 2.213514 18.465322
v 16.751379 2.213516 8.112068
v 13.968325 2.213514 19.629316
v 18.768564 2.213515 9.066807
v 16.437059 2.213513 20.677534
v 20.837320 2.213515 9.941367
v 18.991648 2.213513 21.652929
v 22.895964 2.213515 10.733906
v 21.733667 2.213513 22.470404
v 24.949736 2.213515 11.314137
v 24.374395 2.213513 23.098738
v 27.123724 2.213515 11.798748
v 26.976927 2.213513 23.642820
v 29.348829 2.213514 12.246819
v 29.606474 2.213513 24.098509
v 31.594168 2.213514 12.618839
v 32.223618 2.213513 24.476255
v 33.867661 2.213514 12.935444
v 34.855721 2.213513 24.767752
v 36.140442 2.213514 13.175079
v 37.560165 2.213513 24.885618
v 38.398987 2.213514 13.229656
v 40.173866 2.213513 24.947058
v 40.717995 2.213514 13.257660
v 42.722664 2.213512 24.976439
v 43.083946 2.213514 13.267723
v 45.248512 2.213512 24.965712
v 45.477715 2.213514 13.237057
v -3.554331 1.583039 -39.204288
v -3.566759 2.213523 -36.763485
v -3.552656 1.583039 -36.754551
v -3.573977 2.213522 -34.334461
v -3.559221 1.583039 -34.321392
v -3.568697 2.213522 -31.926731
v -3.558050 1.583038 -31.911507
v -3.531477 2.213522 -29.557571
v -3.528490 1.583038 -29.547226
v -3.503099 2.213521 -27.299763
v -3.454096 1.583037 -27.301636
v -3.406794 2.213521 -24.988113
v -3.358675 1.583037 -24.993889
v -3.209402 2.213521 -22.651207
v -3.158205 1.583037 -22.650640
v -2.987612 2.213520 -20.338833
v -2.931898 1.583036 -20.322657
v -2.720884 2.213520 -18.076767
v -2.676157 1.583036 -18.048613
v -2.361780 2.213520 -15.949490
v -2.334745 1.583036 -15.935537
v -1.933367 2.213519 -14.115362
v -1.869818 1.583035 -14.153906
v -1.276278 2.213519 -12.092813
v -1.206263 1.583035 -12.146305
v -0.423170 2.213519 -10.032692
v -0.340715 1.583035 -10.078003
v 0.477060 2.213518 -7.989370
v 0.571589 1.583034 -8.010951
v 1.416571 2.213518 -6.008440
v 1.505796 1.583034 -6.012510
v 2.440893 2.213518 -4.249465
v 2.504351 1.583034 -4.258406
v 3.455824 2.213517 -2.887452
v 3.483641 1.583033 -2.945786
v 4.831877 2.213517 -1.381001
v 4.864222 1.583032 -1.466485
v 6.438337 2.213517 0.119731
v 6.488638 1.583033 0.034248
v 8.113371 2.213517 1.609649
v 8.181875 1.583033 1.542078
v 9.815092 2.213516 3.070351
v 9.887823 1.583032 3.016051
v 11.538900 2.213516 4.351311
v 11.596083 1.583032 4.299343
v 13.123297 2.213516 5.432434
v 13.132921 1.583031 5.388629
v 14.970942 2.213516 6.534466
v 14.974493 1.583031 6.475143
v 16.986525 2.213516 7.553871
v 17.002565 1.583031 7.490963
v 19.045824 2.213516 8.528820
v 19.080942 1.583031 8.474976
v 21.119085 2.213515 9.448978
v 21.159658 1.583031 9.405663
v 23.160200 2.213515 10.196373
v 23.186903 1.583030 10.156975
v 25.046217 2.213515 10.731674
v 25.043722 1.583030 10.690979
v 27.180410 2.213514 11.230251
v 27.165533 1.583030 11.177094
v 29.430128 2.213514 11.650700
v 29.428511 1.583030 11.587814
v 31.710585 2.213514 12.036793
v 31.725393 1.583030 11.979118
v 33.996376 2.213514 12.391090
v 34.017632 1.583030 12.340229
v 36.233406 2.213514 12.626045
v 36.246086 1.583030 12.580517
v 38.361168 2.213514 12.727596
v 38.343307 1.583030 12.722866
v 40.664101 2.213514 12.770786
v 40.638000 1.583030 12.752945
v 43.034157 2.213514 12.759525
v 43.011307 1.583030 12.733631
v 45.439911 2.213514 12.725632
v 45.423134 1.583030 12.698551
v 45.404381 0.959721 13.109100
v 45.346268 0.959720 24.846807
v 42.983498 0.959721 13.145340
v 42.844719 0.959720 24.870283
v 40.601913 0.959721 13.172810
v 40.304008 0.959720 24.882010
v 38.305443 0.959722 13.154915
v 37.686050 0.959720 24.836210
v 36.208405 0.959722 12.975052
v 34.898064 0.959720 24.597990
v 33.967812 0.959722 12.701248
v 32.229012 0.959720 24.268202
v 31.664488 0.959722 12.350655
v 29.643560 0.959720 23.868887
v 29.343573 0.959722 11.952827
v 27.098761 0.959720 23.422331
v 27.070631 0.959722 11.535645
v 24.518507 0.959720 22.924681
v 24.930540 0.959722 11.071205
v 21.847395 0.959720 22.306677
v 23.059332 0.959722 10.531715
v 19.034109 0.959720 21.465460
v 21.026915 0.959722 9.742424
v 16.461576 0.959721 20.474707
v 18.932867 0.959723 8.815854
v 14.034117 0.959721 19.405886
v 16.827124 0.959722 7.818760
v 11.680490 0.959721 18.287191
v 14.790571 0.959723 6.790394
v 9.315741 0.959721 17.076483
v 12.917227 0.959723 5.723350
v 6.917185 0.959721 15.688272
v 11.387068 0.959723 4.604618
v 4.484495 0.959722 13.966949
v 9.692221 0.959723 3.267071
v 2.267466 0.959722 12.223152
v 7.961111 0.959724 1.797145
v 0.211905 0.959722 10.464771
v 6.241247 0.959723 0.263224
v -1.751070 0.959723 8.682800
v 4.607374 0.959724 -1.256853
v -3.709375 0.959723 6.789154
v 3.177210 0.959724 -2.719572
v -5.661577 0.959723 4.667175
v 2.194674 0.959725 -4.036631
v -7.547235 0.959724 2.110220
v 1.225790 0.959725 -5.833033
v -8.984347 0.959724 -0.392251
v 0.275438 0.959725 -7.846258
v -10.191685 0.959724 -2.837124
v -0.654200 0.959726 -9.947866
v -11.284044 0.959725 -5.256258
v -1.509691 0.959726 -12.039091
v -12.316778 0.959725 -7.763128
v -2.227819 0.959726 -14.051620
v -13.265766 0.959726 -10.433681
v -2.732698 0.959727 -15.833473
v -14.076862 0.959726 -13.336449
v -3.054369 0.959727 -17.960232
v -14.550592 0.959727 -16.052837
v -3.308161 0.959727 -20.247568
v -14.881784 0.959727 -18.659529
v -3.539862 0.959728 -22.598230
v -15.157850 0.959727 -21.218544
v -3.723307 0.959728 -24.949348
v -15.381443 0.959728 -23.800179
v -3.848211 0.959728 -27.271862
v -15.545111 0.959728 -26.427414
v -3.963438 0.959729 -29.522472
v -15.682917 0.959729 -29.088013
v -3.985666 0.959729 -31.887840
v -15.715265 0.959729 -31.645077
v -3.982550 0.959730 -34.302837
v -15.716116 0.959730 -34.156094
v -3.976439 0.959730 -36.741711
v -15.709362 0.959730 -36.644703
v 45.299660 2.213512 25.334730
v 45.321701 1.583028 25.309721
v 42.784531 2.213512 25.352140
v 42.812004 1.583028 25.329939
v 40.235802 2.213513 25.345282
v 40.264893 1.583028 25.331869
v 37.628845 2.213513 25.275305
v 37.647453 1.583028 25.273603
v 34.826279 2.213513 25.101904
v 34.838654 1.583028 25.064314
v 32.143120 2.213513 24.802130
v 32.144882 1.583028 24.757689
v 29.550871 2.213513 24.396444
v 29.559172 1.583029 24.347822
v 26.963079 2.213513 23.943487
v 26.989294 1.583029 23.897108
v 24.370176 2.213513 23.432890
v 24.403669 1.583029 23.400175
v 21.714552 2.213513 22.786955
v 21.725943 1.583029 22.757078
v 18.849306 2.213513 21.929827
v 18.868048 1.583030 21.899359
v 16.257830 2.213513 20.967257
v 16.263624 1.583030 20.924356
v 13.822493 2.213514 19.894911
v 13.836493 1.583030 19.847990
v 11.423033 2.213514 18.753092
v 11.456007 1.583030 18.715761
v 9.051542 2.213514 17.533670
v 9.085745 1.583030 17.506838
v 6.666716 2.213514 16.113264
v 6.681097 1.583030 16.084608
v 4.133791 2.213515 14.377800
v 4.184114 1.583031 14.344601
v 1.876348 2.213515 12.661858
v 1.916651 1.583031 12.609383
v -0.178495 2.213515 10.891891
v -0.128431 1.583031 10.839901
v -2.186975 2.213515 9.061726
v -2.117914 1.583032 9.029800
v -4.145906 2.213516 7.150455
v -4.081255 1.583032 7.132839
v -6.055258 2.213516 4.990481
v -6.020758 1.583032 4.964630
v -7.975760 2.213516 2.380774
v -7.940680 1.583033 2.358520
v -9.459440 2.213517 -0.095170
v -9.424540 1.583033 -0.148079
v -10.682457 2.213517 -2.545960
v -10.632725 1.583033 -2.598446
v -11.805977 2.213518 -5.024984
v -11.743357 1.583034 -5.052499
v -12.847422 2.213518 -7.536055
v -12.788460 1.583034 -7.553876
v -13.758904 2.213519 -10.234362
v -13.715012 1.583035 -10.269125
v -14.531071 2.213519 -13.212654
v -14.516245 1.583035 -13.230686
v -15.034880 2.213520 -15.908991
v -15.012014 1.583036 -15.950951
v -15.388472 2.213520 -18.528555
v -15.351168 1.583036 -18.564625
v -15.671167 2.213521 -21.127075
v -15.631559 1.583036 -21.146711
v -15.910341 2.213521 -23.710754
v -15.871408 1.583037 -23.724937
v -16.054758 2.213521 -26.356102
v -16.015566 1.583037 -26.377544
v -16.123611 2.213521 -29.052704
v -16.121809 1.583038 -29.063202
v -16.170254 2.213522 -31.604553
v -16.161467 1.583038 -31.620659
v -16.179850 2.213522 -34.122219
v -16.166941 1.583039 -34.136501
v -16.172363 2.213523 -36.621250
v -16.159994 1.583039 -36.631168
v 47.876144 2.778991 12.811073
v 45.456795 2.778991 12.860439
v 43.056847 2.778991 12.893188
v 40.689949 2.778991 12.896252
v 38.378555 2.778991 12.840130
v 36.203773 2.778991 12.778393
v 33.953964 2.778991 12.541229
v 31.675993 2.778991 12.202339
v 29.411650 2.778991 11.821991
v 27.174780 2.778991 11.391541
v 25.026525 2.778991 10.879379
v 23.082899 2.778991 10.341599
v 21.031454 2.778991 9.582756
v 18.963408 2.778992 8.682045
v 16.923105 2.778992 7.716160
v 14.926298 2.778993 6.687928
v 13.064653 2.778992 5.572739
v 11.409071 2.778993 4.487923
v 9.671827 2.778993 3.196064
v 7.969107 2.778993 1.759990
v 6.311773 2.778994 0.287956
v 4.731833 2.778993 -1.216813
v 3.350836 2.778994 -2.750367
v 2.279554 2.778995 -4.191682
v 1.231951 2.778995 -5.964536
v 0.280577 2.778995 -7.920862
v -0.607431 2.778996 -9.940886
v -1.435568 2.778996 -11.994196
v -2.103014 2.778996 -14.028429
v -2.495806 2.778996 -15.948050
v -2.874163 2.778997 -18.091019
v -3.152174 2.778997 -20.341450
v -3.368559 2.778998 -22.638449
v -3.553423 2.778998 -24.967049
v -3.659388 2.778998 -27.287033
v -3.642740 2.778999 -29.567249
v -3.686205 2.778999 -31.941227
v -3.695589 2.779000 -34.346844
v -3.687304 2.779000 -36.771702
v 47.773094 2.778989 25.013662
v 45.270805 2.778989 25.041647
v 42.750031 2.778989 25.055326
v 40.201584 2.778989 25.036001
v 37.602051 2.778989 24.960600
v 34.852203 2.778990 24.831091
v 32.201797 2.778990 24.536169
v 29.596075 2.778989 24.146254
v 26.986990 2.778990 23.691977
v 24.389227 2.778990 23.163023
v 21.759680 2.778990 22.521955
v 18.955694 2.778990 21.690683
v 16.392706 2.778991 20.727831
v 13.939234 2.778991 19.669226
v 11.517431 2.778991 18.516115
v 9.146883 2.778991 17.272863
v 6.781355 2.778991 15.873007
v 4.264700 2.778992 14.189842
v 2.045496 2.778992 12.494183
v -0.036692 2.778992 10.730114
v -2.068270 2.778993 8.876278
v -4.015070 2.778993 6.935917
v -5.888727 2.778993 4.806396
v -7.748675 2.778994 2.273498
v -9.212191 2.778994 -0.158112
v -10.466537 2.778994 -2.606659
v -11.604937 2.778995 -5.115762
v -12.630554 2.778995 -7.651109
v -13.533464 2.778996 -10.307045
v -14.242937 2.778996 -13.224890
v -14.747402 2.778996 -15.898695
v -15.120470 2.778997 -18.520805
v -15.404022 2.778997 -21.138872
v -15.631191 2.778998 -23.735699
v -15.783115 2.778998 -26.354237
v -15.809546 2.778999 -29.034794
v -15.852520 2.778999 -31.587624
v -15.867836 2.778999 -34.106220
v -15.858749 2.779000 -36.610394
v 45.277252 2.778989 25.256773
v 42.756897 2.778989 25.271452
v 40.206635 2.778989 25.255651
v 37.609520 2.778989 25.174131
v 34.829559 2.778989 25.038404
v 32.165733 2.778990 24.741285
v 29.560644 2.778990 24.346083
v 26.954542 2.778990 23.891348
v 24.354574 2.778990 23.366850
v 21.723310 2.778990 22.717848
v 18.877104 2.778990 21.876127
v 16.303625 2.778991 20.915964
v 13.851645 2.778991 19.851572
v 11.432768 2.778991 18.699968
v 9.058084 2.778991 17.461718
v 6.698442 2.778991 16.050776
v 4.147432 2.778992 14.335796
v 1.915037 2.778992 12.641190
v -0.162863 2.778992 10.871964
v -2.191133 2.778992 9.021397
v -4.145288 2.778993 7.085350
v -6.020651 2.778993 4.945022
v -7.921347 2.778994 2.358375
v -9.395285 2.778994 -0.078911
v -10.643295 2.778994 -2.533146
v -11.779774 2.778995 -5.038004
v -12.812214 2.778995 -7.571031
v -13.717243 2.778996 -10.242876
v -14.444704 2.778996 -13.208317
v -14.957575 2.778996 -15.878939
v -15.325794 2.778997 -18.504005
v -15.609962 2.778997 -21.119381
v -15.841234 2.778998 -23.715118
v -15.991535 2.778998 -26.344398
v -16.022263 2.778999 -29.041962
v -16.075102 2.778999 -31.588989
v -16.088808 2.778999 -34.108418
v -16.080343 2.779000 -36.611874
v 45.461166 2.778991 13.100185
v 43.061752 2.778991 13.132286
v 40.693649 2.778991 13.131730
v 38.377495 2.778991 13.083733
v 36.170105 2.778991 13.023285
v 33.909515 2.778991 12.784707
v 31.630018 2.778991 12.451454
v 29.367491 2.778991 12.072609
v 27.130781 2.778991 11.636738
v 24.970175 2.778991 11.132149
v 22.982733 2.778991 10.577442
v 20.924429 2.778991 9.806549
v 18.853010 2.778992 8.911629
v 16.815268 2.778993 7.946930
v 14.820925 2.778993 6.911938
v 12.938360 2.778993 5.806248
v 11.234758 2.778993 4.698696
v 9.496382 2.778993 3.388618
v 7.787840 2.778994 1.957935
v 6.132490 2.778994 0.488033
v 4.558256 2.778993 -1.024533
v 3.158415 2.778994 -2.564278
v 2.044504 2.778995 -4.066221
v 0.996695 2.778995 -5.859018
v 0.036154 2.778995 -7.812189
v -0.850187 2.778996 -9.829470
v -1.670889 2.778996 -11.886880
v -2.348070 2.778996 -13.931055
v -2.750261 2.778996 -15.905815
v -3.117517 2.778997 -18.064299
v -3.401476 2.778997 -20.315138
v -3.616270 2.778998 -22.610283
v -3.796526 2.778998 -24.939404
v -3.906878 2.778998 -27.266964
v -3.887613 2.778999 -29.566429
v -3.918676 2.778999 -31.942062
v -3.929834 2.779000 -34.348331
v -3.921011 2.779000 -36.772518
vt 0.301925 0.917047
vt 0.296317 0.941905
vt 0.295296 0.932606
vt 0.296157 0.917002
vt 0.188206 0.974033
vt 0.202489 0.986920
vt 0.198576 0.987451
vt 0.184259 0.978209
vt 0.204443 0.996791
vt 0.282003 0.936814
vt 0.210825 0.981033
vt 0.341175 0.083208
vt 0.338929 0.082938
vt 0.339468 0.066234
vt 0.340895 0.065646
vt 0.228693 0.022912
vt 0.227533 0.021389
vt 0.240905 0.014276
vt 0.241196 0.015469
vt 0.246926 0.006662
vt 0.245006 0.015749
vt 0.290897 0.934659
vt 0.293920 0.932505
vt 0.224424 0.016860
vt 0.336219 0.062966
vt 0.342836 0.054867
vt 0.197735 0.988583
vt 0.333678 0.082103
vt 0.284159 0.918574
vt 0.286920 0.935103
vt 0.278013 0.919864
vt 0.197779 0.965607
vt 0.205790 0.983942
vt 0.192364 0.970180
vt 0.252364 0.021179
vt 0.326377 0.060155
vt 0.231921 0.026775
vt 0.247884 0.018464
vt 0.235429 0.030403
vt 0.509888 0.973597
vt 0.604062 0.887640
vt 0.623326 0.906247
vt 0.529284 0.992005
vt 0.331807 0.062273
vt 0.289315 0.917713
vt 0.785116 0.018541
vt 0.808890 0.000000
vt 0.920868 0.088847
vt 0.897204 0.106674
vt 0.808745 1.000000
vt 0.785199 0.981313
vt 0.897781 0.894166
vt 0.920868 0.912779
vt 0.761555 0.962550
vt 0.874700 0.875738
vt 0.737788 0.943616
vt 0.851778 0.857481
vt 0.714215 0.924369
vt 0.829250 0.839136
vt 0.690149 0.904731
vt 0.806866 0.821129
vt 0.665255 0.884453
vt 0.784654 0.803693
vt 0.642195 0.863541
vt 0.763760 0.785100
vt 0.619673 0.842137
vt 0.743446 0.766246
vt 0.597502 0.820016
vt 0.723929 0.747414
vt 0.576442 0.797195
vt 0.705625 0.728195
vt 0.555653 0.773063
vt 0.688297 0.709141
vt 0.535246 0.746360
vt 0.672753 0.690435
vt 0.518961 0.719558
vt 0.660008 0.669713
vt 0.504492 0.692568
vt 0.648191 0.648176
vt 0.491506 0.664663
vt 0.637695 0.626513
vt 0.480588 0.636486
vt 0.628778 0.604548
vt 0.471396 0.607086
vt 0.621473 0.582969
vt 0.465349 0.574951
vt 0.617631 0.562006
vt 0.463240 0.544693
vt 0.616714 0.539619
vt 0.463132 0.515232
vt 0.617081 0.516460
vt 0.464965 0.485564
vt 0.618963 0.493161
vt 0.468374 0.456398
vt 0.621987 0.469629
vt 0.473198 0.426864
vt 0.625771 0.446496
vt 0.481283 0.395879
vt 0.631969 0.424513
vt 0.491008 0.367394
vt 0.640051 0.401956
vt 0.501638 0.339999
vt 0.648969 0.379163
vt 0.513890 0.312802
vt 0.659140 0.356759
vt 0.527472 0.286295
vt 0.670558 0.334576
vt 0.542557 0.259694
vt 0.682653 0.313090
vt 0.560913 0.232881
vt 0.696704 0.293250
vt 0.580090 0.208263
vt 0.712799 0.273231
vt 0.599699 0.184571
vt 0.729726 0.253104
vt 0.620398 0.161345
vt 0.747561 0.233401
vt 0.641714 0.138803
vt 0.766187 0.213907
vt 0.663986 0.116803
vt 0.785533 0.195001
vt 0.688583 0.095574
vt 0.806488 0.177605
vt 0.712849 0.075456
vt 0.828268 0.159956
vt 0.736801 0.056068
vt 0.850665 0.142090
vt 0.760914 0.037157
vt 0.873709 0.124323
vt 0.327979 0.080955
vt 0.327550 0.104728
vt 0.321696 0.102863
vt 0.318733 0.127106
vt 0.312949 0.124725
vt 0.308411 0.148889
vt 0.302687 0.146208
vt 0.297440 0.170041
vt 0.291776 0.167194
vt 0.286855 0.190213
vt 0.281214 0.187211
vt 0.275792 0.210902
vt 0.270120 0.207857
vt 0.264684 0.231955
vt 0.258964 0.229054
vt 0.253999 0.252999
vt 0.248120 0.250330
vt 0.243869 0.274013
vt 0.237802 0.271571
vt 0.234782 0.294404
vt 0.228637 0.292052
vt 0.227633 0.312695
vt 0.221479 0.310165
vt 0.220142 0.333548
vt 0.213936 0.331155
vt 0.213026 0.355494
vt 0.206739 0.353487
vt 0.206719 0.377640
vt 0.200280 0.376141
vt 0.201315 0.399818
vt 0.194684 0.398730
vt 0.197038 0.420888
vt 0.190308 0.419985
vt 0.194319 0.438711
vt 0.187694 0.437551
vt 0.192061 0.460022
vt 0.185444 0.459072
vt 0.190545 0.482734
vt 0.183987 0.482217
vt 0.189859 0.505713
vt 0.183297 0.505695
vt 0.189948 0.528770
vt 0.183349 0.529116
vt 0.190635 0.550910
vt 0.184092 0.551389
vt 0.191889 0.570685
vt 0.185337 0.571059
vt 0.194186 0.592831
vt 0.187631 0.593360
vt 0.197291 0.615869
vt 0.190840 0.616704
vt 0.201093 0.638887
vt 0.194697 0.640133
vt 0.205568 0.661782
vt 0.199188 0.663342
vt 0.210541 0.683722
vt 0.204184 0.685404
vt 0.215604 0.703325
vt 0.209306 0.704937
vt 0.221975 0.724862
vt 0.215708 0.726540
vt 0.229130 0.747021
vt 0.222999 0.748942
vt 0.236767 0.769130
vt 0.230743 0.771327
vt 0.244814 0.791118
vt 0.238842 0.793500
vt 0.252936 0.812423
vt 0.247004 0.814814
vt 0.260710 0.832438
vt 0.254767 0.834605
vt 0.269246 0.853708
vt 0.263380 0.855753
vt 0.277487 0.875285
vt 0.271742 0.877135
vt 0.284563 0.896817
vt 0.278973 0.898275
vt 0.529608 0.010913
vt 0.623326 0.098292
vt 0.603708 0.116455
vt 0.510417 0.029226
vt 0.583991 0.134265
vt 0.490582 0.047408
vt 0.564385 0.151860
vt 0.470433 0.065692
vt 0.545162 0.169229
vt 0.450065 0.084352
vt 0.526977 0.186308
vt 0.429536 0.104011
vt 0.511667 0.203119
vt 0.409174 0.126355
vt 0.495955 0.221689
vt 0.390486 0.148502
vt 0.480350 0.241292
vt 0.373016 0.170550
vt 0.464979 0.261377
vt 0.356244 0.192649
vt 0.450144 0.281251
vt 0.339594 0.215389
vt 0.436744 0.300496
vt 0.323172 0.239695
vt 0.426083 0.318316
vt 0.307383 0.266710
vt 0.416114 0.339183
vt 0.294699 0.293060
vt 0.406740 0.361525
vt 0.283791 0.318921
vt 0.397832 0.384478
vt 0.273867 0.344607
vt 0.389723 0.407153
vt 0.264583 0.371060
vt 0.383223 0.428912
vt 0.256434 0.399082
vt 0.379870 0.448522
vt 0.250652 0.429834
vt 0.376937 0.470975
vt 0.246768 0.459161
vt 0.374762 0.494680
vt 0.244288 0.487405
vt 0.373183 0.518778
vt 0.242733 0.515141
vt 0.372182 0.542138
vt 0.242101 0.543673
vt 0.372351 0.563569
vt 0.243325 0.573859
vt 0.374940 0.580613
vt 0.248524 0.606788
vt 0.381432 0.601121
vt 0.256871 0.636001
vt 0.389790 0.623105
vt 0.266596 0.663092
vt 0.399013 0.645593
vt 0.277035 0.689142
vt 0.408746 0.667457
vt 0.288644 0.715405
vt 0.418951 0.687722
vt 0.302218 0.742267
vt 0.429032 0.704698
vt 0.318731 0.769838
vt 0.443305 0.722888
vt 0.336460 0.793534
vt 0.459392 0.741770
vt 0.354458 0.815362
vt 0.476157 0.760960
vt 0.372519 0.836429
vt 0.493310 0.779798
vt 0.391177 0.857277
vt 0.510704 0.797991
vt 0.410675 0.878022
vt 0.527606 0.815577
vt 0.430643 0.898825
vt 0.546159 0.833331
vt 0.450633 0.918079
vt 0.565307 0.851267
vt 0.470509 0.936758
vt 0.584668 0.869359
vt 0.490269 0.955215
vt 0.171733 0.955872
vt 0.176848 0.952111
vt 0.156850 0.934754
vt 0.162333 0.931419
vt 0.143647 0.912786
vt 0.149244 0.909953
vt 0.131717 0.889980
vt 0.137336 0.887423
vt 0.120274 0.865051
vt 0.125941 0.862668
vt 0.110128 0.840811
vt 0.115811 0.838489
vt 0.100917 0.816898
vt 0.106729 0.814746
vt 0.092247 0.792679
vt 0.098145 0.790816
vt 0.084113 0.768267
vt 0.090019 0.766642
vt 0.076417 0.743000
vt 0.082279 0.741352
vt 0.068984 0.715149
vt 0.074884 0.713767
vt 0.063002 0.689160
vt 0.068955 0.687789
vt 0.058022 0.663786
vt 0.064087 0.662625
vt 0.053765 0.638210
vt 0.059873 0.637411
vt 0.050277 0.612588
vt 0.056346 0.612025
vt 0.047543 0.585988
vt 0.053588 0.585458
vt 0.045686 0.556440
vt 0.051802 0.556375
vt 0.044895 0.529064
vt 0.051014 0.528969
vt 0.044906 0.502771
vt 0.051070 0.502892
vt 0.045639 0.476387
vt 0.051769 0.476920
vt 0.047171 0.450100
vt 0.053181 0.450866
vt 0.049818 0.422832
vt 0.055766 0.423573
vt 0.054375 0.392414
vt 0.060251 0.393472
vt 0.059877 0.365464
vt 0.065845 0.366538
vt 0.066282 0.339863
vt 0.072284 0.341220
vt 0.073577 0.314443
vt 0.079483 0.316232
vt 0.081646 0.289406
vt 0.087389 0.291407
vt 0.090960 0.263688
vt 0.096696 0.265664
vt 0.102049 0.236349
vt 0.107647 0.238611
vt 0.112996 0.212370
vt 0.118651 0.214660
vt 0.124344 0.189373
vt 0.129971 0.191894
vt 0.136177 0.166745
vt 0.141686 0.169525
vt 0.148379 0.144584
vt 0.153772 0.147498
vt 0.161255 0.122333
vt 0.166619 0.125285
vt 0.174790 0.100015
vt 0.179982 0.103162
vt 0.188230 0.079506
vt 0.193276 0.082762
vt 0.202089 0.060064
vt 0.206872 0.063516
vt 0.216639 0.042080
vt 0.220958 0.045783
vt 0.240038 0.034704
vt 0.226210 0.050102
vt 0.212668 0.067602
vt 0.199381 0.086653
vt 0.186231 0.106923
vt 0.173257 0.128891
vt 0.160668 0.150941
vt 0.148542 0.172931
vt 0.136930 0.195032
vt 0.125551 0.217653
vt 0.114409 0.241456
vt 0.103802 0.268098
vt 0.094832 0.293629
vt 0.086908 0.318439
vt 0.079797 0.342991
vt 0.073292 0.368212
vt 0.067476 0.394868
vt 0.063067 0.424424
vt 0.060799 0.451523
vt 0.059485 0.477517
vt 0.058853 0.503066
vt 0.058846 0.529149
vt 0.059390 0.556235
vt 0.060970 0.584679
vt 0.063898 0.611042
vt 0.067449 0.636367
vt 0.071623 0.661225
vt 0.076468 0.686354
vt 0.082165 0.712164
vt 0.089472 0.739287
vt 0.097340 0.764410
vt 0.105490 0.788487
vt 0.113974 0.812114
vt 0.123051 0.835785
vt 0.132926 0.859775
vt 0.144037 0.884316
vt 0.155955 0.906512
vt 0.168936 0.927329
vt 0.183044 0.947692
vt 0.321136 0.079362
vt 0.314890 0.100638
vt 0.306166 0.121916
vt 0.295901 0.143023
vt 0.284967 0.163769
vt 0.274589 0.183840
vt 0.263529 0.204582
vt 0.252266 0.225779
vt 0.241269 0.247311
vt 0.230759 0.268668
vt 0.221300 0.289162
vt 0.214333 0.307447
vt 0.206982 0.328741
vt 0.199686 0.351305
vt 0.193063 0.374500
vt 0.187322 0.397371
vt 0.182488 0.418780
vt 0.179932 0.436349
vt 0.178056 0.458126
vt 0.176664 0.481589
vt 0.175969 0.505614
vt 0.176051 0.529288
vt 0.176572 0.551861
vt 0.177593 0.571704
vt 0.180149 0.594172
vt 0.183426 0.617684
vt 0.187344 0.641529
vt 0.191854 0.664909
vt 0.196671 0.687201
vt 0.201880 0.706873
vt 0.208530 0.728568
vt 0.215927 0.751107
vt 0.223784 0.773799
vt 0.231953 0.796056
vt 0.240025 0.817512
vt 0.247640 0.837268
vt 0.256442 0.858197
vt 0.265035 0.879335
vt 0.272512 0.900060
vt 0.294066 0.917166
vt 0.289845 0.895529
vt 0.282847 0.873618
vt 0.274672 0.851877
vt 0.266144 0.830529
vt 0.258402 0.810134
vt 0.250268 0.788843
vt 0.242330 0.767074
vt 0.234811 0.745249
vt 0.227753 0.723365
vt 0.221392 0.701923
vt 0.216347 0.682018
vt 0.211377 0.660238
vt 0.206988 0.637712
vt 0.203252 0.615121
vt 0.200200 0.592465
vt 0.197883 0.570463
vt 0.196695 0.550351
vt 0.196039 0.528327
vt 0.195978 0.505697
vt 0.196659 0.483231
vt 0.198128 0.461020
vt 0.200358 0.439931
vt 0.203186 0.421550
vt 0.207427 0.400685
vt 0.212718 0.379019
vt 0.218865 0.357396
vt 0.225799 0.335879
vt 0.233265 0.315228
vt 0.240388 0.296452
vt 0.249449 0.276200
vt 0.259428 0.255459
vt 0.269959 0.234664
vt 0.280963 0.213778
vt 0.292071 0.193073
vt 0.302637 0.172626
vt 0.313715 0.151345
vt 0.324130 0.129304
vt 0.333071 0.106440
vt 0.179113 0.984774
vt 0.182845 0.979809
vt 0.160290 0.964492
vt 0.165222 0.960801
vt 0.144614 0.941957
vt 0.149840 0.938934
vt 0.131183 0.918886
vt 0.136473 0.916328
vt 0.119176 0.895117
vt 0.124515 0.893051
vt 0.108112 0.870369
vt 0.113302 0.868137
vt 0.097973 0.846084
vt 0.103134 0.843872
vt 0.088559 0.821551
vt 0.093808 0.819581
vt 0.079665 0.796578
vt 0.085019 0.794931
vt 0.071378 0.771598
vt 0.076782 0.770182
vt 0.063733 0.745971
vt 0.069168 0.744817
vt 0.056443 0.718759
vt 0.061789 0.717192
vt 0.050244 0.692474
vt 0.055660 0.691087
vt 0.045103 0.666354
vt 0.050592 0.665261
vt 0.040700 0.639807
vt 0.046259 0.639128
vt 0.037132 0.613426
vt 0.042710 0.613054
vt 0.034554 0.586264
vt 0.040111 0.586288
vt 0.032823 0.557140
vt 0.038359 0.556740
vt 0.031922 0.529680
vt 0.037467 0.529437
vt 0.031953 0.502577
vt 0.037499 0.502659
vt 0.032768 0.475091
vt 0.038288 0.475652
vt 0.034420 0.447997
vt 0.039869 0.448876
vt 0.037291 0.420427
vt 0.042664 0.421578
vt 0.041608 0.391000
vt 0.047114 0.391488
vt 0.047021 0.363645
vt 0.052508 0.364442
vt 0.053586 0.337167
vt 0.059029 0.338318
vt 0.061177 0.310596
vt 0.066483 0.312244
vt 0.069528 0.284718
vt 0.074707 0.286694
vt 0.078960 0.258956
vt 0.084111 0.260999
vt 0.089652 0.232248
vt 0.094982 0.233836
vt 0.100678 0.207602
vt 0.105897 0.209621
vt 0.112253 0.184054
vt 0.117390 0.186296
vt 0.124388 0.160727
vt 0.129386 0.163267
vt 0.136874 0.138032
vt 0.141750 0.140788
vt 0.149830 0.115837
vt 0.154692 0.118576
vt 0.163306 0.093447
vt 0.168196 0.096121
vt 0.177104 0.072299
vt 0.181801 0.075337
vt 0.191533 0.052321
vt 0.196002 0.055598
vt 0.207061 0.033514
vt 0.211140 0.037179
vt 0.166996 0.959407
vt 0.151769 0.937765
vt 0.138467 0.915328
vt 0.126501 0.892265
vt 0.115153 0.867266
vt 0.105006 0.843024
vt 0.095684 0.818854
vt 0.086917 0.794329
vt 0.078741 0.769670
vt 0.071057 0.744442
vt 0.063651 0.716569
vt 0.057627 0.690542
vt 0.052556 0.664861
vt 0.048237 0.638894
vt 0.044749 0.612957
vt 0.042022 0.586378
vt 0.040159 0.556555
vt 0.039385 0.529315
vt 0.039373 0.502677
vt 0.040139 0.475843
vt 0.041761 0.449219
vt 0.044423 0.422042
vt 0.048970 0.391565
vt 0.054435 0.364679
vt 0.060867 0.338703
vt 0.068285 0.312817
vt 0.076502 0.287431
vt 0.085821 0.261761
vt 0.096883 0.234366
vt 0.107818 0.210369
vt 0.119236 0.187134
vt 0.131191 0.164225
vt 0.143527 0.141853
vt 0.156427 0.119635
vt 0.170006 0.097141
vt 0.183595 0.076522
vt 0.197694 0.056869
vt 0.212666 0.038575
vt 0.292038 0.894969
vt 0.285056 0.872885
vt 0.276863 0.851097
vt 0.268413 0.829704
vt 0.260645 0.809096
vt 0.252553 0.787847
vt 0.244705 0.766164
vt 0.237248 0.744447
vt 0.230177 0.722705
vt 0.223915 0.701319
vt 0.218806 0.681188
vt 0.213809 0.659561
vt 0.209516 0.637200
vt 0.205822 0.614792
vt 0.202709 0.592334
vt 0.200551 0.570417
vt 0.199437 0.550005
vt 0.198672 0.528103
vt 0.198691 0.505660
vt 0.199388 0.483398
vt 0.200740 0.461415
vt 0.202997 0.440506
vt 0.205910 0.421769
vt 0.210042 0.401077
vt 0.215374 0.379677
vt 0.221435 0.358264
vt 0.228227 0.336924
vt 0.235648 0.316449
vt 0.242810 0.297383
vt 0.251738 0.277155
vt 0.261709 0.256576
vt 0.272161 0.235876
vt 0.283088 0.215049
vt 0.294206 0.194371
vt 0.304828 0.173756
vt 0.315839 0.152361
vt 0.326326 0.130233
vt 0.335334 0.107159
vt 0.347478 0.083514
vt 0.341107 0.108929
vt 0.331845 0.132484
vt 0.321188 0.154838
vt 0.310175 0.176345
vt 0.299388 0.197230
vt 0.288226 0.217919
vt 0.277409 0.238587
vt 0.267100 0.259014
vt 0.257220 0.279302
vt 0.248448 0.299401
vt 0.241118 0.318969
vt 0.233771 0.339206
vt 0.227199 0.360152
vt 0.221294 0.381028
vt 0.215993 0.401927
vt 0.211956 0.422350
vt 0.208934 0.441757
vt 0.206652 0.462382
vt 0.205424 0.483896
vt 0.204744 0.505632
vt 0.204640 0.527666
vt 0.205477 0.549352
vt 0.206568 0.570251
vt 0.208601 0.591983
vt 0.211724 0.614063
vt 0.215350 0.636028
vt 0.219520 0.658041
vt 0.224501 0.679452
vt 0.229727 0.699996
vt 0.235874 0.721233
vt 0.242896 0.742695
vt 0.250238 0.764113
vt 0.257963 0.785595
vt 0.266041 0.806836
vt 0.273942 0.827837
vt 0.282312 0.849279
vt 0.290522 0.871224
vt 0.297550 0.893711
vn 0.0214 0.2154 0.9763
vn 0.0197 0.2030 0.9790
vn 0.0214 0.2156 0.9762
vn 0.0006 0.0602 0.9982
vn -0.0069 0.0668 0.9977
vn -0.0043 0.1587 0.9873
vn 0.0025 0.1500 0.9887
vn -1.0000 -0.0036 -0.0050
vn 0.0000 1.0000 0.0000
vn -0.0027 0.0037 -1.0000
vn -0.0026 0.0011 -1.0000
vn 1.0000 -0.0052 -0.0030
vn 1.0000 -0.0015 -0.0030
vn 0.9857 0.1682 0.0049
vn 0.9848 0.1737 0.0042
vn 0.9857 0.1683 0.0049
vn -0.0028 -0.0029 -1.0000
vn -0.0026 0.0002 -1.0000
vn 0.9999 0.0076 -0.0093
vn 0.9999 0.0077 -0.0093
vn 0.9999 -0.0003 -0.0101
vn 0.9940 0.1097 -0.0044
vn 0.9943 0.1059 -0.0093
vn 0.9804 0.1967 -0.0078
vn 0.9795 0.2014 -0.0034
vn -0.0059 -0.5567 -0.8307
vn -0.0010 -0.5603 -0.8283
vn -0.0060 -0.5566 -0.8308
vn -0.0034 -0.5911 0.8066
vn -0.0110 -0.5881 0.8087
vn -0.0033 -0.5912 0.8065
vn 0.0076 0.0001 1.0000
vn 1.0000 -0.0084 -0.0030
vn -0.9971 0.0766 -0.0008
vn -0.9968 0.0799 0.0018
vn -0.9999 -0.0125 0.0029
vn -0.9999 -0.0150 0.0001
vn -0.0028 0.0060 -1.0000
vn -0.0031 -0.0056 -1.0000
vn 0.9999 0.0146 -0.0085
vn -0.0121 0.1247 -0.9921
vn -0.0071 0.1171 -0.9931
vn -0.0047 0.0261 -0.9996
vn -0.0103 0.0321 -0.9994
vn 0.9998 0.0171 -0.0054
vn 0.9998 0.0139 -0.0107
vn 0.9933 0.1152 0.0017
vn 0.9998 0.0216 0.0014
vn 0.9933 0.1153 0.0004
vn 0.9998 0.0215 0.0007
vn 0.9940 0.1094 -0.0088
vn 0.9999 0.0152 -0.0078
vn 0.9926 0.1205 -0.0140
vn 0.9995 0.0259 -0.0185
vn 0.9879 0.1528 -0.0272
vn 0.9977 0.0590 -0.0321
vn 0.9834 0.1704 -0.0619
vn 0.9950 0.0778 -0.0629
vn 0.9805 0.1755 -0.0879
vn 0.9927 0.0807 -0.0901
vn 0.9788 0.1759 -0.1046
vn 0.9913 0.0788 -0.1052
vn 0.9772 0.1594 -0.1402
vn 0.9883 0.0624 -0.1393
vn 0.9679 0.1599 -0.1942
vn 0.9774 0.0627 -0.2019
vn 0.9447 0.1957 -0.2632
vn 0.9568 0.0980 -0.2737
vn 0.9138 0.2267 -0.3371
vn 0.9297 0.1313 -0.3441
vn 0.8928 0.2407 -0.3807
vn 0.9096 0.1442 -0.3897
vn 0.8824 0.2409 -0.4041
vn 0.9004 0.1436 -0.4107
vn 0.8629 0.2196 -0.4553
vn 0.8788 0.1238 -0.4607
vn 0.8183 0.1955 -0.5405
vn 0.8306 0.0994 -0.5480
vn 0.7560 0.1968 -0.6243
vn 0.7663 0.1005 -0.6346
vn 0.6934 0.2228 -0.6852
vn 0.7035 0.1266 -0.6993
vn 0.6536 0.2444 -0.7163
vn 0.6656 0.1469 -0.7317
vn 0.6375 0.2448 -0.7306
vn 0.6514 0.1481 -0.7441
vn 0.6073 0.2309 -0.7602
vn 0.6194 0.1363 -0.7731
vn 0.5680 0.2057 -0.7969
vn 0.5810 0.1099 -0.8064
vn 0.5291 0.1794 -0.8294
vn 0.5395 0.0840 -0.8378
vn 0.4746 0.1786 -0.8619
vn 0.4793 0.0841 -0.8736
vn 0.4318 0.1930 -0.8811
vn 0.4369 0.0968 -0.8943
vn 0.4085 0.1935 -0.8920
vn 0.4155 0.0974 -0.9044
vn 0.3689 0.1829 -0.9113
vn 0.3745 0.0870 -0.9231
vn 0.3042 0.1714 -0.9371
vn 0.3091 0.0729 -0.9482
vn 0.2465 0.1661 -0.9548
vn 0.2499 0.0677 -0.9659
vn 0.2025 0.1760 -0.9633
vn 0.2033 0.0783 -0.9760
vn 0.1721 0.1893 -0.9667
vn 0.1736 0.0916 -0.9805
vn 0.1567 0.1881 -0.9696
vn 0.1602 0.0923 -0.9828
vn 0.1267 0.1775 -0.9759
vn 0.1293 0.0838 -0.9881
vn 0.0754 0.1533 -0.9853
vn 0.0814 0.0589 -0.9949
vn 0.0329 0.1233 -0.9918
vn 0.0371 0.0286 -0.9989
vn 0.0070 0.1208 -0.9926
vn 0.0050 0.0259 -0.9997
vn -0.0093 0.1337 -0.9910
vn -0.0103 0.0386 -0.9992
vn -0.0155 0.1351 -0.9907
vn -0.0150 0.0402 -0.9991
vn -0.0013 -0.0302 0.9995
vn -0.0094 -0.0248 0.9996
vn 0.0075 0.0522 0.9986
vn 0.0073 -0.0364 0.9993
vn 0.0021 0.0558 0.9984
vn 0.0034 -0.0328 0.9995
vn -0.0147 0.0684 0.9976
vn -0.0124 -0.0208 0.9997
vn -0.0442 0.0659 0.9968
vn -0.0459 -0.0226 0.9987
vn -0.0866 0.0390 0.9955
vn -0.0898 -0.0491 0.9948
vn -0.1329 0.0181 0.9910
vn -0.1336 -0.0699 0.9886
vn -0.1632 0.0094 0.9866
vn -0.1636 -0.0763 0.9836
vn -0.1828 0.0095 0.9831
vn -0.1811 -0.0746 0.9806
vn -0.2148 0.0212 0.9764
vn -0.2120 -0.0637 0.9752
vn -0.2611 0.0294 0.9649
vn -0.2606 -0.0546 0.9639
vn -0.3180 0.0270 0.9477
vn -0.3176 -0.0569 0.9465
vn -0.3760 0.0198 0.9264
vn -0.3764 -0.0663 0.9241
vn -0.4161 0.0117 0.9092
vn -0.4159 -0.0737 0.9064
vn -0.4437 0.0125 0.8961
vn -0.4414 -0.0728 0.8943
vn -0.4845 0.0240 0.8745
vn -0.4819 -0.0635 0.8739
vn -0.5382 0.0227 0.8425
vn -0.5387 -0.0634 0.8401
vn -0.5856 0.0009 0.8106
vn -0.5852 -0.0830 0.8067
vn -0.6292 -0.0190 0.7770
vn -0.6269 -0.1031 0.7722
vn -0.6625 -0.0292 0.7485
vn -0.6593 -0.1105 0.7437
vn -0.6860 -0.0260 0.7272
vn -0.6808 -0.1070 0.7247
vn -0.7241 -0.0080 0.6896
vn -0.7186 -0.0919 0.6894
vn -0.7778 0.0094 0.6285
vn -0.7749 -0.0742 0.6277
vn -0.8328 0.0114 0.5535
vn -0.8310 -0.0725 0.5516
vn -0.8770 -0.0033 0.4804
vn -0.8753 -0.0877 0.4756
vn -0.9027 -0.0204 0.4299
vn -0.8990 -0.1019 0.4259
vn -0.9173 -0.0226 0.3975
vn -0.9122 -0.1045 0.3963
vn -0.9359 -0.0126 0.3521
vn -0.9312 -0.0964 0.3516
vn -0.9581 0.0100 0.2861
vn -0.9550 -0.0727 0.2875
vn -0.9754 0.0381 0.2170
vn -0.9748 -0.0467 0.2181
vn -0.9866 0.0393 0.1586
vn -0.9868 -0.0470 0.1553
vn -0.9924 0.0250 0.1208
vn -0.9910 -0.0605 0.1191
vn -0.9948 0.0224 0.0997
vn -0.9929 -0.0648 0.0999
vn -0.9970 0.0255 0.0733
vn -0.9953 -0.0638 0.0730
vn -0.9984 0.0408 0.0402
vn -0.9979 -0.0480 0.0432
vn -0.9974 0.0684 0.0219
vn -0.9995 -0.0209 0.0246
vn -0.9970 0.0770 0.0109
vn -0.9999 -0.0131 0.0098
vn -0.9974 0.0715 0.0004
vn -0.9998 -0.0187 0.0000
vn -0.9974 0.0717 -0.0032
vn -0.9998 -0.0187 -0.0028
vn -0.8133 -0.5819 0.0036
vn -0.8123 -0.5833 0.0011
vn -0.8108 -0.5853 -0.0018
vn -0.8110 -0.5850 -0.0006
vn -0.8134 -0.5817 0.0062
vn -0.8134 -0.5816 0.0063
vn -0.8108 -0.5848 0.0240
vn -0.8107 -0.5849 0.0243
vn -0.7979 -0.6013 0.0413
vn -0.7976 -0.6018 0.0415
vn -0.7872 -0.6139 0.0579
vn -0.7871 -0.6140 0.0587
vn -0.7871 -0.6119 0.0778
vn -0.7872 -0.6118 0.0781
vn -0.7893 -0.6070 0.0931
vn -0.7893 -0.6069 0.0936
vn -0.7904 -0.6006 0.1207
vn -0.7905 -0.6003 0.1217
vn -0.7828 -0.5966 0.1768
vn -0.7827 -0.5967 0.1772
vn -0.7567 -0.6102 0.2347
vn -0.7560 -0.6107 0.2355
vn -0.7275 -0.6278 0.2767
vn -0.7270 -0.6280 0.2776
vn -0.7128 -0.6297 0.3089
vn -0.7128 -0.6297 0.3090
vn -0.7044 -0.6270 0.3326
vn -0.7042 -0.6270 0.3331
vn -0.6907 -0.6206 0.3712
vn -0.6906 -0.6205 0.3715
vn -0.6643 -0.6061 0.4374
vn -0.6646 -0.6063 0.4368
vn -0.6152 -0.6069 0.5031
vn -0.6151 -0.6070 0.5033
vn -0.5620 -0.6226 0.5446
vn -0.5624 -0.6224 0.5443
vn -0.5311 -0.6296 0.5671
vn -0.5315 -0.6296 0.5667
vn -0.5129 -0.6329 0.5800
vn -0.5130 -0.6329 0.5800
vn -0.4902 -0.6315 0.6007
vn -0.4908 -0.6317 0.6001
vn -0.4681 -0.6148 0.6348
vn -0.4684 -0.6151 0.6342
vn -0.4308 -0.6045 0.6701
vn -0.4300 -0.6046 0.6705
vn -0.3805 -0.6104 0.6947
vn -0.3804 -0.6104 0.6948
vn -0.3490 -0.6140 0.7080
vn -0.3492 -0.6140 0.7079
vn -0.3288 -0.6147 0.7169
vn -0.3287 -0.6148 0.7169
vn -0.2999 -0.6124 0.7315
vn -0.3003 -0.6124 0.7313
vn -0.2557 -0.6032 0.7555
vn -0.2564 -0.6034 0.7551
vn -0.2061 -0.6032 0.7705
vn -0.2062 -0.6032 0.7705
vn -0.1654 -0.6124 0.7730
vn -0.1657 -0.6123 0.7730
vn -0.1424 -0.6158 0.7750
vn -0.1427 -0.6158 0.7749
vn -0.1288 -0.6172 0.7762
vn -0.1071 -0.6159 0.7805
vn -0.1075 -0.6160 0.7804
vn -0.0787 -0.6008 0.7955
vn -0.0790 -0.6011 0.7953
vn -0.0400 -0.5849 0.8101
vn -0.0407 -0.5850 0.8100
vn -0.0067 -0.5850 0.8110
vn -0.0073 -0.5848 0.8112
vn 0.0047 -0.5921 0.8059
vn 0.0045 -0.5919 0.8060
vn 0.0056 -0.5944 0.8041
vn 0.0057 -0.5945 0.8041
vn 0.8233 -0.5675 -0.0106
vn 0.8247 -0.5655 -0.0059
vn 0.8247 -0.5655 -0.0058
vn 0.8266 -0.5628 0.0005
vn 0.8266 -0.5628 0.0006
vn 0.8265 -0.5629 0.0013
vn 0.8265 -0.5629 0.0012
vn 0.8241 -0.5665 -0.0043
vn 0.8240 -0.5666 -0.0044
vn 0.8268 -0.5620 -0.0219
vn 0.8269 -0.5618 -0.0222
vn 0.8420 -0.5382 -0.0378
vn 0.8422 -0.5378 -0.0378
vn 0.8531 -0.5189 -0.0549
vn 0.8531 -0.5188 -0.0555
vn 0.8507 -0.5201 -0.0763
vn 0.8506 -0.5202 -0.0765
vn 0.8470 -0.5242 -0.0886
vn 0.8469 -0.5242 -0.0889
vn 0.8398 -0.5313 -0.1118
vn 0.8393 -0.5317 -0.1130
vn 0.8259 -0.5358 -0.1758
vn 0.8257 -0.5357 -0.1771
vn 0.8224 -0.5094 -0.2535
vn 0.8223 -0.5097 -0.2531
vn 0.8217 -0.4774 -0.3112
vn 0.8218 -0.4775 -0.3108
vn 0.8102 -0.4728 -0.3466
vn 0.8102 -0.4727 -0.3465
vn 0.8010 -0.4748 -0.3648
vn 0.8008 -0.4746 -0.3653
vn 0.7798 -0.4836 -0.3975
vn 0.7787 -0.4842 -0.3989
vn 0.7238 -0.5090 -0.4659
vn 0.7226 -0.5094 -0.4673
vn 0.6567 -0.5082 -0.5571
vn 0.6580 -0.5088 -0.5552
vn 0.6141 -0.4821 -0.6249
vn 0.6151 -0.4828 -0.6234
vn 0.5926 -0.4727 -0.6522
vn 0.5929 -0.4726 -0.6520
vn 0.5807 -0.4701 -0.6646
vn 0.5807 -0.4701 -0.6647
vn 0.5553 -0.4742 -0.6832
vn 0.5551 -0.4743 -0.6833
vn 0.5163 -0.5036 -0.6927
vn 0.5158 -0.5042 -0.6927
vn 0.4631 -0.5236 -0.7151
vn 0.4630 -0.5236 -0.7152
vn 0.4073 -0.5153 -0.7541
vn 0.4077 -0.5154 -0.7537
vn 0.3772 -0.5102 -0.7730
vn 0.3774 -0.5101 -0.7729
vn 0.3591 -0.5095 -0.7819
vn 0.3590 -0.5095 -0.7820
vn 0.3270 -0.5133 -0.7934
vn 0.3268 -0.5134 -0.7935
vn 0.2684 -0.5282 -0.8056
vn 0.2686 -0.5282 -0.8056
vn 0.2093 -0.5301 -0.8217
vn 0.2099 -0.5303 -0.8214
vn 0.1696 -0.5181 -0.8383
vn 0.1702 -0.5183 -0.8381
vn 0.1492 -0.5142 -0.8446
vn 0.1493 -0.5142 -0.8446
vn 0.1379 -0.5134 -0.8470
vn 0.1145 -0.5160 -0.8489
vn 0.1146 -0.5159 -0.8489
vn 0.0806 -0.5377 -0.8393
vn 0.0357 -0.5597 -0.8279
vn 0.0366 -0.5595 -0.8280
vn -0.0000 -0.5595 -0.8289
vn 0.0005 -0.5598 -0.8286
vn -0.0103 -0.5524 -0.8335
vn -0.0102 -0.5525 -0.8335
vn -0.0116 -0.5516 -0.8340
vn -0.0116 -0.5516 -0.8341
vn -0.0138 0.2163 -0.9762
vn -0.0094 0.2066 -0.9784
vn -0.0159 0.2287 -0.9734
vn -0.0083 0.2275 -0.9737
vn 0.0087 0.2146 -0.9767
vn 0.0288 0.2165 -0.9759
vn 0.0697 0.2462 -0.9667
vn 0.1232 0.2693 -0.9551
vn 0.1519 0.2820 -0.9473
vn 0.1689 0.2849 -0.9435
vn 0.1997 0.2717 -0.9414
vn 0.2407 0.2623 -0.9345
vn 0.2977 0.2675 -0.9164
vn 0.3604 0.2765 -0.8909
vn 0.3978 0.2875 -0.8712
vn 0.4225 0.2872 -0.8596
vn 0.4650 0.2710 -0.8428
vn 0.5138 0.2720 -0.8136
vn 0.5504 0.2993 -0.7794
vn 0.5902 0.3227 -0.7400
vn 0.6175 0.3389 -0.7098
vn 0.6351 0.3393 -0.6940
vn 0.6761 0.3163 -0.6654
vn 0.7380 0.2902 -0.6092
vn 0.7994 0.2886 -0.5270
vn 0.8393 0.3127 -0.4447
vn 0.8559 0.3356 -0.3934
vn 0.8674 0.3347 -0.3682
vn 0.8892 0.3191 -0.3278
vn 0.9227 0.2913 -0.2527
vn 0.9492 0.2546 -0.1850
vn 0.9569 0.2547 -0.1394
vn 0.9570 0.2711 -0.1030
vn 0.9595 0.2686 -0.0849
vn 0.9634 0.2611 -0.0607
vn 0.9692 0.2452 -0.0225
vn 0.9768 0.2139 -0.0097
vn 0.9792 0.2024 -0.0097
vn 0.9781 0.2081 0.0001
vn 0.9782 0.2078 0.0020
vn -0.0041 0.1576 -0.9875
vn -0.0083 0.1485 -0.9889
vn -0.0082 0.1487 -0.9888
vn -0.0085 0.1376 -0.9904
vn -0.0087 0.1377 -0.9904
vn 0.0025 0.1413 -0.9900
vn 0.0021 0.1409 -0.9900
vn 0.0180 0.1440 -0.9894
vn 0.0174 0.1442 -0.9894
vn 0.0360 0.1303 -0.9908
vn 0.0350 0.1314 -0.9907
vn 0.0774 0.1150 -0.9903
vn 0.0773 0.1150 -0.9904
vn 0.1269 0.1041 -0.9864
vn 0.1275 0.1039 -0.9864
vn 0.1576 0.0910 -0.9833
vn 0.1577 0.0910 -0.9833
vn 0.1862 0.0889 -0.9785
vn 0.1856 0.0887 -0.9786
vn 0.2177 0.0920 -0.9717
vn 0.2167 0.0921 -0.9719
vn 0.2598 0.0841 -0.9620
vn 0.2576 0.0847 -0.9625
vn 0.3177 0.0875 -0.9441
vn 0.3194 0.0880 -0.9435
vn 0.3716 0.0980 -0.9232
vn 0.3726 0.0980 -0.9228
vn 0.4099 0.0922 -0.9075
vn 0.4103 0.0921 -0.9073
vn 0.4471 0.0930 -0.8896
vn 0.4464 0.0927 -0.8900
vn 0.4845 0.0930 -0.8698
vn 0.4834 0.0934 -0.8704
vn 0.5297 0.0632 -0.8458
vn 0.5270 0.0655 -0.8473
vn 0.5812 0.0450 -0.8125
vn 0.5821 0.0451 -0.8118
vn 0.6261 0.0501 -0.7782
vn 0.6267 0.0502 -0.7777
vn 0.6586 0.0449 -0.7512
vn 0.6916 0.0475 -0.7207
vn 0.6904 0.0468 -0.7219
vn 0.7292 0.0593 -0.6817
vn 0.7272 0.0591 -0.6839
vn 0.7791 0.0530 -0.6247
vn 0.7759 0.0539 -0.6286
vn 0.8304 0.0554 -0.5544
vn 0.8330 0.0565 -0.5503
vn 0.8709 0.0648 -0.4872
vn 0.8724 0.0646 -0.4846
vn 0.8980 0.0538 -0.4368
vn 0.8988 0.0532 -0.4352
vn 0.9185 0.0523 -0.3920
vn 0.9184 0.0522 -0.3922
vn 0.9359 0.0642 -0.3463
vn 0.9355 0.0641 -0.3474
vn 0.9580 0.0701 -0.2779
vn 0.9578 0.0701 -0.2786
vn 0.9739 0.0874 -0.2093
vn 0.9745 0.0898 -0.2055
vn 0.9807 0.1080 -0.1628
vn 0.9810 0.1082 -0.1611
vn 0.9864 0.1061 -0.1255
vn 0.9866 0.1058 -0.1242
vn 0.9897 0.1062 -0.0959
vn 0.9897 0.1063 -0.0956
vn 0.9910 0.1132 -0.0717
vn 0.9926 0.1164 -0.0339
vn 0.9926 0.1164 -0.0331
vn 0.9914 0.1308 -0.0101
vn 0.9912 0.1319 -0.0103
vn 0.9882 0.1528 -0.0096
vn 0.9882 0.1531 -0.0095
vn 0.9871 0.1598 -0.0016
vn 0.9871 0.1598 -0.0014
vn 0.9870 0.1607 0.0047
vn 0.9870 0.1608 0.0048
vn -0.9859 0.1675 -0.0016
vn -0.9851 0.1719 0.0006
vn -0.9869 0.1615 -0.0035
vn -0.9869 0.1611 0.0008
vn -0.9859 0.1666 0.0120
vn -0.9874 0.1570 0.0187
vn -0.9909 0.1295 0.0371
vn -0.9907 0.1147 0.0727
vn -0.9891 0.1094 0.0988
vn -0.9864 0.1104 0.1220
vn -0.9789 0.1258 0.1611
vn -0.9690 0.1224 0.2146
vn -0.9550 0.0933 0.2817
vn -0.9344 0.0715 0.3490
vn -0.9163 0.0594 0.3960
vn -0.9001 0.0615 0.4313
vn -0.8717 0.0817 0.4832
vn -0.8279 0.0955 0.5526
vn -0.7759 0.0932 0.6239
vn -0.7255 0.0766 0.6840
vn -0.6870 0.0555 0.7246
vn -0.6613 0.0523 0.7483
vn -0.6262 0.0653 0.7769
vn -0.5817 0.0851 0.8090
vn -0.5343 0.1085 0.8383
vn -0.4842 0.1117 0.8678
vn -0.4430 0.0980 0.8912
vn -0.4131 0.0971 0.9055
vn -0.3721 0.1060 0.9221
vn -0.3149 0.1109 0.9426
vn -0.2601 0.1133 0.9589
vn -0.2162 0.1062 0.9706
vn -0.1833 0.0936 0.9786
vn -0.1615 0.0951 0.9823
vn -0.1306 0.1062 0.9857
vn -0.0826 0.1271 0.9884
vn -0.0421 0.1538 0.9872
vn -0.0170 0.1572 0.9874
vn 0.0008 0.1441 0.9896
vn 0.0076 0.1403 0.9901
vn -0.9803 0.1975 0.0032
vn -0.9794 0.2019 0.0003
vn -0.9794 0.2020 0.0003
vn -0.9780 0.2084 -0.0033
vn -0.9780 0.2085 -0.0033
vn -0.9779 0.2092 0.0007
vn -0.9779 0.2092 0.0008
vn -0.9759 0.2179 0.0061
vn -0.9759 0.2183 0.0061
vn -0.9699 0.2434 -0.0014
vn -0.9698 0.2439 -0.0017
vn -0.9656 0.2593 0.0192
vn -0.9656 0.2593 0.0185
vn -0.9633 0.2616 0.0598
vn -0.9634 0.2615 0.0595
vn -0.9593 0.2708 0.0801
vn -0.9559 0.2740 0.1056
vn -0.9559 0.2738 0.1064
vn -0.9514 0.2752 0.1383
vn -0.9511 0.2756 0.1395
vn -0.9399 0.2959 0.1704
vn -0.9395 0.2967 0.1713
vn -0.9162 0.3153 0.2473
vn -0.9178 0.3150 0.2418
vn -0.8889 0.3237 0.3240
vn -0.8897 0.3233 0.3222
vn -0.8686 0.3391 0.3613
vn -0.8690 0.3388 0.3607
vn -0.8518 0.3401 0.3985
vn -0.8515 0.3397 0.3995
vn -0.8327 0.3284 0.4458
vn -0.8314 0.3281 0.4484
vn -0.7905 0.3315 0.5149
vn -0.7875 0.3321 0.5193
vn -0.7253 0.3337 0.6021
vn -0.7282 0.3341 0.5984
vn -0.6751 0.3326 0.6585
vn -0.6770 0.3323 0.6567
vn -0.6386 0.3440 0.6884
vn -0.6394 0.3436 0.6878
vn -0.6115 0.3435 0.7128
vn -0.6112 0.3433 0.7131
vn -0.5872 0.3362 0.7363
vn -0.5861 0.3364 0.7371
vn -0.5417 0.3411 0.7683
vn -0.5392 0.3413 0.7699
vn -0.4915 0.3215 0.8094
vn -0.4925 0.3227 0.8083
vn -0.4597 0.2912 0.8390
vn -0.4607 0.2918 0.8382
vn -0.4266 0.2905 0.8565
vn -0.4273 0.2902 0.8563
vn -0.3930 0.2908 0.8724
vn -0.3925 0.2906 0.8726
vn -0.3594 0.2833 0.8891
vn -0.3582 0.2833 0.8896
vn -0.3010 0.2913 0.9081
vn -0.2980 0.2919 0.9088
vn -0.2350 0.2942 0.9264
vn -0.2362 0.2944 0.9260
vn -0.1993 0.2864 0.9371
vn -0.2001 0.2866 0.9369
vn -0.1715 0.2883 0.9421
vn -0.1719 0.2881 0.9420
vn -0.1466 0.2848 0.9473
vn -0.1464 0.2846 0.9474
vn -0.1190 0.2702 0.9554
vn -0.1181 0.2699 0.9556
vn -0.0639 0.2591 0.9637
vn -0.0623 0.2590 0.9639
vn -0.0203 0.2436 0.9697
vn -0.0205 0.2442 0.9695
vn -0.0089 0.2290 0.9734
vn -0.0093 0.2292 0.9733
vn 0.0054 0.2299 0.9732
vn 0.0051 0.2297 0.9733
vn 0.0180 0.2312 0.9727
vn 0.0179 0.2313 0.9727
usemtl L_J_FLAT
s 1
f 1/1/1 2/2/2 3/3/2 4/4/3
f 5/5/4 6/6/5 7/7/6 8/8/7
f 9/9/8 2/2/8 10/10/8 11/11/8
f 12/12/9 13/13/9 14/14/9 15/15/9
f 16/16/9 17/17/9 18/18/9 19/19/9
f 20/20/10 21/21/10 19/19/11 18/18/11
f 2/2/12 22/22/12 23/23/13 3/3/13
f 24/24/14 20/20/15 18/18/15 17/17/16
f 25/25/17 26/26/17 15/15/18 14/14/18
f 6/6/19 9/9/20 27/27/21 7/7/21
f 28/28/22 25/25/23 14/14/24 13/13/25
f 29/29/26 30/30/27 10/10/27 31/31/28
f 32/32/29 11/11/30 33/33/30 34/34/31
f 26/26/32 20/20/32 35/35/32 36/36/32
f 22/22/12 2/2/12 10/10/33 30/30/33
f 37/37/34 21/21/35 38/38/36 39/39/37
f 21/21/10 20/20/10 35/35/38 38/38/38
f 40/40/9 41/41/9 36/42/9 35/43/9
f 26/26/17 25/25/17 42/44/39 36/36/39
f 9/9/20 6/6/19 33/33/40 11/11/40
f 43/45/41 22/22/42 30/30/43 29/29/44
f 44/46/9 9/47/9 2/48/9 1/49/9
f 20/50/9 24/51/9 45/52/9 26/53/9
f 24/51/9 46/54/9 47/55/9 45/52/9
f 46/54/9 48/56/9 49/57/9 47/55/9
f 48/56/9 50/58/9 51/59/9 49/57/9
f 50/58/9 52/60/9 53/61/9 51/59/9
f 52/60/9 54/62/9 55/63/9 53/61/9
f 54/62/9 56/64/9 57/65/9 55/63/9
f 56/64/9 58/66/9 59/67/9 57/65/9
f 58/66/9 60/68/9 61/69/9 59/67/9
f 60/68/9 62/70/9 63/71/9 61/69/9
f 62/70/9 64/72/9 65/73/9 63/71/9
f 64/72/9 66/74/9 67/75/9 65/73/9
f 66/74/9 68/76/9 69/77/9 67/75/9
f 68/76/9 70/78/9 71/79/9 69/77/9
f 70/78/9 72/80/9 73/81/9 71/79/9
f 72/80/9 74/82/9 75/83/9 73/81/9
f 74/82/9 76/84/9 77/85/9 75/83/9
f 76/84/9 78/86/9 79/87/9 77/85/9
f 78/86/9 80/88/9 81/89/9 79/87/9
f 80/88/9 82/90/9 83/91/9 81/89/9
f 82/90/9 84/92/9 85/93/9 83/91/9
f 84/92/9 86/94/9 87/95/9 85/93/9
f 86/94/9 88/96/9 89/97/9 87/95/9
f 88/96/9 90/98/9 91/99/9 89/97/9
f 90/98/9 92/100/9 93/101/9 91/99/9
f 92/100/9 94/102/9 95/103/9 93/101/9
f 94/102/9 96/104/9 97/105/9 95/103/9
f 96/104/9 98/106/9 99/107/9 97/105/9
f 98/106/9 100/108/9 101/109/9 99/107/9
f 100/108/9 102/110/9 103/111/9 101/109/9
f 102/110/9 104/112/9 105/113/9 103/111/9
f 104/112/9 106/114/9 107/115/9 105/113/9
f 106/114/9 108/116/9 109/117/9 107/115/9
f 108/116/9 110/118/9 111/119/9 109/117/9
f 110/118/9 112/120/9 113/121/9 111/119/9
f 112/120/9 114/122/9 115/123/9 113/121/9
f 114/122/9 116/124/9 117/125/9 115/123/9
f 116/124/9 118/126/9 119/127/9 117/125/9
f 118/126/9 120/128/9 121/129/9 119/127/9
f 120/128/9 44/46/9 1/49/9 121/129/9
f 25/25/23 28/28/22 122/130/45 42/44/46
f 28/28/22 123/131/47 124/132/48 122/130/45
f 123/131/47 125/133/49 126/134/50 124/132/48
f 125/133/49 127/135/51 128/136/52 126/134/50
f 127/135/51 129/137/53 130/138/54 128/136/52
f 129/137/53 131/139/55 132/140/56 130/138/54
f 131/139/55 133/141/57 134/142/58 132/140/56
f 133/141/57 135/143/59 136/144/60 134/142/58
f 135/143/59 137/145/61 138/146/62 136/144/60
f 137/145/61 139/147/63 140/148/64 138/146/62
f 139/147/63 141/149/65 142/150/66 140/148/64
f 141/149/65 143/151/67 144/152/68 142/150/66
f 143/151/67 145/153/69 146/154/70 144/152/68
f 145/153/69 147/155/71 148/156/72 146/154/70
f 147/155/71 149/157/73 150/158/74 148/156/72
f 149/157/73 151/159/75 152/160/76 150/158/74
f 151/159/75 153/161/77 154/162/78 152/160/76
f 153/161/77 155/163/79 156/164/80 154/162/78
f 155/163/79 157/165/81 158/166/82 156/164/80
f 157/165/81 159/167/83 160/168/84 158/166/82
f 159/167/83 161/169/85 162/170/86 160/168/84
f 161/169/85 163/171/87 164/172/88 162/170/86
f 163/171/87 165/173/89 166/174/90 164/172/88
f 165/173/89 167/175/91 168/176/92 166/174/90
f 167/175/91 169/177/93 170/178/94 168/176/92
f 169/177/93 171/179/95 172/180/96 170/178/94
f 171/179/95 173/181/97 174/182/98 172/180/96
f 173/181/97 175/183/99 176/184/100 174/182/98
f 175/183/99 177/185/101 178/186/102 176/184/100
f 177/185/101 179/187/103 180/188/104 178/186/102
f 179/187/103 181/189/105 182/190/106 180/188/104
f 181/189/105 183/191/107 184/192/108 182/190/106
f 183/191/107 185/193/109 186/194/110 184/192/108
f 185/193/109 187/195/111 188/196/112 186/194/110
f 187/195/111 189/197/113 190/198/114 188/196/112
f 189/197/113 191/199/115 192/200/116 190/198/114
f 191/199/115 193/201/117 194/202/118 192/200/116
f 193/201/117 195/203/119 196/204/120 194/202/118
f 195/203/119 197/205/121 198/206/122 196/204/120
f 197/205/121 43/45/41 29/29/44 198/206/122
f 11/207/9 10/208/9 31/209/9 32/210/9
f 32/210/9 31/209/9 199/211/9 200/212/9
f 200/212/9 199/211/9 201/213/9 202/214/9
f 202/214/9 201/213/9 203/215/9 204/216/9
f 204/216/9 203/215/9 205/217/9 206/218/9
f 206/218/9 205/217/9 207/219/9 208/220/9
f 208/220/9 207/219/9 209/221/9 210/222/9
f 210/222/9 209/221/9 211/223/9 212/224/9
f 212/224/9 211/223/9 213/225/9 214/226/9
f 214/226/9 213/225/9 215/227/9 216/228/9
f 216/228/9 215/227/9 217/229/9 218/230/9
f 218/230/9 217/229/9 219/231/9 220/232/9
f 220/232/9 219/231/9 221/233/9 222/234/9
f 222/234/9 221/233/9 223/235/9 224/236/9
f 224/236/9 223/235/9 225/237/9 226/238/9
f 226/238/9 225/237/9 227/239/9 228/240/9
f 228/240/9 227/239/9 229/241/9 230/242/9
f 230/242/9 229/241/9 231/243/9 232/244/9
f 232/244/9 231/243/9 233/245/9 234/246/9
f 234/246/9 233/245/9 235/247/9 236/248/9
f 236/248/9 235/247/9 237/249/9 238/250/9
f 238/250/9 237/249/9 239/251/9 240/252/9
f 240/252/9 239/251/9 241/253/9 242/254/9
f 242/254/9 241/253/9 243/255/9 244/256/9
f 244/256/9 243/255/9 245/257/9 246/258/9
f 246/258/9 245/257/9 247/259/9 248/260/9
f 248/260/9 247/259/9 249/261/9 250/262/9
f 250/262/9 249/261/9 251/263/9 252/264/9
f 252/264/9 251/263/9 253/265/9 254/266/9
f 254/266/9 253/265/9 255/267/9 256/268/9
f 256/268/9 255/267/9 257/269/9 258/270/9
f 258/270/9 257/269/9 259/271/9 260/272/9
f 260/272/9 259/271/9 261/273/9 262/274/9
f 262/274/9 261/273/9 263/275/9 264/276/9
f 264/276/9 263/275/9 265/277/9 266/278/9
f 266/278/9 265/277/9 267/279/9 268/280/9
f 268/280/9 267/279/9 269/281/9 270/282/9
f 270/282/9 269/281/9 271/283/9 272/284/9
f 272/284/9 271/283/9 273/285/9 274/286/9
f 274/286/9 273/285/9 41/41/9 40/40/9
f 6/6/5 5/5/4 34/34/123 33/33/124
f 5/5/4 275/287/125 276/288/126 34/34/123
f 275/287/125 277/289/127 278/290/128 276/288/126
f 277/289/127 279/291/129 280/292/130 278/290/128
f 279/291/129 281/293/131 282/294/132 280/292/130
f 281/293/131 283/295/133 284/296/134 282/294/132
f 283/295/133 285/297/135 286/298/136 284/296/134
f 285/297/135 287/299/137 288/300/138 286/298/136
f 287/299/137 289/301/139 290/302/140 288/300/138
f 289/301/139 291/303/141 292/304/142 290/302/140
f 291/303/141 293/305/143 294/306/144 292/304/142
f 293/305/143 295/307/145 296/308/146 294/306/144
f 295/307/145 297/309/147 298/310/148 296/308/146
f 297/309/147 299/311/149 300/312/150 298/310/148
f 299/311/149 301/313/151 302/314/152 300/312/150
f 301/313/151 303/315/153 304/316/154 302/314/152
f 303/315/153 305/317/155 306/318/156 304/316/154
f 305/317/155 307/319/157 308/320/158 306/318/156
f 307/319/157 309/321/159 310/322/160 308/320/158
f 309/321/159 311/323/161 312/324/162 310/322/160
f 311/323/161 313/325/163 314/326/164 312/324/162
f 313/325/163 315/327/165 316/328/166 314/326/164
f 315/327/165 317/329/167 318/330/168 316/328/166
f 317/329/167 319/331/169 320/332/170 318/330/168
f 319/331/169 321/333/171 322/334/172 320/332/170
f 321/333/171 323/335/173 324/336/174 322/334/172
f 323/335/173 325/337/175 326/338/176 324/336/174
f 325/337/175 327/339/177 328/340/178 326/338/176
f 327/339/177 329/341/179 330/342/180 328/340/178
f 329/341/179 331/343/181 332/344/182 330/342/180
f 331/343/181 333/345/183 334/346/184 332/344/182
f 333/345/183 335/347/185 336/348/186 334/346/184
f 335/347/185 337/349/187 338/350/188 336/348/186
f 337/349/187 339/351/189 340/352/190 338/350/188
f 339/351/189 341/353/191 342/354/192 340/352/190
f 341/353/191 343/355/193 344/356/194 342/354/192
f 343/355/193 345/357/195 346/358/196 344/356/194
f 345/357/195 347/359/197 348/360/198 346/358/196
f 347/359/197 349/361/199 350/362/200 348/360/198
f 349/361/199 37/37/34 39/39/37 350/362/200
f 35/35/201 40/363/202 39/39/202 38/38/201
f 40/363/202 274/364/203 350/362/203 39/39/202
f 274/364/203 272/365/204 348/360/204 350/362/203
f 272/365/204 270/366/205 346/358/206 348/360/204
f 270/366/205 268/367/207 344/356/208 346/358/206
f 268/367/207 266/368/209 342/354/210 344/356/208
f 266/368/209 264/369/211 340/352/212 342/354/210
f 264/369/211 262/370/213 338/350/214 340/352/212
f 262/370/213 260/371/215 336/348/216 338/350/214
f 260/371/215 258/372/217 334/346/218 336/348/216
f 258/372/217 256/373/219 332/344/220 334/346/218
f 256/373/219 254/374/221 330/342/222 332/344/220
f 254/374/221 252/375/223 328/340/224 330/342/222
f 252/375/223 250/376/225 326/338/226 328/340/224
f 250/376/225 248/377/227 324/336/228 326/338/226
f 248/377/227 246/378/229 322/334/230 324/336/228
f 246/378/229 244/379/231 320/332/232 322/334/230
f 244/379/231 242/380/233 318/330/234 320/332/232
f 242/380/233 240/381/235 316/328/236 318/330/234
f 240/381/235 238/382/237 314/326/238 316/328/236
f 238/382/237 236/383/239 312/324/240 314/326/238
f 236/383/239 234/384/241 310/322/242 312/324/240
f 234/384/241 232/385/243 308/320/244 310/322/242
f 232/385/243 230/386/245 306/318/246 308/320/244
f 230/386/245 228/387/247 304/316/248 306/318/246
f 228/387/247 226/388/249 302/314/250 304/316/248
f 226/388/249 224/389/251 300/312/252 302/314/250
f 224/389/251 222/390/253 298/310/254 300/312/252
f 222/390/253 220/391/255 296/308/256 298/310/254
f 220/391/255 218/392/257 294/306/258 296/308/256
f 218/392/257 216/393/259 292/304/260 294/306/258
f 216/393/259 214/394/261 290/302/262 292/304/260
f 214/394/261 212/395/263 288/300/263 290/302/262
f 212/395/263 210/396/264 286/298/265 288/300/263
f 210/396/264 208/397/266 284/296/267 286/298/265
f 208/397/266 206/398/268 282/294/269 284/296/267
f 206/398/268 204/399/270 280/292/271 282/294/269
f 204/399/270 202/400/272 278/290/273 280/292/271
f 202/400/272 200/401/274 276/288/275 278/290/273
f 200/401/274 32/32/29 34/34/31 276/288/275
f 42/44/276 122/130/277 41/402/278 36/36/276
f 122/130/277 124/132/279 273/403/280 41/402/278
f 124/132/279 126/134/281 271/404/282 273/403/280
f 126/134/281 128/136/283 269/405/284 271/404/282
f 128/136/283 130/138/285 267/406/286 269/405/284
f 130/138/285 132/140/287 265/407/288 267/406/286
f 132/140/287 134/142/289 263/408/290 265/407/288
f 134/142/289 136/144/291 261/409/292 263/408/290
f 136/144/291 138/146/293 259/410/294 261/409/292
f 138/146/293 140/148/295 257/411/296 259/410/294
f 140/148/295 142/150/297 255/412/298 257/411/296
f 142/150/297 144/152/299 253/413/300 255/412/298
f 144/152/299 146/154/301 251/414/302 253/413/300
f 146/154/301 148/156/303 249/415/304 251/414/302
f 148/156/303 150/158/305 247/416/306 249/415/304
f 150/158/305 152/160/307 245/417/308 247/416/306
f 152/160/307 154/162/309 243/418/310 245/417/308
f 154/162/309 156/164/311 241/419/312 243/418/310
f 156/164/311 158/166/313 239/420/314 241/419/312
f 158/166/313 160/168/315 237/421/316 239/420/314
f 160/168/315 162/170/317 235/422/318 237/421/316
f 162/170/317 164/172/319 233/423/320 235/422/318
f 164/172/319 166/174/321 231/424/322 233/423/320
f 166/174/321 168/176/323 229/425/324 231/424/322
f 168/176/323 170/178/325 227/426/326 229/425/324
f 170/178/325 172/180/327 225/427/328 227/426/326
f 172/180/327 174/182/329 223/428/330 225/427/328
f 174/182/329 176/184/331 221/429/332 223/428/330
f 176/184/331 178/186/333 219/430/334 221/429/332
f 178/186/333 180/188/335 217/431/336 219/430/334
f 180/188/335 182/190/337 215/432/338 217/431/336
f 182/190/337 184/192/339 213/433/340 215/432/338
f 184/192/339 186/194/341 211/434/341 213/433/340
f 186/194/341 188/196/342 209/435/343 211/434/341
f 188/196/342 190/198/344 207/436/344 209/435/343
f 190/198/344 192/200/345 205/437/346 207/436/344
f 192/200/345 194/202/347 203/438/348 205/437/346
f 194/202/347 196/204/349 201/439/350 203/438/348
f 196/204/349 198/206/351 199/440/352 201/439/350
f 198/206/351 29/29/26 31/31/28 199/440/352
f 22/22/42 43/45/41 351/441/353 23/23/354
f 43/45/41 197/205/121 352/442/355 351/441/353
f 197/205/121 195/203/119 353/443/356 352/442/355
f 195/203/119 193/201/117 354/444/357 353/443/356
f 193/201/117 191/199/115 355/445/358 354/444/357
f 191/199/115 189/197/113 356/446/359 355/445/358
f 189/197/113 187/195/111 357/447/360 356/446/359
f 187/195/111 185/193/109 358/448/361 357/447/360
f 185/193/109 183/191/107 359/449/362 358/448/361
f 183/191/107 181/189/105 360/450/363 359/449/362
f 181/189/105 179/187/103 361/451/364 360/450/363
f 179/187/103 177/185/101 362/452/365 361/451/364
f 177/185/101 175/183/99 363/453/366 362/452/365
f 175/183/99 173/181/97 364/454/367 363/453/366
f 173/181/97 171/179/95 365/455/368 364/454/367
f 171/179/95 169/177/93 366/456/369 365/455/368
f 169/177/93 167/175/91 367/457/370 366/456/369
f 167/175/91 165/173/89 368/458/371 367/457/370
f 165/173/89 163/171/87 369/459/372 368/458/371
f 163/171/87 161/169/85 370/460/373 369/459/372
f 161/169/85 159/167/83 371/461/374 370/460/373
f 159/167/83 157/165/81 372/462/375 371/461/374
f 157/165/81 155/163/79 373/463/376 372/462/375
f 155/163/79 153/161/77 374/464/377 373/463/376
f 153/161/77 151/159/75 375/465/378 374/464/377
f 151/159/75 149/157/73 376/466/379 375/465/378
f 149/157/73 147/155/71 377/467/380 376/466/379
f 147/155/71 145/153/69 378/468/381 377/467/380
f 145/153/69 143/151/67 379/469/382 378/468/381
f 143/151/67 141/149/65 380/470/383 379/469/382
f 141/149/65 139/147/63 381/471/384 380/470/383
f 139/147/63 137/145/61 382/472/385 381/471/384
f 137/145/61 135/143/59 383/473/386 382/472/385
f 135/143/59 133/141/57 384/474/387 383/473/386
f 133/141/57 131/139/55 385/475/388 384/474/387
f 131/139/55 129/137/53 386/476/389 385/475/388
f 129/137/53 127/135/51 387/477/390 386/476/389
f 127/135/51 125/133/49 388/478/391 387/477/390
f 125/133/49 123/131/47 389/479/392 388/478/391
f 123/131/47 28/28/22 13/13/25 389/479/392
f 9/9/393 44/480/394 390/481/395 27/27/393
f 44/480/394 120/482/396 391/483/397 390/481/395
f 120/482/396 118/484/398 392/485/399 391/483/397
f 118/484/398 116/486/400 393/487/401 392/485/399
f 116/486/400 114/488/402 394/489/403 393/487/401
f 114/488/402 112/490/404 395/491/405 394/489/403
f 112/490/404 110/492/406 396/493/407 395/491/405
f 110/492/406 108/494/408 397/495/409 396/493/407
f 108/494/408 106/496/410 398/497/411 397/495/409
f 106/496/410 104/498/412 399/499/413 398/497/411
f 104/498/412 102/500/414 400/501/415 399/499/413
f 102/500/414 100/502/416 401/503/417 400/501/415
f 100/502/416 98/504/418 402/505/419 401/503/417
f 98/504/418 96/506/420 403/507/421 402/505/419
f 96/506/420 94/508/422 404/509/423 403/507/421
f 94/508/422 92/510/424 405/511/425 404/509/423
f 92/510/424 90/512/426 406/513/427 405/511/425
f 90/512/426 88/514/428 407/515/429 406/513/427
f 88/514/428 86/516/430 408/517/431 407/515/429
f 86/516/430 84/518/432 409/519/432 408/517/431
f 84/518/432 82/520/433 410/521/434 409/519/432
f 82/520/433 80/522/435 411/523/436 410/521/434
f 80/522/435 78/524/437 412/525/438 411/523/436
f 78/524/437 76/526/439 413/527/440 412/525/438
f 76/526/439 74/528/441 414/529/442 413/527/440
f 74/528/441 72/530/443 415/531/444 414/529/442
f 72/530/443 70/532/445 416/533/446 415/531/444
f 70/532/445 68/534/447 417/535/448 416/533/446
f 68/534/447 66/536/449 418/537/450 417/535/448
f 66/536/449 64/538/451 419/539/452 418/537/450
f 64/538/451 62/540/453 420/541/454 419/539/452
f 62/540/453 60/542/455 421/543/456 420/541/454
f 60/542/455 58/544/457 422/545/458 421/543/456
f 58/544/457 56/546/459 423/547/459 422/545/458
f 56/546/459 54/548/460 424/549/461 423/547/459
f 54/548/460 52/550/462 425/551/463 424/549/461
f 52/550/462 50/552/464 426/553/465 425/551/463
f 50/552/464 48/554/466 427/555/467 426/553/465
f 48/554/466 46/556/468 428/557/469 427/555/467
f 46/556/468 24/24/14 17/17/16 428/557/469
f 7/7/9 27/27/9 390/481/9 8/8/9
f 8/8/9 390/481/9 391/483/9 429/558/9
f 429/558/9 391/483/9 392/485/9 430/559/9
f 430/559/9 392/485/9 393/487/9 431/560/9
f 431/560/9 393/487/9 394/489/9 432/561/9
f 432/561/9 394/489/9 395/491/9 433/562/9
f 433/562/9 395/491/9 396/493/9 434/563/9
f 434/563/9 396/493/9 397/495/9 435/564/9
f 435/564/9 397/495/9 398/497/9 436/565/9
f 436/565/9 398/497/9 399/499/9 437/566/9
f 437/566/9 399/499/9 400/501/9 438/567/9
f 438/567/9 400/501/9 401/503/9 439/568/9
f 439/568/9 401/503/9 402/505/9 440/569/9
f 440/569/9 402/505/9 403/507/9 441/570/9
f 441/570/9 403/507/9 404/509/9 442/571/9
f 442/571/9 404/509/9 405/511/9 443/572/9
f 443/572/9 405/511/9 406/513/9 444/573/9
f 444/573/9 406/513/9 407/515/9 445/574/9
f 445/574/9 407/515/9 408/517/9 446/575/9
f 446/575/9 408/517/9 409/519/9 447/576/9
f 447/576/9 409/519/9 410/521/9 448/577/9
f 448/577/9 410/521/9 411/523/9 449/578/9
f 449/578/9 411/523/9 412/525/9 450/579/9
f 450/579/9 412/525/9 413/527/9 451/580/9
f 451/580/9 413/527/9 414/529/9 452/581/9
f 452/581/9 414/529/9 415/531/9 453/582/9
f 453/582/9 415/531/9 416/533/9 454/583/9
f 454/583/9 416/533/9 417/535/9 455/584/9
f 455/584/9 417/535/9 418/537/9 456/585/9
f 456/585/9 418/537/9 419/539/9 457/586/9
f 457/586/9 419/539/9 420/541/9 458/587/9
f 458/587/9 420/541/9 421/543/9 459/588/9
f 459/588/9 421/543/9 422/545/9 460/589/9
f 460/589/9 422/545/9 423/547/9 461/590/9
f 461/590/9 423/547/9 424/549/9 462/591/9
f 462/591/9 424/549/9 425/551/9 463/592/9
f 463/592/9 425/551/9 426/553/9 464/593/9
f 464/593/9 426/553/9 427/555/9 465/594/9
f 465/594/9 427/555/9 428/557/9 466/595/9
f 466/595/9 428/557/9 17/17/9 16/16/9
f 3/3/9 23/23/9 351/441/9 4/4/9
f 4/4/9 351/441/9 352/442/9 467/596/9
f 467/596/9 352/442/9 353/443/9 468/597/9
f 468/597/9 353/443/9 354/444/9 469/598/9
f 469/598/9 354/444/9 355/445/9 470/599/9
f 470/599/9 355/445/9 356/446/9 471/600/9
f 471/600/9 356/446/9 357/447/9 472/601/9
f 472/601/9 357/447/9 358/448/9 473/602/9
f 473/602/9 358/448/9 359/449/9 474/603/9
f 474/603/9 359/449/9 360/450/9 475/604/9
f 475/604/9 360/450/9 361/451/9 476/605/9
f 476/605/9 361/451/9 362/452/9 477/606/9
f 477/606/9 362/452/9 363/453/9 478/607/9
f 478/607/9 363/453/9 364/454/9 479/608/9
f 479/608/9 364/454/9 365/455/9 480/609/9
f 480/609/9 365/455/9 366/456/9 481/610/9
f 481/610/9 366/456/9 367/457/9 482/611/9
f 482/611/9 367/457/9 368/458/9 483/612/9
f 483/612/9 368/458/9 369/459/9 484/613/9
f 484/613/9 369/459/9 370/460/9 485/614/9
f 485/614/9 370/460/9 371/461/9 486/615/9
f 486/615/9 371/461/9 372/462/9 487/616/9
f 487/616/9 372/462/9 373/463/9 488/617/9
f 488/617/9 373/463/9 374/464/9 489/618/9
f 489/618/9 374/464/9 375/465/9 490/619/9
f 490/619/9 375/465/9 376/466/9 491/620/9
f 491/620/9 376/466/9 377/467/9 492/621/9
f 492/621/9 377/467/9 378/468/9 493/622/9
f 493/622/9 378/468/9 379/469/9 494/623/9
f 494/623/9 379/469/9 380/470/9 495/624/9
f 495/624/9 380/470/9 381/471/9 496/625/9
f 496/625/9 381/471/9 382/472/9 497/626/9
f 497/626/9 382/472/9 383/473/9 498/627/9
f 498/627/9 383/473/9 384/474/9 499/628/9
f 499/628/9 384/474/9 385/475/9 500/629/9
f 500/629/9 385/475/9 386/476/9 501/630/9
f 501/630/9 386/476/9 387/477/9 502/631/9
f 502/631/9 387/477/9 388/478/9 503/632/9
f 503/632/9 388/478/9 389/479/9 504/633/9
f 504/633/9 389/479/9 13/13/9 12/12/9
f 21/21/35 37/37/34 16/16/470 19/19/471
f 37/37/34 349/361/199 466/595/472 16/16/470
f 349/361/199 347/359/197 465/594/473 466/595/472
f 347/359/197 345/357/195 464/593/474 465/594/473
f 345/357/195 343/355/193 463/592/475 464/593/474
f 343/355/193 341/353/191 462/591/476 463/592/475
f 341/353/191 339/351/189 461/590/477 462/591/476
f 339/351/189 337/349/187 460/589/478 461/590/477
f 337/349/187 335/347/185 459/588/479 460/589/478
f 335/347/185 333/345/183 458/587/480 459/588/479
f 333/345/183 331/343/181 457/586/481 458/587/480
f 331/343/181 329/341/179 456/585/482 457/586/481
f 329/341/179 327/339/177 455/584/483 456/585/482
f 327/339/177 325/337/175 454/583/484 455/584/483
f 325/337/175 323/335/173 453/582/485 454/583/484
f 323/335/173 321/333/171 452/581/486 453/582/485
f 321/333/171 319/331/169 451/580/487 452/581/486
f 319/331/169 317/329/167 450/579/488 451/580/487
f 317/329/167 315/327/165 449/578/489 450/579/488
f 315/327/165 313/325/163 448/577/490 449/578/489
f 313/325/163 311/323/161 447/576/491 448/577/490
f 311/323/161 309/321/159 446/575/492 447/576/491
f 309/321/159 307/319/157 445/574/493 446/575/492
f 307/319/157 305/317/155 444/573/494 445/574/493
f 305/317/155 303/315/153 443/572/495 444/573/494
f 303/315/153 301/313/151 442/571/496 443/572/495
f 301/313/151 299/311/149 441/570/497 442/571/496
f 299/311/149 297/309/147 440/569/498 441/570/497
f 297/309/147 295/307/145 439/568/499 440/569/498
f 295/307/145 293/305/143 438/567/500 439/568/499
f 293/305/143 291/303/141 437/566/501 438/567/500
f 291/303/141 289/301/139 436/565/502 437/566/501
f 289/301/139 287/299/137 435/564/503 436/565/502
f 287/299/137 285/297/135 434/563/504 435/564/503
f 285/297/135 283/295/133 433/562/505 434/563/504
f 283/295/133 281/293/131 432/561/506 433/562/505
f 281/293/131 279/291/129 431/560/507 432/561/506
f 279/291/129 277/289/127 430/559/508 431/560/507
f 277/289/127 275/287/125 429/558/509 430/559/508
f 275/287/125 5/5/4 8/8/7 429/558/509
f 26/26/510 45/634/511 12/12/512 15/15/510
f 45/634/511 47/635/513 504/633/514 12/12/512
f 47/635/513 49/636/515 503/632/516 504/633/514
f 49/636/515 51/637/517 502/631/518 503/632/516
f 51/637/517 53/638/519 501/630/520 502/631/518
f 53/638/519 55/639/521 500/629/522 501/630/520
f 55/639/521 57/640/523 499/628/524 500/629/522
f 57/640/523 59/641/525 498/627/525 499/628/524
f 59/641/525 61/642/526 497/626/527 498/627/525
f 61/642/526 63/643/528 496/625/529 497/626/527
f 63/643/528 65/644/530 495/624/531 496/625/529
f 65/644/530 67/645/532 494/623/533 495/624/531
f 67/645/532 69/646/534 493/622/535 494/623/533
f 69/646/534 71/647/536 492/621/537 493/622/535
f 71/647/536 73/648/538 491/620/539 492/621/537
f 73/648/538 75/649/540 490/619/541 491/620/539
f 75/649/540 77/650/542 489/618/543 490/619/541
f 77/650/542 79/651/544 488/617/545 489/618/543
f 79/651/544 81/652/546 487/616/547 488/617/545
f 81/652/546 83/653/548 486/615/549 487/616/547
f 83/653/548 85/654/550 485/614/551 486/615/549
f 85/654/550 87/655/552 484/613/553 485/614/551
f 87/655/552 89/656/554 483/612/555 484/613/553
f 89/656/554 91/657/556 482/611/557 483/612/555
f 91/657/556 93/658/558 481/610/559 482/611/557
f 93/658/558 95/659/560 480/609/561 481/610/559
f 95/659/560 97/660/562 479/608/563 480/609/561
f 97/660/562 99/661/564 478/607/565 479/608/563
f 99/661/564 101/662/566 477/606/567 478/607/565
f 101/662/566 103/663/568 476/605/569 477/606/567
f 103/663/568 105/664/570 475/604/571 476/605/569
f 105/664/570 107/665/572 474/603/573 475/604/571
f 107/665/572 109/666/574 473/602/575 474/603/573
f 109/666/574 111/667/576 472/601/577 473/602/575
f 111/667/576 113/668/578 471/600/579 472/601/577
f 113/668/578 115/669/580 470/599/581 471/600/579
f 115/669/580 117/670/582 469/598/583 470/599/581
f 117/670/582 119/671/584 468/597/585 469/598/583
f 119/671/584 121/672/586 467/596/587 468/597/585
f 121/672/586 1/1/1 4/4/3 467/596/587
