# Blender v3.1.2 OBJ File: ''
# www.blender.org
mtllib new6.mtl
o FLAT_STRAIGHT_Plane
v 5.871862 1.212143 -3.155086
v 5.871862 1.212142 3.155087
v 5.977298 1.777619 3.155087
v 5.977298 1.777619 -3.155086
v -5.871862 1.212142 3.155087
v 5.871862 -0.041651 3.155086
v -5.871862 -0.041651 3.155086
v 6.204737 1.777619 3.155087
v 6.204737 1.777619 -3.155086
v -5.871862 1.212143 -3.155086
v 6.310173 1.212142 3.155087
v 6.310173 1.212143 -3.155086
v 6.310173 0.581660 -3.155086
v 6.310173 0.581658 3.155086
v 5.871862 -0.041649 -3.155086
v -5.871862 -0.041649 -3.155086
vt 0.982908 0.000369
vt 0.982908 0.931761
vt 0.969302 0.931761
vt 0.969302 0.000369
vt 0.954341 0.000369
vt 0.954342 0.433717
vt 0.911897 0.433717
vt 0.911897 0.000369
vt 0.991962 0.000369
vt 0.999662 0.000369
vt 0.999661 0.931761
vt 0.991962 0.931761
vt 0.030692 0.953366
vt 0.015854 0.953366
vt 0.019423 0.932499
vt 0.027123 0.932499
vt 0.031369 0.978765
vt 0.046207 0.978765
vt 0.042638 0.999631
vt 0.034938 0.999631
vt 0.810426 0.000369
vt 0.810426 0.931761
vt 0.796820 0.931761
vt 0.796820 0.000369
vt 0.827885 0.931761
vt 0.827885 0.000369
vt 0.853681 0.000369
vt 0.853681 0.931761
vt 0.954341 0.434455
vt 0.954342 0.867804
vt 0.911897 0.867804
vt 0.911897 0.434455
vt 0.030692 0.999631
vt 0.015854 0.976631
vt 0.398579 0.000369
vt 0.796142 0.000369
vt 0.796142 0.931761
vt 0.398579 0.931761
vt 0.031369 0.955500
vt 0.046207 0.932499
vt 0.000339 0.000369
vt 0.000339 0.931761
vt 0.397902 0.000369
vt 0.397902 0.931761
vn -0.9831 0.1833 0.0000
vn 0.7071 0.0000 -0.7071
vn 0.0000 0.0000 -1.0000
vn 0.5774 0.5774 -0.5774
vn 0.0000 1.0000 0.0000
vn 0.0000 -0.0000 1.0000
vn 0.9958 0.0920 0.0000
vn 0.9831 0.1833 0.0000
vn 0.8180 -0.5752 -0.0000
vn 0.7071 -0.0000 0.7071
vn 0.5774 0.5774 0.5774
vn 1.0000 0.0000 0.0000
usemtl FLAT_STRAIGHT
s 1
f 1/1/1 2/2/1 3/3/1 4/4/1
f 5/5/2 2/6/3 6/7/3 7/8/4
f 3/9/5 8/10/5 9/11/5 4/12/5
f 2/13/6 11/14/6 8/15/6 3/16/6
f 12/17/3 1/18/3 4/19/3 9/20/3
f 11/21/7 12/22/7 9/23/8 8/24/8
f 13/25/9 14/26/9 6/27/9 15/28/9
f 1/29/6 10/30/10 16/31/11 15/32/6
f 11/14/6 2/13/6 6/33/6 14/34/6
f 7/35/4 6/36/5 15/37/5 16/38/11
f 1/18/3 12/17/3 13/39/3 15/40/3
f 7/35/4 16/38/11 10/30/10 5/41/2
f 12/22/7 11/21/7 14/26/12 13/25/12
f 10/42/5 5/41/5 2/43/5 1/44/5
