# Blender v3.1.2 OBJ File: ''
# www.blender.org
mtllib E.mtl
o Curve.011_Curve.016
v 0.008796 0.000000 -0.005816
v 0.008796 0.000000 -0.007225
v 0.000089 0.000000 -0.007225
v 0.000089 0.000000 -0.001812
v 0.000100 0.000000 -0.001639
v 0.000134 0.000000 -0.001472
v 0.000189 0.000000 -0.001314
v 0.000263 0.000000 -0.001167
v 0.000355 0.000000 -0.001031
v 0.000463 0.000000 -0.000908
v 0.000586 0.000000 -0.000800
v 0.000722 0.000000 -0.000708
v 0.000870 0.000000 -0.000634
v 0.001028 0.000000 -0.000579
v 0.001194 0.000000 -0.000545
v 0.001368 0.000000 -0.000533
v 0.001514 0.000000 -0.000533
v 0.001918 0.000000 -0.000533
v 0.002528 0.000000 -0.000533
v 0.003294 0.000000 -0.000533
v 0.004162 0.000000 -0.000533
v 0.005082 0.000000 -0.000533
v 0.006002 0.000000 -0.000533
v 0.006870 0.000000 -0.000533
v 0.007635 0.000000 -0.000533
v 0.008246 0.000000 -0.000533
v 0.008650 0.000000 -0.000533
v 0.008796 0.000000 -0.000533
v 0.008796 0.000000 -0.001943
v 0.002763 0.000000 -0.001943
v 0.002763 0.000000 -0.003175
v 0.008796 0.000000 -0.003175
v 0.008796 0.000000 -0.004584
v 0.002763 0.000000 -0.004584
v 0.002763 0.000000 -0.005816
v 0.008796 0.002056 -0.005816
v 0.008796 0.002056 -0.007225
v 0.000089 0.002056 -0.007225
v 0.000089 0.002056 -0.001812
v 0.000100 0.002056 -0.001639
v 0.000134 0.002056 -0.001472
v 0.000189 0.002056 -0.001314
v 0.000263 0.002056 -0.001167
v 0.000355 0.002056 -0.001031
v 0.000463 0.002056 -0.000908
v 0.000586 0.002056 -0.000800
v 0.000722 0.002056 -0.000708
v 0.000870 0.002056 -0.000634
v 0.001028 0.002056 -0.000579
v 0.001194 0.002056 -0.000545
v 0.001368 0.002056 -0.000533
v 0.001514 0.002056 -0.000533
v 0.001918 0.002056 -0.000533
v 0.002528 0.002056 -0.000533
v 0.003294 0.002056 -0.000533
v 0.004162 0.002056 -0.000533
v 0.005082 0.002056 -0.000533
v 0.006002 0.002056 -0.000533
v 0.006870 0.002056 -0.000533
v 0.007635 0.002056 -0.000533
v 0.008246 0.002056 -0.000533
v 0.008650 0.002056 -0.000533
v 0.008796 0.002056 -0.000533
v 0.008796 0.002056 -0.001943
v 0.002763 0.002056 -0.001943
v 0.002763 0.002056 -0.003175
v 0.008796 0.002056 -0.003175
v 0.008796 0.002056 -0.004584
v 0.002763 0.002056 -0.004584
v 0.002763 0.002056 -0.005816
vt 0.088235 0.000000
vt 0.058824 0.000000
vt 1.000000 0.000000
vt 0.029412 0.000000
vt 0.000000 0.000000
vt 0.970588 0.000000
vt 0.882353 0.000000
vt 0.941176 0.000000
vt 0.911765 0.000000
vt 0.852941 0.000000
vt 0.823529 0.000000
vt 0.794118 0.000000
vt 0.117647 0.000000
vt 0.147059 0.000000
vt 0.176471 0.000000
vt 0.205882 0.000000
vt 0.235294 0.000000
vt 0.264706 0.000000
vt 0.294118 0.000000
vt 0.323529 0.000000
vt 0.352941 0.000000
vt 0.382353 0.000000
vt 0.411765 0.000000
vt 0.441176 0.000000
vt 0.470588 0.000000
vt 0.500000 0.000000
vt 0.529412 0.000000
vt 0.558824 0.000000
vt 0.588235 0.000000
vt 0.617647 0.000000
vt 0.647059 0.000000
vt 0.676471 0.000000
vt 0.705882 0.000000
vt 0.735294 0.000000
vt 0.764706 0.000000
vt 0.088235 0.000000
vt 1.000000 0.000000
vt 0.058824 0.000000
vt 0.029412 0.000000
vt 0.000000 0.000000
vt 0.970588 0.000000
vt 0.882353 0.000000
vt 0.941176 0.000000
vt 0.911765 0.000000
vt 0.852941 0.000000
vt 0.823529 0.000000
vt 0.794118 0.000000
vt 0.117647 0.000000
vt 0.147059 0.000000
vt 0.176471 0.000000
vt 0.205882 0.000000
vt 0.235294 0.000000
vt 0.264706 0.000000
vt 0.294118 0.000000
vt 0.323529 0.000000
vt 0.352941 0.000000
vt 0.382353 0.000000
vt 0.411765 0.000000
vt 0.441176 0.000000
vt 0.470588 0.000000
vt 0.500000 0.000000
vt 0.529412 0.000000
vt 0.558824 0.000000
vt 0.588235 0.000000
vt 0.617647 0.000000
vt 0.647059 0.000000
vt 0.676471 0.000000
vt 0.705882 0.000000
vt 0.735294 0.000000
vt 0.764706 0.000000
vn 0.0000 -1.0000 0.0000
vn 0.0000 0.0000 1.0000
vn 0.0000 1.0000 0.0000
vn 0.0000 0.0000 -1.0000
vn -0.9797 0.0000 0.2003
vn -0.4485 0.0000 0.8938
vn -0.9446 0.0000 0.3282
vn -0.3282 0.0000 0.9446
vn -1.0000 0.0000 0.0000
vn -0.8937 0.0000 0.4486
vn 1.0000 0.0000 0.0000
vn -0.2002 0.0000 0.9798
vn -0.8286 0.0000 0.5598
vn -0.0671 0.0000 0.9977
vn -0.7506 0.0000 0.6607
vn -0.6607 0.0000 0.7507
vn -0.9977 0.0000 0.0672
vn -0.5597 0.0000 0.8287
usemtl SVGMat.014
s off
f 4/1/1 3/2/1 35/3/1
f 35/3/1 3/2/1 2/4/1
f 35/3/1 2/4/1 1/5/1
f 4/1/1 35/3/1 34/6/1
f 4/1/1 34/6/1 31/7/1
f 31/7/1 34/6/1 33/8/1
f 31/7/1 33/8/1 32/9/1
f 4/1/1 31/7/1 30/10/1
f 4/1/1 30/10/1 29/11/1
f 4/1/1 29/11/1 28/12/1
f 5/13/1 4/1/1 28/12/1
f 6/14/1 5/13/1 28/12/1
f 7/15/1 6/14/1 28/12/1
f 8/16/1 7/15/1 28/12/1
f 9/17/1 8/16/1 28/12/1
f 10/18/1 9/17/1 28/12/1
f 11/19/1 10/18/1 28/12/1
f 12/20/1 11/19/1 28/12/1
f 13/21/1 12/20/1 28/12/1
f 14/22/1 13/21/1 28/12/1
f 15/23/1 14/22/1 28/12/1
f 16/24/1 15/23/1 28/12/1
f 17/25/2 16/24/2 28/12/2
f 18/26/2 17/25/2 28/12/2
f 19/27/2 18/26/2 28/12/2
f 20/28/2 19/27/2 28/12/2
f 21/29/2 20/28/2 28/12/2
f 22/30/2 21/29/2 28/12/2
f 23/31/2 22/30/2 28/12/2
f 24/32/2 23/31/2 28/12/2
f 25/33/2 24/32/2 28/12/2
f 26/34/2 25/33/2 28/12/2
f 27/35/2 26/34/2 28/12/2
f 39/36/3 70/37/3 38/38/3
f 70/37/3 37/39/3 38/38/3
f 70/37/3 36/40/3 37/39/3
f 39/36/3 69/41/3 70/37/3
f 39/36/3 66/42/3 69/41/3
f 66/42/3 68/43/3 69/41/3
f 66/42/3 67/44/3 68/43/3
f 39/36/3 65/45/3 66/42/3
f 39/36/3 64/46/3 65/45/3
f 39/36/3 63/47/3 64/46/3
f 40/48/3 63/47/3 39/36/3
f 41/49/3 63/47/3 40/48/3
f 42/50/3 63/47/3 41/49/3
f 43/51/3 63/47/3 42/50/3
f 44/52/3 63/47/3 43/51/3
f 45/53/3 63/47/3 44/52/3
f 46/54/3 63/47/3 45/53/3
f 47/55/3 63/47/3 46/54/3
f 48/56/3 63/47/3 47/55/3
f 49/57/3 63/47/3 48/56/3
f 50/58/3 63/47/3 49/57/3
f 51/59/3 63/47/3 50/58/3
f 52/60/2 63/47/2 51/59/2
f 53/61/2 63/47/2 52/60/2
f 54/62/2 63/47/2 53/61/2
f 55/63/4 63/47/4 54/62/4
f 56/64/2 63/47/2 55/63/2
f 57/65/2 63/47/2 56/64/2
f 58/66/2 63/47/2 57/65/2
f 59/67/4 63/47/4 58/66/4
f 60/68/2 63/47/2 59/67/2
f 61/69/2 63/47/2 60/68/2
f 62/70/2 63/47/2 61/69/2
f 25/33/2 26/34/2 61/69/2 60/68/2
f 5/13/5 6/14/5 41/49/5 40/48/5
f 12/20/6 13/21/6 48/56/6 47/55/6
f 19/27/2 20/28/2 55/63/2 54/62/2
f 26/34/2 27/35/2 62/70/2 61/69/2
f 6/14/7 7/15/7 42/50/7 41/49/7
f 33/8/4 34/6/4 69/41/4 68/43/4
f 13/21/8 14/22/8 49/57/8 48/56/8
f 27/35/2 28/12/2 63/47/2 62/70/2
f 20/28/2 21/29/2 56/64/2 55/63/2
f 31/7/2 32/9/2 67/44/2 66/42/2
f 3/2/9 4/1/9 39/36/9 38/38/9
f 7/15/10 8/16/10 43/51/10 42/50/10
f 32/9/11 33/8/11 68/43/11 67/44/11
f 14/22/12 15/23/12 50/58/12 49/57/12
f 21/29/2 22/30/2 57/65/2 56/64/2
f 8/16/13 9/17/13 44/52/13 43/51/13
f 30/10/11 31/7/11 66/42/11 65/45/11
f 15/23/14 16/24/14 51/59/14 50/58/14
f 22/30/2 23/31/2 58/66/2 57/65/2
f 2/4/4 3/2/4 38/38/4 37/39/4
f 9/17/15 10/18/15 45/53/15 44/52/15
f 29/11/4 30/10/4 65/45/4 64/46/4
f 16/24/2 17/25/2 52/60/2 51/59/2
f 35/3/2 1/5/2 36/40/2 70/37/2
f 23/31/2 24/32/2 59/67/2 58/66/2
f 1/5/11 2/4/11 37/39/11 36/40/11
f 10/18/16 11/19/16 46/54/16 45/53/16
f 28/12/11 29/11/11 64/46/11 63/47/11
f 17/25/2 18/26/2 53/61/2 52/60/2
f 24/32/2 25/33/2 60/68/2 59/67/2
f 4/1/17 5/13/17 40/48/17 39/36/17
f 34/6/11 35/3/11 70/37/11 69/41/11
f 11/19/18 12/20/18 47/55/18 46/54/18
f 18/26/2 19/27/2 54/62/2 53/61/2
