# Blender v3.1.2 OBJ File: ''
# www.blender.org
mtllib ETI.mtl
o Curve.009_Curve.014
v 0.014121 0.000000 0.003185
v 0.014121 0.000000 -0.003509
v 0.016788 0.000000 -0.003509
v 0.016788 0.000000 0.003185
v 0.014121 0.002056 0.003185
v 0.016788 0.002056 -0.003509
v 0.014121 0.002056 -0.003509
v 0.016788 0.002056 0.003185
vt 1.000000 0.000000
vt 0.000000 0.000000
vt 0.333333 0.000000
vt 0.666667 0.000000
vt 1.000000 0.000000
vt 0.333333 0.000000
vt 0.000000 0.000000
vt 0.666667 0.000000
vn 0.0000 -1.0000 -0.0000
vn 0.0000 1.0000 0.0000
vn -1.0000 0.0000 0.0000
vn 0.0000 -0.0000 1.0000
vn 1.0000 0.0000 0.0000
vn 0.0000 0.0000 -1.0000
usemtl SVGMat.012
s 1
f 1/1/1 2/2/1 3/3/1
f 1/1/1 3/3/1 4/4/1
f 5/5/2 6/6/2 7/7/2
f 5/5/2 8/8/2 6/6/2
f 2/2/3 1/1/3 5/5/3 7/7/3
f 1/1/4 4/4/4 8/8/4 5/5/4
f 4/4/5 3/3/5 6/6/5 8/8/5
f 3/3/6 2/2/6 7/7/6 6/6/6
o Curve.010_Curve.015
v -0.007526 0.000000 -0.002100
v -0.007526 0.000000 -0.003509
v 0.001385 0.000000 -0.003509
v 0.001385 0.000000 -0.002100
v -0.004408 0.000000 -0.002100
v -0.004408 0.000000 0.003185
v -0.001734 0.000000 -0.002100
v -0.001734 0.000000 0.003185
v -0.007526 0.002056 -0.002100
v 0.001385 0.002056 -0.003509
v -0.007526 0.002056 -0.003509
v 0.001385 0.002056 -0.002100
v -0.004408 0.002056 -0.002100
v -0.004408 0.002056 0.003185
v -0.001734 0.002056 -0.002100
v -0.001734 0.002056 0.003185
vt 0.142857 0.000000
vt 0.000000 0.000000
vt 1.000000 0.000000
vt 0.857143 0.000000
vt 0.285714 0.000000
vt 0.428571 0.000000
vt 0.714286 0.000000
vt 0.571429 0.000000
vt 0.142857 0.000000
vt 1.000000 0.000000
vt 0.000000 0.000000
vt 0.857143 0.000000
vt 0.285714 0.000000
vt 0.428571 0.000000
vt 0.714286 0.000000
vt 0.571429 0.000000
vn 0.0000 -1.0000 -0.0000
vn 0.0000 -0.0000 1.0000
vn 0.0000 1.0000 0.0000
vn -1.0000 0.0000 0.0000
vn 1.0000 0.0000 0.0000
vn 0.0000 0.0000 -1.0000
usemtl SVGMat.013
s 1
f 9/9/7 10/10/7 11/11/7
f 9/9/7 11/11/7 12/12/7
f 13/13/8 9/9/8 12/12/8
f 14/14/7 13/13/7 15/15/7
f 15/15/8 13/13/8 12/12/8
f 14/14/7 15/15/7 16/16/7
f 17/17/9 18/18/9 19/19/9
f 17/17/9 20/20/9 18/18/9
f 21/21/8 20/20/8 17/17/8
f 22/22/9 23/23/9 21/21/9
f 23/23/8 20/20/8 21/21/8
f 22/22/9 24/24/9 23/23/9
f 13/13/10 14/14/10 22/22/10 21/21/10
f 9/9/8 13/13/8 21/21/8 17/17/8
f 16/16/11 15/15/11 23/23/11 24/24/11
f 15/15/8 12/12/8 20/20/8 23/23/8
f 12/12/11 11/11/11 18/18/11 20/20/11
f 11/11/12 10/10/12 19/19/12 18/18/12
f 14/14/8 16/16/8 24/24/8 22/22/8
f 10/10/10 9/9/10 17/17/10 19/19/10
o Curve.011_Curve.016
v -0.017811 0.000000 0.001904
v -0.017811 0.000000 -0.003509
v -0.015137 0.000000 -0.002100
v -0.009104 0.000000 -0.003509
v -0.009104 0.000000 -0.002100
v -0.015137 0.000000 -0.000868
v -0.015137 0.000000 0.000541
v -0.009104 0.000000 -0.000868
v -0.009104 0.000000 0.000541
v -0.015137 0.000000 0.001773
v -0.009104 0.000000 0.001773
v -0.009104 0.000000 0.003183
v -0.017800 0.000000 0.002077
v -0.017766 0.000000 0.002244
v -0.017711 0.000000 0.002402
v -0.017637 0.000000 0.002549
v -0.017545 0.000000 0.002685
v -0.017437 0.000000 0.002808
v -0.017314 0.000000 0.002916
v -0.017178 0.000000 0.003008
v -0.017030 0.000000 0.003082
v -0.016872 0.000000 0.003137
v -0.016706 0.000000 0.003171
v -0.016532 0.000000 0.003183
v -0.016386 0.000000 0.003183
v -0.015982 0.000000 0.003183
v -0.015372 0.000000 0.003183
v -0.014606 0.000000 0.003183
v -0.013738 0.000000 0.003183
v -0.012818 0.000000 0.003183
v -0.011898 0.000000 0.003183
v -0.011030 0.000000 0.003183
v -0.010265 0.000000 0.003183
v -0.009654 0.000000 0.003183
v -0.009250 0.000000 0.003183
v -0.017811 0.002056 0.001904
v -0.015137 0.002056 -0.002100
v -0.017811 0.002056 -0.003509
v -0.009104 0.002056 -0.003509
v -0.009104 0.002056 -0.002100
v -0.015137 0.002056 -0.000868
v -0.015137 0.002056 0.000541
v -0.009104 0.002056 -0.000868
v -0.009104 0.002056 0.000541
v -0.015137 0.002056 0.001773
v -0.009104 0.002056 0.001773
v -0.009104 0.002056 0.003183
v -0.017800 0.002056 0.002077
v -0.017766 0.002056 0.002244
v -0.017711 0.002056 0.002402
v -0.017637 0.002056 0.002549
v -0.017545 0.002056 0.002685
v -0.017437 0.002056 0.002808
v -0.017314 0.002056 0.002916
v -0.017178 0.002056 0.003008
v -0.017030 0.002056 0.003082
v -0.016872 0.002056 0.003137
v -0.016706 0.002056 0.003171
v -0.016532 0.002056 0.003183
v -0.016386 0.002056 0.003183
v -0.015982 0.002056 0.003183
v -0.015372 0.002056 0.003183
v -0.014606 0.002056 0.003183
v -0.013738 0.002056 0.003183
v -0.012818 0.002056 0.003183
v -0.011898 0.002056 0.003183
v -0.011030 0.002056 0.003183
v -0.010265 0.002056 0.003183
v -0.009654 0.002056 0.003183
v -0.009250 0.002056 0.003183
vt 0.088235 0.000000
vt 0.058824 0.000000
vt 1.000000 0.000000
vt 0.029412 0.000000
vt 0.000000 0.000000
vt 0.970588 0.000000
vt 0.882353 0.000000
vt 0.941176 0.000000
vt 0.911765 0.000000
vt 0.852941 0.000000
vt 0.823529 0.000000
vt 0.794118 0.000000
vt 0.117647 0.000000
vt 0.147059 0.000000
vt 0.176471 0.000000
vt 0.205882 0.000000
vt 0.235294 0.000000
vt 0.264706 0.000000
vt 0.294118 0.000000
vt 0.323529 0.000000
vt 0.352941 0.000000
vt 0.382353 0.000000
vt 0.411765 0.000000
vt 0.441176 0.000000
vt 0.470588 0.000000
vt 0.500000 0.000000
vt 0.529412 0.000000
vt 0.558824 0.000000
vt 0.588235 0.000000
vt 0.617647 0.000000
vt 0.647059 0.000000
vt 0.676471 0.000000
vt 0.705882 0.000000
vt 0.735294 0.000000
vt 0.764706 0.000000
vt 0.088235 0.000000
vt 1.000000 0.000000
vt 0.058824 0.000000
vt 0.029412 0.000000
vt 0.000000 0.000000
vt 0.970588 0.000000
vt 0.882353 0.000000
vt 0.941176 0.000000
vt 0.911765 0.000000
vt 0.852941 0.000000
vt 0.823529 0.000000
vt 0.794118 0.000000
vt 0.117647 0.000000
vt 0.147059 0.000000
vt 0.176471 0.000000
vt 0.205882 0.000000
vt 0.235294 0.000000
vt 0.264706 0.000000
vt 0.294118 0.000000
vt 0.323529 0.000000
vt 0.352941 0.000000
vt 0.382353 0.000000
vt 0.411765 0.000000
vt 0.441176 0.000000
vt 0.470588 0.000000
vt 0.500000 0.000000
vt 0.529412 0.000000
vt 0.558824 0.000000
vt 0.588235 0.000000
vt 0.617647 0.000000
vt 0.647059 0.000000
vt 0.676471 0.000000
vt 0.705882 0.000000
vt 0.735294 0.000000
vt 0.764706 0.000000
vn -0.0000 -1.0000 -0.0000
vn 0.0000 -0.0000 1.0000
vn 0.0000 1.0000 0.0000
vn 0.0000 0.0000 -1.0000
vn 0.0000 -0.0010 1.0000
vn 0.0001 0.0004 1.0000
vn -0.9797 -0.0000 0.2003
vn -0.4485 0.0000 0.8938
vn -0.9444 0.0000 0.3288
vn -0.3288 -0.0000 0.9444
vn -1.0000 0.0000 0.0000
vn -0.8937 0.0000 0.4486
vn 1.0000 0.0000 0.0000
vn -0.2003 -0.0000 0.9797
vn -0.8286 0.0000 0.5598
vn -0.0671 -0.0000 0.9977
vn -0.7507 -0.0000 0.6606
vn -0.6606 -0.0000 0.7507
vn -0.9977 -0.0000 0.0672
vn -0.5597 -0.0000 0.8287
usemtl SVGMat.014
s 1
f 25/25/13 26/26/13 27/27/13
f 27/27/13 26/26/13 28/28/13
f 27/27/13 28/28/13 29/29/13
f 25/25/13 27/27/13 30/30/13
f 25/25/13 30/30/13 31/31/13
f 31/31/13 30/30/13 32/32/13
f 31/31/13 32/32/13 33/33/13
f 25/25/13 31/31/13 34/34/13
f 25/25/13 34/34/13 35/35/13
f 25/25/13 35/35/13 36/36/13
f 37/37/13 25/25/13 36/36/13
f 38/38/13 37/37/13 36/36/13
f 39/39/13 38/38/13 36/36/13
f 40/40/13 39/39/13 36/36/13
f 41/41/13 40/40/13 36/36/13
f 42/42/13 41/41/13 36/36/13
f 43/43/13 42/42/13 36/36/13
f 44/44/13 43/43/13 36/36/13
f 45/45/13 44/44/13 36/36/13
f 46/46/13 45/45/13 36/36/13
f 47/47/13 46/46/13 36/36/13
f 48/48/13 47/47/13 36/36/13
f 49/49/14 48/48/14 36/36/14
f 50/50/14 49/49/14 36/36/14
f 51/51/14 50/50/14 36/36/14
f 52/52/14 51/51/14 36/36/14
f 53/53/14 52/52/14 36/36/14
f 54/54/14 53/53/14 36/36/14
f 55/55/14 54/54/14 36/36/14
f 56/56/14 55/55/14 36/36/14
f 57/57/14 56/56/14 36/36/14
f 58/58/14 57/57/14 36/36/14
f 59/59/14 58/58/14 36/36/14
f 60/60/15 61/61/15 62/62/15
f 61/61/15 63/63/15 62/62/15
f 61/61/15 64/64/15 63/63/15
f 60/60/15 65/65/15 61/61/15
f 60/60/15 66/66/15 65/65/15
f 66/66/15 67/67/15 65/65/15
f 66/66/15 68/68/15 67/67/15
f 60/60/15 69/69/15 66/66/15
f 60/60/15 70/70/15 69/69/15
f 60/60/15 71/71/15 70/70/15
f 72/72/15 71/71/15 60/60/15
f 73/73/15 71/71/15 72/72/15
f 74/74/15 71/71/15 73/73/15
f 75/75/15 71/71/15 74/74/15
f 76/76/15 71/71/15 75/75/15
f 77/77/15 71/71/15 76/76/15
f 78/78/15 71/71/15 77/77/15
f 79/79/15 71/71/15 78/78/15
f 80/80/15 71/71/15 79/79/15
f 81/81/15 71/71/15 80/80/15
f 82/82/15 71/71/15 81/81/15
f 83/83/15 71/71/15 82/82/15
f 84/84/14 71/71/16 83/83/14
f 85/85/14 71/71/16 84/84/14
f 86/86/17 71/71/16 85/85/14
f 87/87/16 71/71/16 86/86/16
f 88/88/13 71/71/18 87/87/14
f 89/89/14 71/71/18 88/88/13
f 90/90/14 71/71/18 89/89/14
f 91/91/14 71/71/14 90/90/14
f 92/92/14 71/71/14 91/91/14
f 93/93/14 71/71/14 92/92/14
f 94/94/14 71/71/14 93/93/14
f 57/57/14 58/58/14 93/93/14 92/92/14
f 37/37/19 38/38/19 73/73/19 72/72/19
f 44/44/20 45/45/20 80/80/20 79/79/20
f 51/51/14 52/52/14 87/87/14 86/86/17
f 58/58/14 59/59/14 94/94/14 93/93/14
f 38/38/21 39/39/21 74/74/21 73/73/21
f 32/32/16 30/30/16 65/65/16 67/67/16
f 45/45/22 46/46/22 81/81/22 80/80/22
f 59/59/14 36/36/14 71/71/14 94/94/14
f 52/52/14 53/53/14 88/88/13 87/87/14
f 31/31/14 33/33/14 68/68/14 66/66/14
f 26/26/23 25/25/23 60/60/23 62/62/23
f 39/39/24 40/40/24 75/75/24 74/74/24
f 33/33/25 32/32/25 67/67/25 68/68/25
f 46/46/26 47/47/26 82/82/26 81/81/26
f 53/53/14 54/54/14 89/89/14 88/88/13
f 40/40/27 41/41/27 76/76/27 75/75/27
f 34/34/25 31/31/25 66/66/25 69/69/25
f 47/47/28 48/48/28 83/83/28 82/82/28
f 54/54/14 55/55/14 90/90/14 89/89/14
f 28/28/16 26/26/16 62/62/16 63/63/16
f 41/41/29 42/42/29 77/77/29 76/76/29
f 35/35/16 34/34/16 69/69/16 70/70/16
f 48/48/14 49/49/14 84/84/14 83/83/14
f 27/27/14 29/29/14 64/64/14 61/61/14
f 55/55/14 56/56/14 91/91/14 90/90/14
f 29/29/25 28/28/25 63/63/25 64/64/25
f 42/42/30 43/43/30 78/78/30 77/77/30
f 36/36/25 35/35/25 70/70/25 71/71/25
f 49/49/14 50/50/14 85/85/14 84/84/14
f 56/56/14 57/57/14 92/92/14 91/91/14
f 25/25/31 37/37/31 72/72/31 60/60/31
f 30/30/25 27/27/25 61/61/25 65/65/25
f 43/43/32 44/44/32 79/79/32 78/78/32
f 50/50/14 51/51/14 86/86/17 85/85/14
