# Blender v3.1.2 OBJ File: ''
# www.blender.org
mtllib ETRI.mtl
o Curve.009_Curve.014
v 0.032021 0.000000 -0.007225
v 0.034688 0.000000 -0.007225
v 0.034688 0.000000 -0.000531
v 0.032021 0.000000 -0.000531
v 0.032021 0.002056 -0.007225
v 0.034688 0.002056 -0.007225
v 0.034688 0.002056 -0.000531
v 0.032021 0.002056 -0.000531
vt 1.000000 0.000000
vt 0.000000 0.000000
vt 0.333333 0.000000
vt 0.666667 0.000000
vt 1.000000 0.000000
vt 0.333333 0.000000
vt 0.000000 0.000000
vt 0.666667 0.000000
vn 0.0000 -1.0000 0.0000
vn 0.0000 1.0000 0.0000
vn -1.0000 0.0000 0.0000
vn 0.0000 0.0000 1.0000
vn 1.0000 0.0000 0.0000
vn 0.0000 0.0000 -1.0000
usemtl SVGMat.012
s off
f 4/1/1 1/2/1 2/3/1
f 4/1/1 2/3/1 3/4/1
f 8/5/2 6/6/2 5/7/2
f 8/5/2 7/8/2 6/6/2
f 1/2/3 4/1/3 8/5/3 5/7/3
f 4/1/4 3/4/4 7/8/4 8/5/4
f 3/4/5 2/3/5 6/6/5 7/8/5
f 2/3/6 1/2/6 5/7/6 6/6/6
o Curve.010_Curve.015
v 0.010374 0.000000 -0.007225
v 0.010374 0.000000 -0.005816
v 0.013492 0.000000 -0.005816
v 0.013492 0.000000 -0.000531
v 0.016166 0.000000 -0.000531
v 0.016166 0.000000 -0.005816
v 0.019285 0.000000 -0.005816
v 0.019285 0.000000 -0.007225
v 0.010374 0.002056 -0.007225
v 0.010374 0.002056 -0.005816
v 0.013492 0.002056 -0.005816
v 0.013492 0.002056 -0.000531
v 0.016166 0.002056 -0.000531
v 0.016166 0.002056 -0.005816
v 0.019285 0.002056 -0.005816
v 0.019285 0.002056 -0.007225
vt 0.142857 0.000000
vt 0.000000 0.000000
vt 1.000000 0.000000
vt 0.857143 0.000000
vt 0.285714 0.000000
vt 0.428571 0.000000
vt 0.714286 0.000000
vt 0.571429 0.000000
vt 0.142857 0.000000
vt 1.000000 0.000000
vt 0.000000 0.000000
vt 0.857143 0.000000
vt 0.285714 0.000000
vt 0.428571 0.000000
vt 0.714286 0.000000
vt 0.571429 0.000000
vn 0.0000 -1.0000 0.0000
vn 0.0000 0.0000 1.0000
vn 0.0000 1.0000 0.0000
vn -1.0000 0.0000 0.0000
vn 1.0000 0.0000 0.0000
vn 0.0000 0.0000 -1.0000
usemtl SVGMat.013
s off
f 10/9/7 9/10/7 16/11/7
f 10/9/7 16/11/7 15/12/7
f 11/13/8 10/9/8 15/12/8
f 12/14/7 11/13/7 14/15/7
f 14/15/8 11/13/8 15/12/8
f 12/14/7 14/15/7 13/16/7
f 18/17/9 24/18/9 17/19/9
f 18/17/9 23/20/9 24/18/9
f 19/21/8 23/20/8 18/17/8
f 20/22/9 22/23/9 19/21/9
f 22/23/8 23/20/8 19/21/8
f 20/22/9 21/24/9 22/23/9
f 11/13/10 12/14/10 20/22/10 19/21/10
f 10/9/8 11/13/8 19/21/8 18/17/8
f 13/16/11 14/15/11 22/23/11 21/24/11
f 14/15/8 15/12/8 23/20/8 22/23/8
f 15/12/11 16/11/11 24/18/11 23/20/11
f 16/11/12 9/10/12 17/19/12 24/18/12
f 12/14/8 13/16/8 21/24/8 20/22/8
f 9/10/10 10/9/10 18/17/10 17/19/10
o Curve.011_Curve.016
v 0.008796 0.000000 -0.005816
v 0.008796 0.000000 -0.007225
v 0.000089 0.000000 -0.007225
v 0.000089 0.000000 -0.001812
v 0.000100 0.000000 -0.001639
v 0.000134 0.000000 -0.001472
v 0.000189 0.000000 -0.001314
v 0.000263 0.000000 -0.001167
v 0.000355 0.000000 -0.001031
v 0.000463 0.000000 -0.000908
v 0.000586 0.000000 -0.000800
v 0.000722 0.000000 -0.000708
v 0.000870 0.000000 -0.000634
v 0.001028 0.000000 -0.000579
v 0.001194 0.000000 -0.000545
v 0.001368 0.000000 -0.000533
v 0.001514 0.000000 -0.000533
v 0.001918 0.000000 -0.000533
v 0.002528 0.000000 -0.000533
v 0.003294 0.000000 -0.000533
v 0.004162 0.000000 -0.000533
v 0.005082 0.000000 -0.000533
v 0.006002 0.000000 -0.000533
v 0.006870 0.000000 -0.000533
v 0.007635 0.000000 -0.000533
v 0.008246 0.000000 -0.000533
v 0.008650 0.000000 -0.000533
v 0.008796 0.000000 -0.000533
v 0.008796 0.000000 -0.001943
v 0.002763 0.000000 -0.001943
v 0.002763 0.000000 -0.003175
v 0.008796 0.000000 -0.003175
v 0.008796 0.000000 -0.004584
v 0.002763 0.000000 -0.004584
v 0.002763 0.000000 -0.005816
v 0.008796 0.002056 -0.005816
v 0.008796 0.002056 -0.007225
v 0.000089 0.002056 -0.007225
v 0.000089 0.002056 -0.001812
v 0.000100 0.002056 -0.001639
v 0.000134 0.002056 -0.001472
v 0.000189 0.002056 -0.001314
v 0.000263 0.002056 -0.001167
v 0.000355 0.002056 -0.001031
v 0.000463 0.002056 -0.000908
v 0.000586 0.002056 -0.000800
v 0.000722 0.002056 -0.000708
v 0.000870 0.002056 -0.000634
v 0.001028 0.002056 -0.000579
v 0.001194 0.002056 -0.000545
v 0.001368 0.002056 -0.000533
v 0.001514 0.002056 -0.000533
v 0.001918 0.002056 -0.000533
v 0.002528 0.002056 -0.000533
v 0.003294 0.002056 -0.000533
v 0.004162 0.002056 -0.000533
v 0.005082 0.002056 -0.000533
v 0.006002 0.002056 -0.000533
v 0.006870 0.002056 -0.000533
v 0.007635 0.002056 -0.000533
v 0.008246 0.002056 -0.000533
v 0.008650 0.002056 -0.000533
v 0.008796 0.002056 -0.000533
v 0.008796 0.002056 -0.001943
v 0.002763 0.002056 -0.001943
v 0.002763 0.002056 -0.003175
v 0.008796 0.002056 -0.003175
v 0.008796 0.002056 -0.004584
v 0.002763 0.002056 -0.004584
v 0.002763 0.002056 -0.005816
vt 0.088235 0.000000
vt 0.058824 0.000000
vt 1.000000 0.000000
vt 0.029412 0.000000
vt 0.000000 0.000000
vt 0.970588 0.000000
vt 0.882353 0.000000
vt 0.941176 0.000000
vt 0.911765 0.000000
vt 0.852941 0.000000
vt 0.823529 0.000000
vt 0.794118 0.000000
vt 0.117647 0.000000
vt 0.147059 0.000000
vt 0.176471 0.000000
vt 0.205882 0.000000
vt 0.235294 0.000000
vt 0.264706 0.000000
vt 0.294118 0.000000
vt 0.323529 0.000000
vt 0.352941 0.000000
vt 0.382353 0.000000
vt 0.411765 0.000000
vt 0.441176 0.000000
vt 0.470588 0.000000
vt 0.500000 0.000000
vt 0.529412 0.000000
vt 0.558824 0.000000
vt 0.588235 0.000000
vt 0.617647 0.000000
vt 0.647059 0.000000
vt 0.676471 0.000000
vt 0.705882 0.000000
vt 0.735294 0.000000
vt 0.764706 0.000000
vt 0.088235 0.000000
vt 1.000000 0.000000
vt 0.058824 0.000000
vt 0.029412 0.000000
vt 0.000000 0.000000
vt 0.970588 0.000000
vt 0.882353 0.000000
vt 0.941176 0.000000
vt 0.911765 0.000000
vt 0.852941 0.000000
vt 0.823529 0.000000
vt 0.794118 0.000000
vt 0.117647 0.000000
vt 0.147059 0.000000
vt 0.176471 0.000000
vt 0.205882 0.000000
vt 0.235294 0.000000
vt 0.264706 0.000000
vt 0.294118 0.000000
vt 0.323529 0.000000
vt 0.352941 0.000000
vt 0.382353 0.000000
vt 0.411765 0.000000
vt 0.441176 0.000000
vt 0.470588 0.000000
vt 0.500000 0.000000
vt 0.529412 0.000000
vt 0.558824 0.000000
vt 0.588235 0.000000
vt 0.617647 0.000000
vt 0.647059 0.000000
vt 0.676471 0.000000
vt 0.705882 0.000000
vt 0.735294 0.000000
vt 0.764706 0.000000
vn 0.0000 -1.0000 0.0000
vn 0.0000 0.0000 1.0000
vn 0.0000 1.0000 0.0000
vn 0.0000 0.0000 -1.0000
vn -0.9797 0.0000 0.2003
vn -0.4485 0.0000 0.8938
vn -0.9446 0.0000 0.3282
vn -0.3282 0.0000 0.9446
vn -1.0000 0.0000 0.0000
vn -0.8937 0.0000 0.4486
vn 1.0000 0.0000 0.0000
vn -0.2002 0.0000 0.9798
vn -0.8286 0.0000 0.5598
vn -0.0671 0.0000 0.9977
vn -0.7506 0.0000 0.6607
vn -0.6607 0.0000 0.7507
vn -0.9977 0.0000 0.0672
vn -0.5597 0.0000 0.8287
usemtl SVGMat.014
s off
f 28/25/13 27/26/13 59/27/13
f 59/27/13 27/26/13 26/28/13
f 59/27/13 26/28/13 25/29/13
f 28/25/13 59/27/13 58/30/13
f 28/25/13 58/30/13 55/31/13
f 55/31/13 58/30/13 57/32/13
f 55/31/13 57/32/13 56/33/13
f 28/25/13 55/31/13 54/34/13
f 28/25/13 54/34/13 53/35/13
f 28/25/13 53/35/13 52/36/13
f 29/37/13 28/25/13 52/36/13
f 30/38/13 29/37/13 52/36/13
f 31/39/13 30/38/13 52/36/13
f 32/40/13 31/39/13 52/36/13
f 33/41/13 32/40/13 52/36/13
f 34/42/13 33/41/13 52/36/13
f 35/43/13 34/42/13 52/36/13
f 36/44/13 35/43/13 52/36/13
f 37/45/13 36/44/13 52/36/13
f 38/46/13 37/45/13 52/36/13
f 39/47/13 38/46/13 52/36/13
f 40/48/13 39/47/13 52/36/13
f 41/49/14 40/48/14 52/36/14
f 42/50/14 41/49/14 52/36/14
f 43/51/14 42/50/14 52/36/14
f 44/52/14 43/51/14 52/36/14
f 45/53/14 44/52/14 52/36/14
f 46/54/14 45/53/14 52/36/14
f 47/55/14 46/54/14 52/36/14
f 48/56/14 47/55/14 52/36/14
f 49/57/14 48/56/14 52/36/14
f 50/58/14 49/57/14 52/36/14
f 51/59/14 50/58/14 52/36/14
f 63/60/15 94/61/15 62/62/15
f 94/61/15 61/63/15 62/62/15
f 94/61/15 60/64/15 61/63/15
f 63/60/15 93/65/15 94/61/15
f 63/60/15 90/66/15 93/65/15
f 90/66/15 92/67/15 93/65/15
f 90/66/15 91/68/15 92/67/15
f 63/60/15 89/69/15 90/66/15
f 63/60/15 88/70/15 89/69/15
f 63/60/15 87/71/15 88/70/15
f 64/72/15 87/71/15 63/60/15
f 65/73/15 87/71/15 64/72/15
f 66/74/15 87/71/15 65/73/15
f 67/75/15 87/71/15 66/74/15
f 68/76/15 87/71/15 67/75/15
f 69/77/15 87/71/15 68/76/15
f 70/78/15 87/71/15 69/77/15
f 71/79/15 87/71/15 70/78/15
f 72/80/15 87/71/15 71/79/15
f 73/81/15 87/71/15 72/80/15
f 74/82/15 87/71/15 73/81/15
f 75/83/15 87/71/15 74/82/15
f 76/84/14 87/71/14 75/83/14
f 77/85/14 87/71/14 76/84/14
f 78/86/14 87/71/14 77/85/14
f 79/87/16 87/71/16 78/86/16
f 80/88/14 87/71/14 79/87/14
f 81/89/14 87/71/14 80/88/14
f 82/90/14 87/71/14 81/89/14
f 83/91/16 87/71/16 82/90/16
f 84/92/14 87/71/14 83/91/14
f 85/93/14 87/71/14 84/92/14
f 86/94/14 87/71/14 85/93/14
f 49/57/14 50/58/14 85/93/14 84/92/14
f 29/37/17 30/38/17 65/73/17 64/72/17
f 36/44/18 37/45/18 72/80/18 71/79/18
f 43/51/14 44/52/14 79/87/14 78/86/14
f 50/58/14 51/59/14 86/94/14 85/93/14
f 30/38/19 31/39/19 66/74/19 65/73/19
f 57/32/16 58/30/16 93/65/16 92/67/16
f 37/45/20 38/46/20 73/81/20 72/80/20
f 51/59/14 52/36/14 87/71/14 86/94/14
f 44/52/14 45/53/14 80/88/14 79/87/14
f 55/31/14 56/33/14 91/68/14 90/66/14
f 27/26/21 28/25/21 63/60/21 62/62/21
f 31/39/22 32/40/22 67/75/22 66/74/22
f 56/33/23 57/32/23 92/67/23 91/68/23
f 38/46/24 39/47/24 74/82/24 73/81/24
f 45/53/14 46/54/14 81/89/14 80/88/14
f 32/40/25 33/41/25 68/76/25 67/75/25
f 54/34/23 55/31/23 90/66/23 89/69/23
f 39/47/26 40/48/26 75/83/26 74/82/26
f 46/54/14 47/55/14 82/90/14 81/89/14
f 26/28/16 27/26/16 62/62/16 61/63/16
f 33/41/27 34/42/27 69/77/27 68/76/27
f 53/35/16 54/34/16 89/69/16 88/70/16
f 40/48/14 41/49/14 76/84/14 75/83/14
f 59/27/14 25/29/14 60/64/14 94/61/14
f 47/55/14 48/56/14 83/91/14 82/90/14
f 25/29/23 26/28/23 61/63/23 60/64/23
f 34/42/28 35/43/28 70/78/28 69/77/28
f 52/36/23 53/35/23 88/70/23 87/71/23
f 41/49/14 42/50/14 77/85/14 76/84/14
f 48/56/14 49/57/14 84/92/14 83/91/14
f 28/25/29 29/37/29 64/72/29 63/60/29
f 58/30/23 59/27/23 94/61/23 93/65/23
f 35/43/30 36/44/30 71/79/30 70/78/30
f 42/50/14 43/51/14 78/86/14 77/85/14
o Curve.012_Curve.017
v 0.027325 0.000000 -0.003653
v 0.024178 0.000000 -0.003653
v 0.027788 0.000000 -0.000083
v 0.030935 0.000000 -0.000083
v 0.027325 0.002056 -0.003653
v 0.024178 0.002056 -0.003653
v 0.027788 0.002056 -0.000083
v 0.030935 0.002056 -0.000083
vt 0.666667 0.000000
vt 0.333333 0.000000
vt 0.000000 0.000000
vt 1.000000 0.000000
vt 0.666667 0.000000
vt 0.000000 0.000000
vt 0.333333 0.000000
vt 1.000000 0.000000
vn 0.0000 -1.0000 0.0000
vn 0.0000 1.0000 0.0000
vn 0.7032 0.0000 -0.7110
vn 0.0000 0.0000 -1.0000
vn -0.7032 0.0000 0.7110
vn 0.0000 0.0000 1.0000
usemtl SVGMat.015
s off
f 97/95/31 96/96/31 95/97/31
f 97/95/31 95/97/31 98/98/31
f 101/99/32 99/100/32 100/101/32
f 101/99/32 102/102/32 99/100/32
f 98/98/33 95/97/33 99/100/33 102/102/33
f 95/97/34 96/96/34 100/101/34 99/100/34
f 96/96/35 97/95/35 101/99/35 100/101/35
f 97/95/36 98/98/36 102/102/36 101/99/36
o Curve.013_Curve.018
v 0.028721 0.000000 -0.007225
v 0.020625 0.000000 -0.007225
v 0.020625 0.000000 -0.000531
v 0.023299 0.000000 -0.000531
v 0.023299 0.000000 -0.005816
v 0.027326 0.000000 -0.005816
v 0.027326 0.000000 -0.003653
v 0.030001 0.000000 -0.003653
v 0.030001 0.000000 -0.005947
v 0.029989 0.000000 -0.006120
v 0.029955 0.000000 -0.006287
v 0.029900 0.000000 -0.006445
v 0.029826 0.000000 -0.006592
v 0.029734 0.000000 -0.006728
v 0.029626 0.000000 -0.006851
v 0.029503 0.000000 -0.006959
v 0.029367 0.000000 -0.007050
v 0.029219 0.000000 -0.007124
v 0.029061 0.000000 -0.007179
v 0.028895 0.000000 -0.007213
v 0.028721 0.002056 -0.007225
v 0.020625 0.002056 -0.007225
v 0.020625 0.002056 -0.000531
v 0.023299 0.002056 -0.000531
v 0.023299 0.002056 -0.005816
v 0.027326 0.002056 -0.005816
v 0.027326 0.002056 -0.003653
v 0.030001 0.002056 -0.003653
v 0.030001 0.002056 -0.005947
v 0.029989 0.002056 -0.006120
v 0.029955 0.002056 -0.006287
v 0.029900 0.002056 -0.006445
v 0.029826 0.002056 -0.006592
v 0.029734 0.002056 -0.006728
v 0.029626 0.002056 -0.006851
v 0.029503 0.002056 -0.006959
v 0.029367 0.002056 -0.007050
v 0.029219 0.002056 -0.007124
v 0.029061 0.002056 -0.007179
v 0.028895 0.002056 -0.007213
vt 0.105263 0.000000
vt 0.052632 0.000000
vt 0.210526 0.000000
vt 0.000000 0.000000
vt 1.000000 0.000000
vt 0.947368 0.000000
vt 0.894737 0.000000
vt 0.842105 0.000000
vt 0.789474 0.000000
vt 0.736842 0.000000
vt 0.684211 0.000000
vt 0.631579 0.000000
vt 0.578947 0.000000
vt 0.526316 0.000000
vt 0.473684 0.000000
vt 0.421053 0.000000
vt 0.263158 0.000000
vt 0.368421 0.000000
vt 0.157895 0.000000
vt 0.315789 0.000000
vt 0.105263 0.000000
vt 0.210526 0.000000
vt 0.052632 0.000000
vt 0.000000 0.000000
vt 1.000000 0.000000
vt 0.947368 0.000000
vt 0.894737 0.000000
vt 0.842105 0.000000
vt 0.789474 0.000000
vt 0.736842 0.000000
vt 0.684211 0.000000
vt 0.631579 0.000000
vt 0.578947 0.000000
vt 0.526316 0.000000
vt 0.473684 0.000000
vt 0.421053 0.000000
vt 0.263158 0.000000
vt 0.368421 0.000000
vt 0.157895 0.000000
vt 0.315789 0.000000
vn 0.0000 -1.0000 0.0000
vn 0.0000 1.0000 0.0000
vn 0.6600 0.0000 -0.7513
vn 0.9445 0.0000 -0.3285
vn 1.0000 0.0000 0.0000
vn 0.3274 0.0000 -0.9449
vn 0.7500 0.0000 -0.6614
vn 0.0000 0.0000 1.0000
vn 0.9797 0.0000 -0.2004
vn 0.0000 0.0000 -1.0000
vn 0.4477 0.0000 -0.8942
vn 0.8283 0.0000 -0.5604
vn -1.0000 0.0000 0.0000
vn 0.9977 0.0000 -0.0672
vn 0.0670 0.0000 -0.9978
vn 0.5589 0.0000 -0.8292
vn 0.8935 0.0000 -0.4490
vn 0.1997 0.0000 -0.9799
usemtl SVGMat.016
s off
f 105/103/37 104/104/37 107/105/37
f 107/105/37 104/104/37 103/106/37
f 107/105/37 103/106/37 122/107/37
f 107/105/37 122/107/37 121/108/37
f 107/105/37 121/108/37 120/109/37
f 107/105/37 120/109/37 119/110/37
f 107/105/37 119/110/37 118/111/37
f 107/105/37 118/111/37 117/112/37
f 107/105/37 117/112/37 116/113/37
f 107/105/37 116/113/37 115/114/37
f 107/105/37 115/114/37 114/115/37
f 107/105/37 114/115/37 113/116/37
f 107/105/37 113/116/37 112/117/37
f 107/105/37 112/117/37 111/118/37
f 107/105/37 111/118/37 108/119/37
f 108/119/37 111/118/37 110/120/37
f 105/103/37 107/105/37 106/121/37
f 109/122/37 108/119/37 110/120/37
f 125/123/38 127/124/38 124/125/38
f 127/124/38 123/126/38 124/125/38
f 127/124/38 142/127/38 123/126/38
f 127/124/38 141/128/38 142/127/38
f 127/124/38 140/129/38 141/128/38
f 127/124/38 139/130/38 140/129/38
f 127/124/38 138/131/38 139/130/38
f 127/124/38 137/132/38 138/131/38
f 127/124/38 136/133/38 137/132/38
f 127/124/38 135/134/38 136/133/38
f 127/124/38 134/135/38 135/134/38
f 127/124/38 133/136/38 134/135/38
f 127/124/38 132/137/38 133/136/38
f 127/124/38 131/138/38 132/137/38
f 127/124/38 128/139/38 131/138/38
f 128/139/38 130/140/38 131/138/38
f 125/123/38 126/141/38 127/124/38
f 129/142/38 130/140/38 128/139/38
f 117/112/39 118/111/39 138/131/39 137/132/39
f 113/116/40 114/115/40 134/135/40 133/136/40
f 110/120/41 111/118/41 131/138/41 130/140/41
f 120/109/42 121/108/42 141/128/42 140/129/42
f 116/113/43 117/112/43 137/132/43 136/133/43
f 105/103/44 106/121/44 126/141/44 125/123/44
f 112/117/45 113/116/45 133/136/45 132/137/45
f 103/106/46 104/104/46 124/125/46 123/126/46
f 106/121/41 107/105/41 127/124/41 126/141/41
f 119/110/47 120/109/47 140/129/47 139/130/47
f 115/114/48 116/113/48 136/133/48 135/134/48
f 108/119/49 109/122/49 129/142/49 128/139/49
f 111/118/50 112/117/50 132/137/50 131/138/50
f 122/107/51 103/106/51 123/126/51 142/127/51
f 109/122/44 110/120/44 130/140/44 129/142/44
f 118/111/52 119/110/52 139/130/52 138/131/52
f 107/105/44 108/119/44 128/139/44 127/124/44
f 114/115/53 115/114/53 135/134/53 134/135/53
f 104/104/49 105/103/49 125/123/49 124/125/49
f 121/108/54 122/107/54 142/127/54 141/128/54
