# Blender 3.1.2
# www.blender.org
mtllib ETRI_MID.mtl
o Curve.009_Curve.014
v 0.014121 0.000000 0.003185
v 0.014121 0.000000 -0.003509
v 0.016788 0.000000 -0.003509
v 0.016788 0.000000 0.003185
v 0.014121 0.002056 0.003185
v 0.016788 0.002056 -0.003509
v 0.014121 0.002056 -0.003509
v 0.016788 0.002056 0.003185
vn -0.0000 -1.0000 -0.0000
vn -0.0000 1.0000 -0.0000
vn -1.0000 -0.0000 -0.0000
vn -0.0000 -0.0000 1.0000
vn 1.0000 -0.0000 -0.0000
vn -0.0000 -0.0000 -1.0000
vt 1.000000 0.000000
vt 0.000000 0.000000
vt 0.333333 0.000000
vt 0.666667 0.000000
vt 1.000000 0.000000
vt 0.333333 0.000000
vt 0.000000 0.000000
vt 0.666667 0.000000
s 1
usemtl SVGMat.012
f 1/1/1 2/2/1 3/3/1
f 1/1/1 3/3/1 4/4/1
f 5/5/2 6/6/2 7/7/2
f 5/5/2 8/8/2 6/6/2
f 2/2/3 1/1/3 5/5/3 7/7/3
f 1/1/4 4/4/4 8/8/4 5/5/4
f 4/4/5 3/3/5 6/6/5 8/8/5
f 3/3/6 2/2/6 7/7/6 6/6/6
o Curve.010_Curve.015
v -0.007526 0.000000 -0.002100
v -0.007526 0.000000 -0.003509
v 0.001385 0.000000 -0.003509
v 0.001385 0.000000 -0.002100
v -0.004408 0.000000 -0.002100
v -0.004408 0.000000 0.003185
v -0.001734 0.000000 -0.002100
v -0.001734 0.000000 0.003185
v -0.007526 0.002056 -0.002100
v 0.001385 0.002056 -0.003509
v -0.007526 0.002056 -0.003509
v 0.001385 0.002056 -0.002100
v -0.004408 0.002056 -0.002100
v -0.004408 0.002056 0.003185
v -0.001734 0.002056 -0.002100
v -0.001734 0.002056 0.003185
vn -0.0000 -1.0000 -0.0000
vn -0.0000 -0.0000 1.0000
vn -0.0000 1.0000 -0.0000
vn -1.0000 -0.0000 -0.0000
vn 1.0000 -0.0000 -0.0000
vn -0.0000 -0.0000 -1.0000
vt 0.142857 0.000000
vt 0.000000 0.000000
vt 1.000000 0.000000
vt 0.857143 0.000000
vt 0.285714 0.000000
vt 0.428571 0.000000
vt 0.714286 0.000000
vt 0.571429 0.000000
vt 0.142857 0.000000
vt 1.000000 0.000000
vt 0.000000 0.000000
vt 0.857143 0.000000
vt 0.285714 0.000000
vt 0.428571 0.000000
vt 0.714286 0.000000
vt 0.571429 0.000000
s 1
usemtl SVGMat.013
f 9/9/7 10/10/7 11/11/7
f 9/9/7 11/11/7 12/12/7
f 13/13/8 9/9/8 12/12/8
f 14/14/7 13/13/7 15/15/7
f 15/15/8 13/13/8 12/12/8
f 14/14/7 15/15/7 16/16/7
f 17/17/9 18/18/9 19/19/9
f 17/17/9 20/20/9 18/18/9
f 21/21/8 20/20/8 17/17/8
f 22/22/9 23/23/9 21/21/9
f 23/23/8 20/20/8 21/21/8
f 22/22/9 24/24/9 23/23/9
f 13/13/10 14/14/10 22/22/10 21/21/10
f 9/9/8 13/13/8 21/21/8 17/17/8
f 16/16/11 15/15/11 23/23/11 24/24/11
f 15/15/8 12/12/8 20/20/8 23/23/8
f 12/12/11 11/11/11 18/18/11 20/20/11
f 11/11/12 10/10/12 19/19/12 18/18/12
f 14/14/8 16/16/8 24/24/8 22/22/8
f 10/10/10 9/9/10 17/17/10 19/19/10
o Curve.011_Curve.016
v -0.017811 0.000000 0.001904
v -0.017811 0.000000 -0.003509
v -0.015137 0.000000 -0.002100
v -0.009104 0.000000 -0.003509
v -0.009104 0.000000 -0.002100
v -0.015137 0.000000 -0.000868
v -0.015137 0.000000 0.000541
v -0.009104 0.000000 -0.000868
v -0.009104 0.000000 0.000541
v -0.015137 0.000000 0.001773
v -0.009104 0.000000 0.001773
v -0.009104 0.000000 0.003183
v -0.017800 0.000000 0.002077
v -0.017766 0.000000 0.002244
v -0.017711 0.000000 0.002402
v -0.017637 0.000000 0.002549
v -0.017545 0.000000 0.002685
v -0.017437 0.000000 0.002808
v -0.017314 0.000000 0.002916
v -0.017178 0.000000 0.003008
v -0.017030 0.000000 0.003082
v -0.016872 0.000000 0.003137
v -0.016706 0.000000 0.003171
v -0.016532 0.000000 0.003183
v -0.016386 0.000000 0.003183
v -0.015982 0.000000 0.003183
v -0.015372 0.000000 0.003183
v -0.014606 0.000000 0.003183
v -0.013738 0.000000 0.003183
v -0.012818 0.000000 0.003183
v -0.011898 0.000000 0.003183
v -0.011030 0.000000 0.003183
v -0.010265 0.000000 0.003183
v -0.009654 0.000000 0.003183
v -0.009250 0.000000 0.003183
v -0.017811 0.002056 0.001904
v -0.015137 0.002056 -0.002100
v -0.017811 0.002056 -0.003509
v -0.009104 0.002056 -0.003509
v -0.009104 0.002056 -0.002100
v -0.015137 0.002056 -0.000868
v -0.015137 0.002056 0.000541
v -0.009104 0.002056 -0.000868
v -0.009104 0.002056 0.000541
v -0.015137 0.002056 0.001773
v -0.009104 0.002056 0.001773
v -0.009104 0.002056 0.003183
v -0.017800 0.002056 0.002077
v -0.017766 0.002056 0.002244
v -0.017711 0.002056 0.002402
v -0.017637 0.002056 0.002549
v -0.017545 0.002056 0.002685
v -0.017437 0.002056 0.002808
v -0.017314 0.002056 0.002916
v -0.017178 0.002056 0.003008
v -0.017030 0.002056 0.003082
v -0.016872 0.002056 0.003137
v -0.016706 0.002056 0.003171
v -0.016532 0.002056 0.003183
v -0.016386 0.002056 0.003183
v -0.015982 0.002056 0.003183
v -0.015372 0.002056 0.003183
v -0.014606 0.002056 0.003183
v -0.013738 0.002056 0.003183
v -0.012818 0.002056 0.003183
v -0.011898 0.002056 0.003183
v -0.011030 0.002056 0.003183
v -0.010265 0.002056 0.003183
v -0.009654 0.002056 0.003183
v -0.009250 0.002056 0.003183
vn -0.0000 -1.0000 -0.0000
vn -0.0000 -0.0000 1.0000
vn -0.0000 1.0000 -0.0000
vn -0.0000 -0.0000 -1.0000
vn 0.0001 0.0002 1.0000
vn -0.9797 -0.0000 0.2003
vn -0.4485 -0.0000 0.8938
vn -0.9444 -0.0000 0.3288
vn -0.3288 -0.0000 0.9444
vn -1.0000 -0.0000 -0.0000
vn -0.8937 -0.0000 0.4486
vn 1.0000 -0.0000 -0.0000
vn -0.2003 -0.0000 0.9797
vn -0.8286 -0.0000 0.5598
vn -0.0671 -0.0000 0.9977
vn -0.7507 -0.0000 0.6606
vn -0.6606 -0.0000 0.7507
vn -0.9977 -0.0000 0.0672
vn -0.5597 -0.0000 0.8287
vt 0.088235 0.000000
vt 0.058824 0.000000
vt 1.000000 0.000000
vt 0.029412 0.000000
vt 0.000000 0.000000
vt 0.970588 0.000000
vt 0.882353 0.000000
vt 0.941176 0.000000
vt 0.911765 0.000000
vt 0.852941 0.000000
vt 0.823529 0.000000
vt 0.794118 0.000000
vt 0.117647 0.000000
vt 0.147059 0.000000
vt 0.176471 0.000000
vt 0.205882 0.000000
vt 0.235294 0.000000
vt 0.264706 0.000000
vt 0.294118 0.000000
vt 0.323529 0.000000
vt 0.352941 0.000000
vt 0.382353 0.000000
vt 0.411765 0.000000
vt 0.441176 0.000000
vt 0.470588 0.000000
vt 0.500000 0.000000
vt 0.529412 0.000000
vt 0.558824 0.000000
vt 0.588235 0.000000
vt 0.617647 0.000000
vt 0.647059 0.000000
vt 0.676471 0.000000
vt 0.705882 0.000000
vt 0.735294 0.000000
vt 0.764706 0.000000
vt 0.088235 0.000000
vt 1.000000 0.000000
vt 0.058824 0.000000
vt 0.029412 0.000000
vt 0.000000 0.000000
vt 0.970588 0.000000
vt 0.882353 0.000000
vt 0.941176 0.000000
vt 0.911765 0.000000
vt 0.852941 0.000000
vt 0.823529 0.000000
vt 0.794118 0.000000
vt 0.117647 0.000000
vt 0.147059 0.000000
vt 0.176471 0.000000
vt 0.205882 0.000000
vt 0.235294 0.000000
vt 0.264706 0.000000
vt 0.294118 0.000000
vt 0.323529 0.000000
vt 0.352941 0.000000
vt 0.382353 0.000000
vt 0.411765 0.000000
vt 0.441176 0.000000
vt 0.470588 0.000000
vt 0.500000 0.000000
vt 0.529412 0.000000
vt 0.558824 0.000000
vt 0.588235 0.000000
vt 0.617647 0.000000
vt 0.647059 0.000000
vt 0.676471 0.000000
vt 0.705882 0.000000
vt 0.735294 0.000000
vt 0.764706 0.000000
s 1
usemtl SVGMat.014
f 25/25/13 26/26/13 27/27/13
f 27/27/13 26/26/13 28/28/13
f 27/27/13 28/28/13 29/29/13
f 25/25/13 27/27/13 30/30/13
f 25/25/13 30/30/13 31/31/13
f 31/31/13 30/30/13 32/32/13
f 31/31/13 32/32/13 33/33/13
f 25/25/13 31/31/13 34/34/13
f 25/25/13 34/34/13 35/35/13
f 25/25/13 35/35/13 36/36/13
f 37/37/13 25/25/13 36/36/13
f 38/38/13 37/37/13 36/36/13
f 39/39/13 38/38/13 36/36/13
f 40/40/13 39/39/13 36/36/13
f 41/41/13 40/40/13 36/36/13
f 42/42/13 41/41/13 36/36/13
f 43/43/13 42/42/13 36/36/13
f 44/44/13 43/43/13 36/36/13
f 45/45/13 44/44/13 36/36/13
f 46/46/13 45/45/13 36/36/13
f 47/47/13 46/46/13 36/36/13
f 48/48/13 47/47/13 36/36/13
f 49/49/14 48/48/14 36/36/14
f 50/50/14 49/49/14 36/36/14
f 51/51/14 50/50/14 36/36/14
f 52/52/14 51/51/14 36/36/14
f 53/53/14 52/52/14 36/36/14
f 54/54/14 53/53/14 36/36/14
f 55/55/14 54/54/14 36/36/14
f 56/56/14 55/55/14 36/36/14
f 57/57/14 56/56/14 36/36/14
f 58/58/14 57/57/14 36/36/14
f 59/59/14 58/58/14 36/36/14
f 60/60/15 61/61/15 62/62/15
f 61/61/15 63/63/15 62/62/15
f 61/61/15 64/64/15 63/63/15
f 60/60/15 65/65/15 61/61/15
f 60/60/15 66/66/15 65/65/15
f 66/66/15 67/67/15 65/65/15
f 66/66/15 68/68/15 67/67/15
f 60/60/15 69/69/15 66/66/15
f 60/60/15 70/70/15 69/69/15
f 60/60/15 71/71/15 70/70/15
f 72/72/15 71/71/15 60/60/15
f 73/73/15 71/71/15 72/72/15
f 74/74/15 71/71/15 73/73/15
f 75/75/15 71/71/15 74/74/15
f 76/76/15 71/71/15 75/75/15
f 77/77/15 71/71/15 76/76/15
f 78/78/15 71/71/15 77/77/15
f 79/79/15 71/71/15 78/78/15
f 80/80/15 71/71/15 79/79/15
f 81/81/15 71/71/15 80/80/15
f 82/82/15 71/71/15 81/81/15
f 83/83/15 71/71/15 82/82/15
f 84/84/14 71/71/14 83/83/14
f 85/85/14 71/71/14 84/84/14
f 86/86/14 71/71/14 85/85/14
f 87/87/16 71/71/16 86/86/16
f 88/88/14 71/71/17 87/87/14
f 89/89/14 71/71/17 88/88/14
f 90/90/14 71/71/17 89/89/14
f 91/91/16 71/71/16 90/90/16
f 92/92/14 71/71/14 91/91/14
f 93/93/16 71/71/14 92/92/14
f 94/94/14 71/71/14 93/93/16
f 57/57/14 58/58/14 93/93/16 92/92/14
f 37/37/18 38/38/18 73/73/18 72/72/18
f 44/44/19 45/45/19 80/80/19 79/79/19
f 51/51/14 52/52/14 87/87/14 86/86/14
f 58/58/14 59/59/14 94/94/14 93/93/16
f 38/38/20 39/39/20 74/74/20 73/73/20
f 32/32/16 30/30/16 65/65/16 67/67/16
f 45/45/21 46/46/21 81/81/21 80/80/21
f 59/59/14 36/36/14 71/71/14 94/94/14
f 52/52/14 53/53/14 88/88/14 87/87/14
f 31/31/14 33/33/14 68/68/14 66/66/14
f 26/26/22 25/25/22 60/60/22 62/62/22
f 39/39/23 40/40/23 75/75/23 74/74/23
f 33/33/24 32/32/24 67/67/24 68/68/24
f 46/46/25 47/47/25 82/82/25 81/81/25
f 53/53/14 54/54/14 89/89/14 88/88/14
f 40/40/26 41/41/26 76/76/26 75/75/26
f 34/34/24 31/31/24 66/66/24 69/69/24
f 47/47/27 48/48/27 83/83/27 82/82/27
f 54/54/14 55/55/14 90/90/14 89/89/14
f 28/28/16 26/26/16 62/62/16 63/63/16
f 41/41/28 42/42/28 77/77/28 76/76/28
f 35/35/16 34/34/16 69/69/16 70/70/16
f 48/48/14 49/49/14 84/84/14 83/83/14
f 27/27/14 29/29/14 64/64/14 61/61/14
f 55/55/14 56/56/14 91/91/14 90/90/14
f 29/29/24 28/28/24 63/63/24 64/64/24
f 42/42/29 43/43/29 78/78/29 77/77/29
f 36/36/24 35/35/24 70/70/24 71/71/24
f 49/49/14 50/50/14 85/85/14 84/84/14
f 56/56/14 57/57/14 92/92/14 91/91/14
f 25/25/30 37/37/30 72/72/30 60/60/30
f 30/30/24 27/27/24 61/61/24 65/65/24
f 43/43/31 44/44/31 79/79/31 78/78/31
f 50/50/14 51/51/14 86/86/14 85/85/14
o Curve.012_Curve.017
v 0.009888 0.000000 0.003633
v 0.006278 0.000000 0.000063
v 0.009425 0.000000 0.000063
v 0.013035 0.000000 0.003633
v 0.009888 0.002056 0.003633
v 0.009425 0.002056 0.000063
v 0.006278 0.002056 0.000063
v 0.013035 0.002056 0.003633
vn -0.0000 -1.0000 -0.0000
vn -0.0000 1.0000 -0.0000
vn 0.7032 -0.0000 -0.7110
vn -0.0000 -0.0000 -1.0000
vn -0.7032 -0.0000 0.7110
vn -0.0000 -0.0000 1.0000
vt 0.666667 0.000000
vt 0.333333 0.000000
vt 0.000000 0.000000
vt 1.000000 0.000000
vt 0.666667 0.000000
vt 0.000000 0.000000
vt 0.333333 0.000000
vt 1.000000 0.000000
s 1
usemtl SVGMat.015
f 95/95/32 96/96/32 97/97/32
f 95/95/32 97/97/32 98/98/32
f 99/99/33 100/100/33 101/101/33
f 99/99/33 102/102/33 100/100/33
f 98/98/34 97/97/34 100/100/34 102/102/34
f 97/97/35 96/96/35 101/101/35 100/100/35
f 96/96/36 95/95/36 99/99/36 101/101/36
f 95/95/37 98/98/37 102/102/37 99/99/37
o Curve.013_Curve.018
v 0.002725 0.000000 0.003185
v 0.002725 0.000000 -0.003509
v 0.005399 0.000000 -0.002100
v 0.010821 0.000000 -0.003509
v 0.010995 0.000000 -0.003497
v 0.011161 0.000000 -0.003463
v 0.011319 0.000000 -0.003408
v 0.011467 0.000000 -0.003334
v 0.011603 0.000000 -0.003243
v 0.011726 0.000000 -0.003135
v 0.011834 0.000000 -0.003012
v 0.011926 0.000000 -0.002876
v 0.012000 0.000000 -0.002729
v 0.012055 0.000000 -0.002571
v 0.012089 0.000000 -0.002404
v 0.012101 0.000000 -0.002231
v 0.009426 0.000000 -0.002100
v 0.012101 0.000000 0.000063
v 0.005399 0.000000 0.003185
v 0.009426 0.000000 0.000063
v 0.002725 0.002056 0.003185
v 0.005399 0.002056 -0.002100
v 0.002725 0.002056 -0.003509
v 0.010821 0.002056 -0.003509
v 0.010995 0.002056 -0.003497
v 0.011161 0.002056 -0.003463
v 0.011319 0.002056 -0.003408
v 0.011467 0.002056 -0.003334
v 0.011603 0.002056 -0.003243
v 0.011726 0.002056 -0.003135
v 0.011834 0.002056 -0.003012
v 0.011926 0.002056 -0.002876
v 0.012000 0.002056 -0.002729
v 0.012055 0.002056 -0.002571
v 0.012089 0.002056 -0.002404
v 0.012101 0.002056 -0.002231
v 0.009426 0.002056 -0.002100
v 0.012101 0.002056 0.000063
v 0.005399 0.002056 0.003185
v 0.009426 0.002056 0.000063
vn -0.0000 -1.0000 -0.0000
vn -0.0000 1.0000 -0.0000
vn 0.6598 -0.0000 -0.7514
vn 0.9444 -0.0000 -0.3288
vn 1.0000 -0.0000 -0.0000
vn 0.3274 -0.0000 -0.9449
vn 0.7500 -0.0000 -0.6614
vn -0.0000 -0.0000 1.0000
vn 0.9797 -0.0000 -0.2005
vn -0.0000 -0.0000 -1.0000
vn 0.4472 -0.0000 -0.8944
vn 0.8283 -0.0000 -0.5603
vn -1.0000 -0.0000 -0.0000
vn 0.9977 -0.0000 -0.0672
vn 0.0670 -0.0000 -0.9978
vn 0.5589 -0.0000 -0.8292
vn 0.8934 -0.0000 -0.4492
vn 0.1998 -0.0000 -0.9798
vt 0.105263 0.000000
vt 0.052632 0.000000
vt 0.210526 0.000000
vt 0.000000 0.000000
vt 1.000000 0.000000
vt 0.947368 0.000000
vt 0.894737 0.000000
vt 0.842105 0.000000
vt 0.789474 0.000000
vt 0.736842 0.000000
vt 0.684211 0.000000
vt 0.631579 0.000000
vt 0.578947 0.000000
vt 0.526316 0.000000
vt 0.473684 0.000000
vt 0.421053 0.000000
vt 0.263158 0.000000
vt 0.368421 0.000000
vt 0.157895 0.000000
vt 0.315789 0.000000
vt 0.105263 0.000000
vt 0.210526 0.000000
vt 0.052632 0.000000
vt 0.000000 0.000000
vt 1.000000 0.000000
vt 0.947368 0.000000
vt 0.894737 0.000000
vt 0.842105 0.000000
vt 0.789474 0.000000
vt 0.736842 0.000000
vt 0.684211 0.000000
vt 0.631579 0.000000
vt 0.578947 0.000000
vt 0.526316 0.000000
vt 0.473684 0.000000
vt 0.421053 0.000000
vt 0.263158 0.000000
vt 0.368421 0.000000
vt 0.157895 0.000000
vt 0.315789 0.000000
s 1
usemtl SVGMat.016
f 103/103/38 104/104/38 105/105/38
f 105/105/38 104/104/38 106/106/38
f 105/105/38 106/106/38 107/107/38
f 105/105/38 107/107/38 108/108/38
f 105/105/38 108/108/38 109/109/38
f 105/105/38 109/109/38 110/110/38
f 105/105/38 110/110/38 111/111/38
f 105/105/38 111/111/38 112/112/38
f 105/105/38 112/112/38 113/113/38
f 105/105/38 113/113/38 114/114/38
f 105/105/38 114/114/38 115/115/38
f 105/105/38 115/115/38 116/116/38
f 105/105/38 116/116/38 117/117/38
f 105/105/38 117/117/38 118/118/38
f 105/105/38 118/118/38 119/119/38
f 119/119/38 118/118/38 120/120/38
f 103/103/38 105/105/38 121/121/38
f 122/122/38 119/119/38 120/120/38
f 123/123/39 124/124/39 125/125/39
f 124/124/39 126/126/39 125/125/39
f 124/124/39 127/127/39 126/126/39
f 124/124/39 128/128/39 127/127/39
f 124/124/39 129/129/39 128/128/39
f 124/124/39 130/130/39 129/129/39
f 124/124/39 131/131/39 130/130/39
f 124/124/39 132/132/39 131/131/39
f 124/124/39 133/133/39 132/132/39
f 124/124/39 134/134/39 133/133/39
f 124/124/39 135/135/39 134/134/39
f 124/124/39 136/136/39 135/135/39
f 124/124/39 137/137/39 136/136/39
f 124/124/39 138/138/39 137/137/39
f 124/124/39 139/139/39 138/138/39
f 139/139/39 140/140/39 138/138/39
f 123/123/39 141/141/39 124/124/39
f 142/142/39 140/140/39 139/139/39
f 112/112/40 111/111/40 131/131/40 132/132/40
f 116/116/41 115/115/41 135/135/41 136/136/41
f 120/120/42 118/118/42 138/138/42 140/140/42
f 109/109/43 108/108/43 128/128/43 129/129/43
f 113/113/44 112/112/44 132/132/44 133/133/44
f 103/103/45 121/121/45 141/141/45 123/123/45
f 117/117/46 116/116/46 136/136/46 137/137/46
f 106/106/47 104/104/47 125/125/47 126/126/47
f 121/121/42 105/105/42 124/124/42 141/141/42
f 110/110/48 109/109/48 129/129/48 130/130/48
f 114/114/49 113/113/49 133/133/49 134/134/49
f 119/119/50 122/122/50 142/142/50 139/139/50
f 118/118/51 117/117/51 137/137/51 138/138/51
f 107/107/52 106/106/52 126/126/52 127/127/52
f 122/122/45 120/120/45 140/140/45 142/142/45
f 111/111/53 110/110/53 130/130/53 131/131/53
f 105/105/45 119/119/45 139/139/45 124/124/45
f 115/115/54 114/114/54 134/134/54 135/135/54
f 104/104/50 103/103/50 123/123/50 125/125/50
f 108/108/55 107/107/55 127/127/55 128/128/55
