# Blender v3.1.2 OBJ File: ''
# www.blender.org
mtllib R_MID.mtl
o Curve.012_Curve.017
v 0.009888 0.000000 0.003633
v 0.006278 0.000000 0.000063
v 0.009425 0.000000 0.000063
v 0.013035 0.000000 0.003633
v 0.009888 0.002056 0.003633
v 0.009425 0.002056 0.000063
v 0.006278 0.002056 0.000063
v 0.013035 0.002056 0.003633
vt 0.666667 0.000000
vt 0.333333 0.000000
vt 0.000000 0.000000
vt 1.000000 0.000000
vt 0.666667 0.000000
vt 0.000000 0.000000
vt 0.333333 0.000000
vt 1.000000 0.000000
vn 0.0000 -1.0000 -0.0000
vn 0.0000 1.0000 0.0000
vn 0.7032 0.0000 -0.7110
vn 0.0000 0.0000 -1.0000
vn -0.7032 -0.0000 0.7110
vn 0.0000 -0.0000 1.0000
usemtl SVGMat.015
s 1
f 1/1/1 2/2/1 3/3/1
f 1/1/1 3/3/1 4/4/1
f 5/5/2 6/6/2 7/7/2
f 5/5/2 8/8/2 6/6/2
f 4/4/3 3/3/3 6/6/3 8/8/3
f 3/3/4 2/2/4 7/7/4 6/6/4
f 2/2/5 1/1/5 5/5/5 7/7/5
f 1/1/6 4/4/6 8/8/6 5/5/6
o Curve.013_Curve.018
v 0.002725 0.000000 0.003185
v 0.002725 0.000000 -0.003509
v 0.005399 0.000000 -0.002100
v 0.010821 0.000000 -0.003509
v 0.010995 0.000000 -0.003497
v 0.011161 0.000000 -0.003463
v 0.011319 0.000000 -0.003408
v 0.011467 0.000000 -0.003334
v 0.011603 0.000000 -0.003243
v 0.011726 0.000000 -0.003135
v 0.011834 0.000000 -0.003012
v 0.011926 0.000000 -0.002876
v 0.012000 0.000000 -0.002729
v 0.012055 0.000000 -0.002571
v 0.012089 0.000000 -0.002404
v 0.012101 0.000000 -0.002231
v 0.009426 0.000000 -0.002100
v 0.012101 0.000000 0.000063
v 0.005399 0.000000 0.003185
v 0.009426 0.000000 0.000063
v 0.002725 0.002056 0.003185
v 0.005399 0.002056 -0.002100
v 0.002725 0.002056 -0.003509
v 0.010821 0.002056 -0.003509
v 0.010995 0.002056 -0.003497
v 0.011161 0.002056 -0.003463
v 0.011319 0.002056 -0.003408
v 0.011467 0.002056 -0.003334
v 0.011603 0.002056 -0.003243
v 0.011726 0.002056 -0.003135
v 0.011834 0.002056 -0.003012
v 0.011926 0.002056 -0.002876
v 0.012000 0.002056 -0.002729
v 0.012055 0.002056 -0.002571
v 0.012089 0.002056 -0.002404
v 0.012101 0.002056 -0.002231
v 0.009426 0.002056 -0.002100
v 0.012101 0.002056 0.000063
v 0.005399 0.002056 0.003185
v 0.009426 0.002056 0.000063
vt 0.105263 0.000000
vt 0.052632 0.000000
vt 0.210526 0.000000
vt 0.000000 0.000000
vt 1.000000 0.000000
vt 0.947368 0.000000
vt 0.894737 0.000000
vt 0.842105 0.000000
vt 0.789474 0.000000
vt 0.736842 0.000000
vt 0.684211 0.000000
vt 0.631579 0.000000
vt 0.578947 0.000000
vt 0.526316 0.000000
vt 0.473684 0.000000
vt 0.421053 0.000000
vt 0.263158 0.000000
vt 0.368421 0.000000
vt 0.157895 0.000000
vt 0.315789 0.000000
vt 0.105263 0.000000
vt 0.210526 0.000000
vt 0.052632 0.000000
vt 0.000000 0.000000
vt 1.000000 0.000000
vt 0.947368 0.000000
vt 0.894737 0.000000
vt 0.842105 0.000000
vt 0.789474 0.000000
vt 0.736842 0.000000
vt 0.684211 0.000000
vt 0.631579 0.000000
vt 0.578947 0.000000
vt 0.526316 0.000000
vt 0.473684 0.000000
vt 0.421053 0.000000
vt 0.263158 0.000000
vt 0.368421 0.000000
vt 0.157895 0.000000
vt 0.315789 0.000000
vn -0.0000 -1.0000 -0.0000
vn 0.0000 1.0000 0.0000
vn 0.6598 0.0000 -0.7514
vn 0.9444 0.0000 -0.3288
vn 1.0000 -0.0000 0.0000
vn 0.3274 0.0000 -0.9449
vn 0.7500 0.0000 -0.6614
vn 0.0000 -0.0000 1.0000
vn 0.9797 0.0000 -0.2005
vn 0.0000 0.0000 -1.0000
vn 0.4472 0.0000 -0.8944
vn 0.8283 0.0000 -0.5603
vn -1.0000 0.0000 0.0000
vn 0.9977 0.0000 -0.0672
vn 0.0670 0.0000 -0.9978
vn 0.5589 0.0000 -0.8292
vn 0.8934 0.0000 -0.4492
vn 0.1998 0.0000 -0.9798
usemtl SVGMat.016
s 1
f 9/9/7 10/10/7 11/11/7
f 11/11/7 10/10/7 12/12/7
f 11/11/7 12/12/7 13/13/7
f 11/11/7 13/13/7 14/14/7
f 11/11/7 14/14/7 15/15/7
f 11/11/7 15/15/7 16/16/7
f 11/11/7 16/16/7 17/17/7
f 11/11/7 17/17/7 18/18/7
f 11/11/7 18/18/7 19/19/7
f 11/11/7 19/19/7 20/20/7
f 11/11/7 20/20/7 21/21/7
f 11/11/7 21/21/7 22/22/7
f 11/11/7 22/22/7 23/23/7
f 11/11/7 23/23/7 24/24/7
f 11/11/7 24/24/7 25/25/7
f 25/25/7 24/24/7 26/26/7
f 9/9/7 11/11/7 27/27/7
f 28/28/7 25/25/7 26/26/7
f 29/29/8 30/30/8 31/31/8
f 30/30/8 32/32/8 31/31/8
f 30/30/8 33/33/8 32/32/8
f 30/30/8 34/34/8 33/33/8
f 30/30/8 35/35/8 34/34/8
f 30/30/8 36/36/8 35/35/8
f 30/30/8 37/37/8 36/36/8
f 30/30/8 38/38/8 37/37/8
f 30/30/8 39/39/8 38/38/8
f 30/30/8 40/40/8 39/39/8
f 30/30/8 41/41/8 40/40/8
f 30/30/8 42/42/8 41/41/8
f 30/30/8 43/43/8 42/42/8
f 30/30/8 44/44/8 43/43/8
f 30/30/8 45/45/8 44/44/8
f 45/45/8 46/46/8 44/44/8
f 29/29/8 47/47/8 30/30/8
f 48/48/8 46/46/8 45/45/8
f 18/18/9 17/17/9 37/37/9 38/38/9
f 22/22/10 21/21/10 41/41/10 42/42/10
f 26/26/11 24/24/11 44/44/11 46/46/11
f 15/15/12 14/14/12 34/34/12 35/35/12
f 19/19/13 18/18/13 38/38/13 39/39/13
f 9/9/14 27/27/14 47/47/14 29/29/14
f 23/23/15 22/22/15 42/42/15 43/43/15
f 12/12/16 10/10/16 31/31/16 32/32/16
f 27/27/11 11/11/11 30/30/11 47/47/11
f 16/16/17 15/15/17 35/35/17 36/36/17
f 20/20/18 19/19/18 39/39/18 40/40/18
f 25/25/19 28/28/19 48/48/19 45/45/19
f 24/24/20 23/23/20 43/43/20 44/44/20
f 13/13/21 12/12/21 32/32/21 33/33/21
f 28/28/14 26/26/14 46/46/14 48/48/14
f 17/17/22 16/16/22 36/36/22 37/37/22
f 11/11/14 25/25/14 45/45/14 30/30/14
f 21/21/23 20/20/23 40/40/23 41/41/23
f 10/10/19 9/9/19 29/29/19 31/31/19
f 14/14/24 13/13/24 33/33/24 34/34/24
