# Blender v3.1.2 OBJ File: ''
# www.blender.org
mtllib T.mtl
o Curve.010_Curve.015
v 0.010374 0.000000 -0.007225
v 0.010374 0.000000 -0.005816
v 0.013492 0.000000 -0.005816
v 0.013492 0.000000 -0.000531
v 0.016166 0.000000 -0.000531
v 0.016166 0.000000 -0.005816
v 0.019285 0.000000 -0.005816
v 0.019285 0.000000 -0.007225
v 0.010374 0.002056 -0.007225
v 0.010374 0.002056 -0.005816
v 0.013492 0.002056 -0.005816
v 0.013492 0.002056 -0.000531
v 0.016166 0.002056 -0.000531
v 0.016166 0.002056 -0.005816
v 0.019285 0.002056 -0.005816
v 0.019285 0.002056 -0.007225
vt 0.142857 0.000000
vt 0.000000 0.000000
vt 1.000000 0.000000
vt 0.857143 0.000000
vt 0.285714 0.000000
vt 0.428571 0.000000
vt 0.714286 0.000000
vt 0.571429 0.000000
vt 0.142857 0.000000
vt 1.000000 0.000000
vt 0.000000 0.000000
vt 0.857143 0.000000
vt 0.285714 0.000000
vt 0.428571 0.000000
vt 0.714286 0.000000
vt 0.571429 0.000000
vn 0.0000 -1.0000 0.0000
vn 0.0000 0.0000 1.0000
vn 0.0000 1.0000 0.0000
vn -1.0000 0.0000 0.0000
vn 1.0000 0.0000 0.0000
vn 0.0000 0.0000 -1.0000
usemtl SVGMat.013
s off
f 2/1/1 1/2/1 8/3/1
f 2/1/1 8/3/1 7/4/1
f 3/5/2 2/1/2 7/4/2
f 4/6/1 3/5/1 6/7/1
f 6/7/2 3/5/2 7/4/2
f 4/6/1 6/7/1 5/8/1
f 10/9/3 16/10/3 9/11/3
f 10/9/3 15/12/3 16/10/3
f 11/13/2 15/12/2 10/9/2
f 12/14/3 14/15/3 11/13/3
f 14/15/2 15/12/2 11/13/2
f 12/14/3 13/16/3 14/15/3
f 3/5/4 4/6/4 12/14/4 11/13/4
f 2/1/2 3/5/2 11/13/2 10/9/2
f 5/8/5 6/7/5 14/15/5 13/16/5
f 6/7/2 7/4/2 15/12/2 14/15/2
f 7/4/5 8/3/5 16/10/5 15/12/5
f 8/3/6 1/2/6 9/11/6 16/10/6
f 4/6/2 5/8/2 13/16/2 12/14/2
f 1/2/4 2/1/4 10/9/4 9/11/4
