# Blender v3.1.2 OBJ File: ''
# www.blender.org
mtllib I.mtl
o Curve.009_Curve.014
v 0.032021 0.000000 -0.007225
v 0.034688 0.000000 -0.007225
v 0.034688 0.000000 -0.000531
v 0.032021 0.000000 -0.000531
v 0.032021 0.002056 -0.007225
v 0.034688 0.002056 -0.007225
v 0.034688 0.002056 -0.000531
v 0.032021 0.002056 -0.000531
vt 1.000000 0.000000
vt 0.000000 0.000000
vt 0.333333 0.000000
vt 0.666667 0.000000
vt 1.000000 0.000000
vt 0.333333 0.000000
vt 0.000000 0.000000
vt 0.666667 0.000000
vn 0.0000 -1.0000 0.0000
vn 0.0000 1.0000 0.0000
vn -1.0000 0.0000 0.0000
vn 0.0000 0.0000 1.0000
vn 1.0000 0.0000 0.0000
vn 0.0000 0.0000 -1.0000
usemtl SVGMat.012
s off
f 4/1/1 1/2/1 2/3/1
f 4/1/1 2/3/1 3/4/1
f 8/5/2 6/6/2 5/7/2
f 8/5/2 7/8/2 6/6/2
f 1/2/3 4/1/3 8/5/3 5/7/3
f 4/1/4 3/4/4 7/8/4 8/5/4
f 3/4/5 2/3/5 6/6/5 7/8/5
f 2/3/6 1/2/6 5/7/6 6/6/6
