# Blender v3.1.2 OBJ File: ''
# www.blender.org
mtllib R.mtl
o Curve.012_Curve.017
v 0.027325 0.000000 -0.003653
v 0.024178 0.000000 -0.003653
v 0.027788 0.000000 -0.000083
v 0.030935 0.000000 -0.000083
v 0.027325 0.002056 -0.003653
v 0.024178 0.002056 -0.003653
v 0.027788 0.002056 -0.000083
v 0.030935 0.002056 -0.000083
vt 0.666667 0.000000
vt 0.333333 0.000000
vt 0.000000 0.000000
vt 1.000000 0.000000
vt 0.666667 0.000000
vt 0.000000 0.000000
vt 0.333333 0.000000
vt 1.000000 0.000000
vn 0.0000 -1.0000 0.0000
vn 0.0000 1.0000 0.0000
vn 0.7032 0.0000 -0.7110
vn 0.0000 0.0000 -1.0000
vn -0.7032 0.0000 0.7110
vn 0.0000 0.0000 1.0000
usemtl SVGMat.015
s off
f 3/1/1 2/2/1 1/3/1
f 3/1/1 1/3/1 4/4/1
f 7/5/2 5/6/2 6/7/2
f 7/5/2 8/8/2 5/6/2
f 4/4/3 1/3/3 5/6/3 8/8/3
f 1/3/4 2/2/4 6/7/4 5/6/4
f 2/2/5 3/1/5 7/5/5 6/7/5
f 3/1/6 4/4/6 8/8/6 7/5/6
o Curve.013_Curve.018
v 0.028721 0.000000 -0.007225
v 0.020625 0.000000 -0.007225
v 0.020625 0.000000 -0.000531
v 0.023299 0.000000 -0.000531
v 0.023299 0.000000 -0.005816
v 0.027326 0.000000 -0.005816
v 0.027326 0.000000 -0.003653
v 0.030001 0.000000 -0.003653
v 0.030001 0.000000 -0.005947
v 0.029989 0.000000 -0.006120
v 0.029955 0.000000 -0.006287
v 0.029900 0.000000 -0.006445
v 0.029826 0.000000 -0.006592
v 0.029734 0.000000 -0.006728
v 0.029626 0.000000 -0.006851
v 0.029503 0.000000 -0.006959
v 0.029367 0.000000 -0.007050
v 0.029219 0.000000 -0.007124
v 0.029061 0.000000 -0.007179
v 0.028895 0.000000 -0.007213
v 0.028721 0.002056 -0.007225
v 0.020625 0.002056 -0.007225
v 0.020625 0.002056 -0.000531
v 0.023299 0.002056 -0.000531
v 0.023299 0.002056 -0.005816
v 0.027326 0.002056 -0.005816
v 0.027326 0.002056 -0.003653
v 0.030001 0.002056 -0.003653
v 0.030001 0.002056 -0.005947
v 0.029989 0.002056 -0.006120
v 0.029955 0.002056 -0.006287
v 0.029900 0.002056 -0.006445
v 0.029826 0.002056 -0.006592
v 0.029734 0.002056 -0.006728
v 0.029626 0.002056 -0.006851
v 0.029503 0.002056 -0.006959
v 0.029367 0.002056 -0.007050
v 0.029219 0.002056 -0.007124
v 0.029061 0.002056 -0.007179
v 0.028895 0.002056 -0.007213
vt 0.105263 0.000000
vt 0.052632 0.000000
vt 0.210526 0.000000
vt 0.000000 0.000000
vt 1.000000 0.000000
vt 0.947368 0.000000
vt 0.894737 0.000000
vt 0.842105 0.000000
vt 0.789474 0.000000
vt 0.736842 0.000000
vt 0.684211 0.000000
vt 0.631579 0.000000
vt 0.578947 0.000000
vt 0.526316 0.000000
vt 0.473684 0.000000
vt 0.421053 0.000000
vt 0.263158 0.000000
vt 0.368421 0.000000
vt 0.157895 0.000000
vt 0.315789 0.000000
vt 0.105263 0.000000
vt 0.210526 0.000000
vt 0.052632 0.000000
vt 0.000000 0.000000
vt 1.000000 0.000000
vt 0.947368 0.000000
vt 0.894737 0.000000
vt 0.842105 0.000000
vt 0.789474 0.000000
vt 0.736842 0.000000
vt 0.684211 0.000000
vt 0.631579 0.000000
vt 0.578947 0.000000
vt 0.526316 0.000000
vt 0.473684 0.000000
vt 0.421053 0.000000
vt 0.263158 0.000000
vt 0.368421 0.000000
vt 0.157895 0.000000
vt 0.315789 0.000000
vn 0.0000 -1.0000 0.0000
vn 0.0000 1.0000 0.0000
vn 0.6600 0.0000 -0.7513
vn 0.9445 0.0000 -0.3285
vn 1.0000 0.0000 0.0000
vn 0.3274 0.0000 -0.9449
vn 0.7500 0.0000 -0.6614
vn 0.0000 0.0000 1.0000
vn 0.9797 0.0000 -0.2004
vn 0.0000 0.0000 -1.0000
vn 0.4477 0.0000 -0.8942
vn 0.8283 0.0000 -0.5604
vn -1.0000 0.0000 0.0000
vn 0.9977 0.0000 -0.0672
vn 0.0670 0.0000 -0.9978
vn 0.5589 0.0000 -0.8292
vn 0.8935 0.0000 -0.4490
vn 0.1997 0.0000 -0.9799
usemtl SVGMat.016
s off
f 11/9/7 10/10/7 13/11/7
f 13/11/7 10/10/7 9/12/7
f 13/11/7 9/12/7 28/13/7
f 13/11/7 28/13/7 27/14/7
f 13/11/7 27/14/7 26/15/7
f 13/11/7 26/15/7 25/16/7
f 13/11/7 25/16/7 24/17/7
f 13/11/7 24/17/7 23/18/7
f 13/11/7 23/18/7 22/19/7
f 13/11/7 22/19/7 21/20/7
f 13/11/7 21/20/7 20/21/7
f 13/11/7 20/21/7 19/22/7
f 13/11/7 19/22/7 18/23/7
f 13/11/7 18/23/7 17/24/7
f 13/11/7 17/24/7 14/25/7
f 14/25/7 17/24/7 16/26/7
f 11/9/7 13/11/7 12/27/7
f 15/28/7 14/25/7 16/26/7
f 31/29/8 33/30/8 30/31/8
f 33/30/8 29/32/8 30/31/8
f 33/30/8 48/33/8 29/32/8
f 33/30/8 47/34/8 48/33/8
f 33/30/8 46/35/8 47/34/8
f 33/30/8 45/36/8 46/35/8
f 33/30/8 44/37/8 45/36/8
f 33/30/8 43/38/8 44/37/8
f 33/30/8 42/39/8 43/38/8
f 33/30/8 41/40/8 42/39/8
f 33/30/8 40/41/8 41/40/8
f 33/30/8 39/42/8 40/41/8
f 33/30/8 38/43/8 39/42/8
f 33/30/8 37/44/8 38/43/8
f 33/30/8 34/45/8 37/44/8
f 34/45/8 36/46/8 37/44/8
f 31/29/8 32/47/8 33/30/8
f 35/48/8 36/46/8 34/45/8
f 23/18/9 24/17/9 44/37/9 43/38/9
f 19/22/10 20/21/10 40/41/10 39/42/10
f 16/26/11 17/24/11 37/44/11 36/46/11
f 26/15/12 27/14/12 47/34/12 46/35/12
f 22/19/13 23/18/13 43/38/13 42/39/13
f 11/9/14 12/27/14 32/47/14 31/29/14
f 18/23/15 19/22/15 39/42/15 38/43/15
f 9/12/16 10/10/16 30/31/16 29/32/16
f 12/27/11 13/11/11 33/30/11 32/47/11
f 25/16/17 26/15/17 46/35/17 45/36/17
f 21/20/18 22/19/18 42/39/18 41/40/18
f 14/25/19 15/28/19 35/48/19 34/45/19
f 17/24/20 18/23/20 38/43/20 37/44/20
f 28/13/21 9/12/21 29/32/21 48/33/21
f 15/28/14 16/26/14 36/46/14 35/48/14
f 24/17/22 25/16/22 45/36/22 44/37/22
f 13/11/14 14/25/14 34/45/14 33/30/14
f 20/21/23 21/20/23 41/40/23 40/41/23
f 10/10/19 11/9/19 31/29/19 30/31/19
f 27/14/24 28/13/24 48/33/24 47/34/24
